<svg width="176" height="50" viewBox="0 0 176 50" fill="none" xmlns="http://www.w3.org/2000/svg">
<path d="M54.8991 8.987V0.315999H57.6161C58.3267 0.315999 58.9507 0.385333 59.4881 0.524C60.0341 0.662666 60.4587 0.922666 60.7621 1.304C61.0741 1.67667 61.2301 2.22267 61.2301 2.942C61.2301 3.65267 61.0741 4.19867 60.7621 4.58C60.4587 4.95267 60.0341 5.20833 59.4881 5.347C58.9507 5.477 58.3267 5.542 57.6161 5.542H56.1211V8.987H54.8991ZM56.1211 4.489H57.7201C58.1447 4.489 58.5261 4.45867 58.8641 4.398C59.2021 4.33733 59.4707 4.19867 59.6701 3.982C59.8781 3.75667 59.9821 3.41 59.9821 2.942C59.9821 2.46533 59.8781 2.11433 59.6701 1.889C59.4707 1.66367 59.2021 1.51633 58.8641 1.447C58.5261 1.37767 58.1447 1.343 57.7201 1.343H56.1211V4.489ZM65.5667 9.156C65.194 9.156 64.8257 9.091 64.4617 8.961C64.0977 8.831 63.764 8.63167 63.4607 8.363C63.166 8.08567 62.9277 7.73467 62.7457 7.31C62.5637 6.88533 62.4727 6.38267 62.4727 5.802C62.4727 5.22133 62.5637 4.71867 62.7457 4.294C62.9277 3.86933 63.166 3.52267 63.4607 3.254C63.764 2.97667 64.0977 2.773 64.4617 2.643C64.8257 2.513 65.194 2.448 65.5667 2.448C65.9393 2.448 66.3077 2.513 66.6717 2.643C67.0443 2.773 67.378 2.97667 67.6727 3.254C67.976 3.52267 68.2143 3.86933 68.3877 4.294C68.5697 4.71867 68.6607 5.22133 68.6607 5.802C68.6607 6.38267 68.5697 6.88533 68.3877 7.31C68.2143 7.73467 67.976 8.08567 67.6727 8.363C67.378 8.63167 67.0443 8.831 66.6717 8.961C66.3077 9.091 65.9393 9.156 65.5667 9.156ZM65.5667 8.194C65.8787 8.194 66.182 8.11167 66.4767 7.947C66.7713 7.77367 67.014 7.51367 67.2047 7.167C67.3953 6.81167 67.4907 6.35667 67.4907 5.802C67.4907 5.24733 67.3953 4.79667 67.2047 4.45C67.014 4.09467 66.7713 3.83467 66.4767 3.67C66.182 3.49667 65.8787 3.41 65.5667 3.41C65.2633 3.41 64.96 3.49667 64.6567 3.67C64.362 3.83467 64.1193 4.09467 63.9287 4.45C63.738 4.79667 63.6427 5.24733 63.6427 5.802C63.6427 6.35667 63.738 6.81167 63.9287 7.167C64.1193 7.51367 64.362 7.77367 64.6567 7.947C64.96 8.11167 65.2633 8.194 65.5667 8.194ZM71.2705 9L69.4115 2.552H70.5815L71.8165 7.323L73.1035 2.552H74.2345L75.5085 7.323L76.7435 2.552H77.9135L76.0675 9H75.0665L73.6625 3.813L72.2585 9H71.2705ZM81.8304 9.156C81.1544 9.156 80.5824 9.00867 80.1144 8.714C79.6464 8.41067 79.2867 8.00767 79.0354 7.505C78.7927 6.99367 78.6714 6.42167 78.6714 5.789C78.6714 5.10433 78.8101 4.515 79.0874 4.021C79.3647 3.51833 79.7374 3.13267 80.2054 2.864C80.6821 2.58667 81.2151 2.448 81.8044 2.448C82.3157 2.448 82.7664 2.552 83.1564 2.76C83.5464 2.95933 83.8671 3.23233 84.1184 3.579C84.3784 3.917 84.5647 4.30267 84.6774 4.736C84.7987 5.16933 84.8421 5.61567 84.8074 6.075H79.8414C79.8587 6.61233 79.9757 7.037 80.1924 7.349C80.4177 7.661 80.6821 7.882 80.9854 8.012C81.2887 8.13333 81.5704 8.194 81.8304 8.194C82.1944 8.194 82.4977 8.13767 82.7404 8.025C82.9917 7.90367 83.1911 7.74767 83.3384 7.557L84.3914 7.869C84.1574 8.24167 83.8237 8.54933 83.3904 8.792C82.9571 9.03467 82.4371 9.156 81.8304 9.156ZM79.8544 5.204H83.6504C83.6504 4.90067 83.5724 4.61033 83.4164 4.333C83.2691 4.05567 83.0567 3.83033 82.7794 3.657C82.5107 3.475 82.1857 3.384 81.8044 3.384C81.4837 3.384 81.1804 3.44467 80.8944 3.566C80.6084 3.68733 80.3701 3.88233 80.1794 4.151C79.9974 4.41967 79.8891 4.77067 79.8544 5.204ZM86.3552 9V2.552H87.1482L87.4992 3.748C87.7245 3.358 88.0279 3.046 88.4092 2.812C88.7992 2.56933 89.2629 2.448 89.8002 2.448V3.579C89.7395 3.579 89.6745 3.579 89.6052 3.579C89.5445 3.579 89.4839 3.58333 89.4232 3.592C88.6865 3.65267 88.1709 3.90833 87.8762 4.359C87.5902 4.80967 87.4472 5.43367 87.4472 6.231V9H86.3552ZM93.7762 9.156C93.1002 9.156 92.5282 9.00867 92.0602 8.714C91.5922 8.41067 91.2325 8.00767 90.9812 7.505C90.7385 6.99367 90.6172 6.42167 90.6172 5.789C90.6172 5.10433 90.7558 4.515 91.0332 4.021C91.3105 3.51833 91.6832 3.13267 92.1512 2.864C92.6278 2.58667 93.1608 2.448 93.7502 2.448C94.2615 2.448 94.7122 2.552 95.1022 2.76C95.4922 2.95933 95.8128 3.23233 96.0642 3.579C96.3242 3.917 96.5105 4.30267 96.6232 4.736C96.7445 5.16933 96.7878 5.61567 96.7532 6.075H91.7872C91.8045 6.61233 91.9215 7.037 92.1382 7.349C92.3635 7.661 92.6278 7.882 92.9312 8.012C93.2345 8.13333 93.5162 8.194 93.7762 8.194C94.1402 8.194 94.4435 8.13767 94.6862 8.025C94.9375 7.90367 95.1368 7.74767 95.2842 7.557L96.3372 7.869C96.1032 8.24167 95.7695 8.54933 95.3362 8.792C94.9028 9.03467 94.3828 9.156 93.7762 9.156ZM91.8002 5.204H95.5962C95.5962 4.90067 95.5182 4.61033 95.3622 4.333C95.2148 4.05567 95.0025 3.83033 94.7252 3.657C94.4565 3.475 94.1315 3.384 93.7502 3.384C93.4295 3.384 93.1262 3.44467 92.8402 3.566C92.5542 3.68733 92.3158 3.88233 92.1252 4.151C91.9432 4.41967 91.8348 4.77067 91.8002 5.204ZM100.654 9.156C100.169 9.156 99.7136 9.026 99.289 8.766C98.8643 8.49733 98.522 8.116 98.262 7.622C98.0106 7.11933 97.885 6.51267 97.885 5.802C97.885 5.09133 98.0106 4.489 98.262 3.995C98.522 3.49233 98.8643 3.111 99.289 2.851C99.7136 2.58233 100.169 2.448 100.654 2.448C101.165 2.448 101.594 2.552 101.941 2.76C102.288 2.95933 102.556 3.228 102.747 3.566V0.315999H103.839V6.569C103.839 6.78567 103.848 7.10633 103.865 7.531C103.882 7.947 103.947 8.43667 104.06 9H103.033L102.747 8.025C102.556 8.37167 102.288 8.649 101.941 8.857C101.594 9.05633 101.165 9.156 100.654 9.156ZM100.94 8.22C101.495 8.22 101.937 8.00767 102.266 7.583C102.604 7.15833 102.773 6.56467 102.773 5.802C102.773 5.03067 102.604 4.437 102.266 4.021C101.937 3.59633 101.495 3.384 100.94 3.384C100.385 3.384 99.939 3.59633 99.601 4.021C99.2716 4.437 99.107 5.03067 99.107 5.802C99.107 6.56467 99.2716 7.15833 99.601 7.583C99.939 8.00767 100.385 8.22 100.94 8.22ZM112.987 9.156C112.485 9.156 112.06 9.05633 111.713 8.857C111.367 8.649 111.094 8.37167 110.894 8.025L110.608 9H109.802V0.315999H110.894V3.566C111.094 3.228 111.367 2.95933 111.713 2.76C112.06 2.552 112.485 2.448 112.987 2.448C113.481 2.448 113.936 2.58233 114.352 2.851C114.777 3.111 115.115 3.49233 115.366 3.995C115.626 4.489 115.756 5.09133 115.756 5.802C115.756 6.51267 115.626 7.11933 115.366 7.622C115.115 8.116 114.777 8.49733 114.352 8.766C113.936 9.026 113.481 9.156 112.987 9.156ZM112.701 8.22C113.256 8.22 113.698 8.00767 114.027 7.583C114.365 7.15833 114.534 6.56467 114.534 5.802C114.534 5.03067 114.365 4.437 114.027 4.021C113.698 3.59633 113.256 3.384 112.701 3.384C112.147 3.384 111.7 3.59633 111.362 4.021C111.033 4.437 110.868 5.03067 110.868 5.802C110.868 6.56467 111.033 7.15833 111.362 7.583C111.7 8.00767 112.147 8.22 112.701 8.22ZM116.997 11.093V10.131H117.439C117.751 10.131 117.989 10.105 118.154 10.053C118.318 10.0097 118.448 9.90567 118.544 9.741C118.648 9.585 118.747 9.34233 118.843 9.013L116.516 2.565H117.725L119.311 7.531L120.897 2.565H122.093L119.805 9.286C119.649 9.74533 119.488 10.105 119.324 10.365C119.168 10.6337 118.955 10.82 118.687 10.924C118.418 11.0367 118.041 11.093 117.556 11.093H116.997Z" fill="white"/>
<g clip-path="url(#clip0_211_6966)">
<rect x="1.49979" y="28.5269" width="10.946" height="10.946" rx="5.473" stroke="white" stroke-width="3"/>
<rect x="19.5539" y="19.5" width="10.946" height="10.946" rx="5.473" stroke="white" stroke-width="3"/>
<rect x="19.5539" y="37.554" width="10.946" height="10.946" rx="5.473" stroke="white" stroke-width="3"/>
</g>
<path d="M48.4896 42V40.056L57.9456 27.912H48.8496V25.968H60.5856V27.912L51.1776 40.056H60.9456V42H48.4896ZM68.7557 42.288C67.5077 42.288 66.4517 42.016 65.5877 41.472C64.7237 40.912 64.0597 40.168 63.5957 39.24C63.1477 38.296 62.9237 37.24 62.9237 36.072C62.9237 34.808 63.1797 33.72 63.6917 32.808C64.2037 31.88 64.8917 31.168 65.7557 30.672C66.6357 30.16 67.6197 29.904 68.7077 29.904C69.6517 29.904 70.4837 30.096 71.2037 30.48C71.9237 30.848 72.5157 31.352 72.9797 31.992C73.4597 32.616 73.8037 33.328 74.0117 34.128C74.2357 34.928 74.3157 35.752 74.2517 36.6H65.0837C65.1157 37.592 65.3317 38.376 65.7317 38.952C66.1477 39.528 66.6357 39.936 67.1957 40.176C67.7557 40.4 68.2757 40.512 68.7557 40.512C69.4277 40.512 69.9877 40.408 70.4357 40.2C70.8997 39.976 71.2677 39.688 71.5397 39.336L73.4837 39.912C73.0517 40.6 72.4357 41.168 71.6357 41.616C70.8357 42.064 69.8757 42.288 68.7557 42.288ZM65.1077 34.992H72.1157C72.1157 34.432 71.9717 33.896 71.6837 33.384C71.4117 32.872 71.0197 32.456 70.5077 32.136C70.0117 31.8 69.4117 31.632 68.7077 31.632C68.1157 31.632 67.5557 31.744 67.0277 31.968C66.4997 32.192 66.0597 32.552 65.7077 33.048C65.3717 33.544 65.1717 34.192 65.1077 34.992ZM76.6292 42V30.096H78.1172L78.6452 31.896C78.9812 31.336 79.4532 30.864 80.0612 30.48C80.6692 30.096 81.4772 29.904 82.4852 29.904C83.9252 29.904 84.9412 30.328 85.5332 31.176C86.1252 32.008 86.4212 33.104 86.4212 34.464V42H84.4052V35.064C84.4052 34.456 84.3492 33.896 84.2372 33.384C84.1252 32.856 83.8772 32.432 83.4932 32.112C83.1252 31.792 82.5572 31.632 81.7892 31.632C80.8132 31.632 80.0452 31.968 79.4852 32.64C78.9252 33.296 78.6452 34.264 78.6452 35.544V42H76.6292ZM96.7628 42.288C95.2268 42.288 93.8988 41.936 92.7788 41.232C91.6588 40.512 90.7868 39.528 90.1628 38.28C89.5548 37.016 89.2508 35.576 89.2508 33.96C89.2508 32.344 89.5548 30.92 90.1628 29.688C90.7868 28.44 91.6588 27.464 92.7788 26.76C93.8988 26.04 95.2268 25.68 96.7628 25.68C98.3148 25.68 99.6508 26.04 100.771 26.76C101.891 27.464 102.755 28.44 103.363 29.688C103.987 30.92 104.299 32.344 104.299 33.96C104.299 35.576 103.987 37.016 103.363 38.28C102.755 39.528 101.891 40.512 100.771 41.232C99.6508 41.936 98.3148 42.288 96.7628 42.288ZM96.7628 40.392C97.7388 40.392 98.6188 40.144 99.4028 39.648C100.203 39.152 100.835 38.432 101.299 37.488C101.763 36.528 101.995 35.352 101.995 33.96C101.995 32.584 101.763 31.424 101.299 30.48C100.835 29.52 100.203 28.8 99.4028 28.32C98.6188 27.824 97.7388 27.576 96.7628 27.576C95.8028 27.576 94.9228 27.824 94.1228 28.32C93.3388 28.8 92.7148 29.52 92.2508 30.48C91.7868 31.424 91.5548 32.584 91.5548 33.96C91.5548 35.352 91.7868 36.528 92.2508 37.488C92.7148 38.432 93.3388 39.152 94.1228 39.648C94.9228 40.144 95.8028 40.392 96.7628 40.392ZM112.592 42.288C111.712 42.288 110.856 42.152 110.024 41.88C109.192 41.608 108.456 41.192 107.816 40.632C107.192 40.072 106.736 39.36 106.448 38.496L108.536 37.872C108.728 38.448 109.04 38.928 109.472 39.312C109.904 39.68 110.4 39.952 110.96 40.128C111.536 40.304 112.112 40.392 112.688 40.392C113.328 40.392 113.936 40.288 114.512 40.08C115.088 39.872 115.552 39.56 115.904 39.144C116.272 38.712 116.456 38.176 116.456 37.536C116.456 36.88 116.216 36.36 115.736 35.976C115.256 35.592 114.424 35.248 113.24 34.944L111.2 34.488C110.464 34.296 109.736 34.04 109.016 33.72C108.312 33.4 107.728 32.944 107.264 32.352C106.816 31.76 106.592 30.968 106.592 29.976C106.592 29.064 106.872 28.288 107.432 27.648C108.008 27.008 108.744 26.52 109.64 26.184C110.552 25.848 111.496 25.68 112.472 25.68C113.224 25.68 113.96 25.792 114.68 26.016C115.416 26.224 116.072 26.552 116.648 27C117.24 27.432 117.704 27.992 118.04 28.68L115.976 29.28C115.672 28.72 115.176 28.296 114.488 28.008C113.816 27.72 113.112 27.576 112.376 27.576C111.8 27.576 111.248 27.672 110.72 27.864C110.192 28.04 109.76 28.312 109.424 28.68C109.088 29.048 108.92 29.512 108.92 30.072C108.92 30.6 109.072 31.024 109.376 31.344C109.696 31.664 110.112 31.92 110.624 32.112C111.152 32.288 111.728 32.448 112.352 32.592L114.104 32.976C114.92 33.168 115.688 33.432 116.408 33.768C117.128 34.104 117.712 34.576 118.16 35.184C118.608 35.792 118.832 36.608 118.832 37.632C118.832 38.368 118.656 39.032 118.304 39.624C117.952 40.2 117.48 40.688 116.888 41.088C116.296 41.472 115.624 41.768 114.872 41.976C114.136 42.184 113.376 42.288 112.592 42.288ZM131.288 42V31.248H127.64V28.296C128.488 28.296 129.192 28.256 129.752 28.176C130.312 28.08 130.776 27.872 131.144 27.552C131.528 27.216 131.864 26.688 132.152 25.968H134.912V42H131.288ZM140.198 42.288C139.558 42.288 139.006 42.056 138.542 41.592C138.078 41.128 137.846 40.576 137.846 39.936C137.846 39.28 138.078 38.728 138.542 38.28C139.006 37.832 139.558 37.608 140.198 37.608C140.838 37.608 141.382 37.832 141.83 38.28C142.294 38.728 142.526 39.28 142.526 39.936C142.526 40.576 142.294 41.128 141.83 41.592C141.382 42.056 140.838 42.288 140.198 42.288ZM151.049 42.288C149.561 42.288 148.305 41.952 147.281 41.28C146.257 40.592 145.481 39.624 144.953 38.376C144.441 37.128 144.185 35.656 144.185 33.96C144.185 31.384 144.769 29.36 145.937 27.888C147.105 26.416 148.809 25.68 151.049 25.68C153.305 25.68 155.017 26.416 156.185 27.888C157.353 29.36 157.937 31.384 157.937 33.96C157.937 35.656 157.673 37.128 157.145 38.376C156.633 39.624 155.865 40.592 154.841 41.28C153.817 41.952 152.553 42.288 151.049 42.288ZM154.025 36.096C154.121 35.472 154.169 34.768 154.169 33.984C154.169 32.032 153.881 30.616 153.305 29.736C152.745 28.84 151.993 28.392 151.049 28.392C150.329 28.392 149.713 28.656 149.201 29.184L154.025 36.096ZM151.049 39.576C151.849 39.576 152.497 39.272 152.993 38.664L148.121 31.656C148.057 31.992 148.009 32.352 147.977 32.736C147.945 33.104 147.929 33.512 147.929 33.96C147.929 35.896 148.217 37.32 148.793 38.232C149.369 39.128 150.121 39.576 151.049 39.576ZM159.818 42V25.968H164.642L170.834 37.392V25.968H174.506V42H169.658L163.466 30.576V42H159.818Z" fill="white"/>
<defs>
<clipPath id="clip0_211_6966">
<rect width="32" height="32" fill="white" transform="translate(0 18)"/>
</clipPath>
</defs>
</svg>
