<svg width="14" height="14" viewBox="0 0 14 14" fill="none" xmlns="http://www.w3.org/2000/svg">
<path d="M9.79981 4.41365e-06C10.3434 4.41365e-06 10.8116 -0.00106932 11.1953 0.0302779C11.5906 0.0625888 11.984 0.134401 12.3623 0.327153C12.9265 0.614727 13.3853 1.07348 13.6729 1.6377C13.8656 2.016 13.9374 2.40943 13.9697 2.80469C14.0011 3.18836 14 3.65665 14 4.2002V9.79981C14 10.3434 14.0011 10.8116 13.9697 11.1953C13.9374 11.5906 13.8656 11.984 13.6729 12.3623C13.3853 12.9265 12.9265 13.3853 12.3623 13.6729C11.984 13.8656 11.5906 13.9374 11.1953 13.9697C10.8116 14.0011 10.3434 14 9.79981 14H4.2002C3.65665 14 3.18836 14.0011 2.80469 13.9697C2.40943 13.9374 2.016 13.8656 1.6377 13.6729C1.07348 13.3853 0.614727 12.9265 0.327153 12.3623C0.134401 11.984 0.0625888 11.5906 0.0302779 11.1953C-0.00106931 10.8116 4.41365e-06 10.3434 4.41365e-06 9.79981V4.2002C4.41365e-06 3.65665 -0.00106932 3.18836 0.0302779 2.80469C0.0625888 2.40943 0.134401 2.016 0.327153 1.6377C0.614727 1.07348 1.07348 0.614727 1.6377 0.327153C2.016 0.134401 2.40943 0.0625888 2.80469 0.0302779C3.18836 -0.00106931 3.65665 4.41365e-06 4.2002 4.41365e-06H9.79981ZM2.00489 3.41895C2.00077 3.63092 2 3.88508 2 4.2002V9.79981C2 10.3764 2.00127 10.7489 2.02442 11.0322C2.04662 11.3038 2.08419 11.4047 2.10938 11.4541C2.20522 11.6421 2.35793 11.7948 2.5459 11.8906C2.59534 11.9158 2.69619 11.9534 2.96778 11.9756C3.25112 11.9987 3.62365 12 4.2002 12H9.79981C10.1145 12 10.3683 11.9982 10.5801 11.9941L2.00489 3.41895ZM4.2002 2C3.88508 2 3.63092 2.00077 3.41895 2.00489L11.9941 10.5801C11.9982 10.3683 12 10.1144 12 9.79981V4.2002C12 3.62365 11.9987 3.25112 11.9756 2.96778C11.9534 2.69619 11.9158 2.59534 11.8906 2.5459C11.7948 2.35793 11.6421 2.20522 11.4541 2.10938C11.4047 2.08419 11.3038 2.04662 11.0322 2.02442C10.7489 2.00127 10.3764 2 9.79981 2H4.2002Z" fill="black" style="mix-blend-mode:overlay"/>
<path d="M9.79981 4.41365e-06C10.3434 4.41365e-06 10.8116 -0.00106932 11.1953 0.0302779C11.5906 0.0625888 11.984 0.134401 12.3623 0.327153C12.9265 0.614727 13.3853 1.07348 13.6729 1.6377C13.8656 2.016 13.9374 2.40943 13.9697 2.80469C14.0011 3.18836 14 3.65665 14 4.2002V9.79981C14 10.3434 14.0011 10.8116 13.9697 11.1953C13.9374 11.5906 13.8656 11.984 13.6729 12.3623C13.3853 12.9265 12.9265 13.3853 12.3623 13.6729C11.984 13.8656 11.5906 13.9374 11.1953 13.9697C10.8116 14.0011 10.3434 14 9.79981 14H4.2002C3.65665 14 3.18836 14.0011 2.80469 13.9697C2.40943 13.9374 2.016 13.8656 1.6377 13.6729C1.07348 13.3853 0.614727 12.9265 0.327153 12.3623C0.134401 11.984 0.0625888 11.5906 0.0302779 11.1953C-0.00106931 10.8116 4.41365e-06 10.3434 4.41365e-06 9.79981V4.2002C4.41365e-06 3.65665 -0.00106932 3.18836 0.0302779 2.80469C0.0625888 2.40943 0.134401 2.016 0.327153 1.6377C0.614727 1.07348 1.07348 0.614727 1.6377 0.327153C2.016 0.134401 2.40943 0.0625888 2.80469 0.0302779C3.18836 -0.00106931 3.65665 4.41365e-06 4.2002 4.41365e-06H9.79981ZM2.00489 3.41895C2.00077 3.63092 2 3.88508 2 4.2002V9.79981C2 10.3764 2.00127 10.7489 2.02442 11.0322C2.04662 11.3038 2.08419 11.4047 2.10938 11.4541C2.20522 11.6421 2.35793 11.7948 2.5459 11.8906C2.59534 11.9158 2.69619 11.9534 2.96778 11.9756C3.25112 11.9987 3.62365 12 4.2002 12H9.79981C10.1145 12 10.3683 11.9982 10.5801 11.9941L2.00489 3.41895ZM4.2002 2C3.88508 2 3.63092 2.00077 3.41895 2.00489L11.9941 10.5801C11.9982 10.3683 12 10.1144 12 9.79981V4.2002C12 3.62365 11.9987 3.25112 11.9756 2.96778C11.9534 2.69619 11.9158 2.59534 11.8906 2.5459C11.7948 2.35793 11.6421 2.20522 11.4541 2.10938C11.4047 2.08419 11.3038 2.04662 11.0322 2.02442C10.7489 2.00127 10.3764 2 9.79981 2H4.2002Z" fill="black" fill-opacity="0.983"/>
<path d="M9.79981 4.41365e-06C10.3434 4.41365e-06 10.8116 -0.00106932 11.1953 0.0302779C11.5906 0.0625888 11.984 0.134401 12.3623 0.327153C12.9265 0.614727 13.3853 1.07348 13.6729 1.6377C13.8656 2.016 13.9374 2.40943 13.9697 2.80469C14.0011 3.18836 14 3.65665 14 4.2002V9.79981C14 10.3434 14.0011 10.8116 13.9697 11.1953C13.9374 11.5906 13.8656 11.984 13.6729 12.3623C13.3853 12.9265 12.9265 13.3853 12.3623 13.6729C11.984 13.8656 11.5906 13.9374 11.1953 13.9697C10.8116 14.0011 10.3434 14 9.79981 14H4.2002C3.65665 14 3.18836 14.0011 2.80469 13.9697C2.40943 13.9374 2.016 13.8656 1.6377 13.6729C1.07348 13.3853 0.614727 12.9265 0.327153 12.3623C0.134401 11.984 0.0625888 11.5906 0.0302779 11.1953C-0.00106931 10.8116 4.41365e-06 10.3434 4.41365e-06 9.79981V4.2002C4.41365e-06 3.65665 -0.00106932 3.18836 0.0302779 2.80469C0.0625888 2.40943 0.134401 2.016 0.327153 1.6377C0.614727 1.07348 1.07348 0.614727 1.6377 0.327153C2.016 0.134401 2.40943 0.0625888 2.80469 0.0302779C3.18836 -0.00106931 3.65665 4.41365e-06 4.2002 4.41365e-06H9.79981ZM2.00489 3.41895C2.00077 3.63092 2 3.88508 2 4.2002V9.79981C2 10.3764 2.00127 10.7489 2.02442 11.0322C2.04662 11.3038 2.08419 11.4047 2.10938 11.4541C2.20522 11.6421 2.35793 11.7948 2.5459 11.8906C2.59534 11.9158 2.69619 11.9534 2.96778 11.9756C3.25112 11.9987 3.62365 12 4.2002 12H9.79981C10.1145 12 10.3683 11.9982 10.5801 11.9941L2.00489 3.41895ZM4.2002 2C3.88508 2 3.63092 2.00077 3.41895 2.00489L11.9941 10.5801C11.9982 10.3683 12 10.1144 12 9.79981V4.2002C12 3.62365 11.9987 3.25112 11.9756 2.96778C11.9534 2.69619 11.9158 2.59534 11.8906 2.5459C11.7948 2.35793 11.6421 2.20522 11.4541 2.10938C11.4047 2.08419 11.3038 2.04662 11.0322 2.02442C10.7489 2.00127 10.3764 2 9.79981 2H4.2002Z" fill="white" style="mix-blend-mode:difference"/>
<path d="M9.79981 4.41365e-06C10.3434 4.41365e-06 10.8116 -0.00106932 11.1953 0.0302779C11.5906 0.0625888 11.984 0.134401 12.3623 0.327153C12.9265 0.614727 13.3853 1.07348 13.6729 1.6377C13.8656 2.016 13.9374 2.40943 13.9697 2.80469C14.0011 3.18836 14 3.65665 14 4.2002V9.79981C14 10.3434 14.0011 10.8116 13.9697 11.1953C13.9374 11.5906 13.8656 11.984 13.6729 12.3623C13.3853 12.9265 12.9265 13.3853 12.3623 13.6729C11.984 13.8656 11.5906 13.9374 11.1953 13.9697C10.8116 14.0011 10.3434 14 9.79981 14H4.2002C3.65665 14 3.18836 14.0011 2.80469 13.9697C2.40943 13.9374 2.016 13.8656 1.6377 13.6729C1.07348 13.3853 0.614727 12.9265 0.327153 12.3623C0.134401 11.984 0.0625888 11.5906 0.0302779 11.1953C-0.00106931 10.8116 4.41365e-06 10.3434 4.41365e-06 9.79981V4.2002C4.41365e-06 3.65665 -0.00106932 3.18836 0.0302779 2.80469C0.0625888 2.40943 0.134401 2.016 0.327153 1.6377C0.614727 1.07348 1.07348 0.614727 1.6377 0.327153C2.016 0.134401 2.40943 0.0625888 2.80469 0.0302779C3.18836 -0.00106931 3.65665 4.41365e-06 4.2002 4.41365e-06H9.79981ZM2.00489 3.41895C2.00077 3.63092 2 3.88508 2 4.2002V9.79981C2 10.3764 2.00127 10.7489 2.02442 11.0322C2.04662 11.3038 2.08419 11.4047 2.10938 11.4541C2.20522 11.6421 2.35793 11.7948 2.5459 11.8906C2.59534 11.9158 2.69619 11.9534 2.96778 11.9756C3.25112 11.9987 3.62365 12 4.2002 12H9.79981C10.1145 12 10.3683 11.9982 10.5801 11.9941L2.00489 3.41895ZM4.2002 2C3.88508 2 3.63092 2.00077 3.41895 2.00489L11.9941 10.5801C11.9982 10.3683 12 10.1144 12 9.79981V4.2002C12 3.62365 11.9987 3.25112 11.9756 2.96778C11.9534 2.69619 11.9158 2.59534 11.8906 2.5459C11.7948 2.35793 11.6421 2.20522 11.4541 2.10938C11.4047 2.08419 11.3038 2.04662 11.0322 2.02442C10.7489 2.00127 10.3764 2 9.79981 2H4.2002Z" fill="black" style="mix-blend-mode:saturation"/>
<path d="M9.79981 4.41365e-06C10.3434 4.41365e-06 10.8116 -0.00106932 11.1953 0.0302779C11.5906 0.0625888 11.984 0.134401 12.3623 0.327153C12.9265 0.614727 13.3853 1.07348 13.6729 1.6377C13.8656 2.016 13.9374 2.40943 13.9697 2.80469C14.0011 3.18836 14 3.65665 14 4.2002V9.79981C14 10.3434 14.0011 10.8116 13.9697 11.1953C13.9374 11.5906 13.8656 11.984 13.6729 12.3623C13.3853 12.9265 12.9265 13.3853 12.3623 13.6729C11.984 13.8656 11.5906 13.9374 11.1953 13.9697C10.8116 14.0011 10.3434 14 9.79981 14H4.2002C3.65665 14 3.18836 14.0011 2.80469 13.9697C2.40943 13.9374 2.016 13.8656 1.6377 13.6729C1.07348 13.3853 0.614727 12.9265 0.327153 12.3623C0.134401 11.984 0.0625888 11.5906 0.0302779 11.1953C-0.00106931 10.8116 4.41365e-06 10.3434 4.41365e-06 9.79981V4.2002C4.41365e-06 3.65665 -0.00106932 3.18836 0.0302779 2.80469C0.0625888 2.40943 0.134401 2.016 0.327153 1.6377C0.614727 1.07348 1.07348 0.614727 1.6377 0.327153C2.016 0.134401 2.40943 0.0625888 2.80469 0.0302779C3.18836 -0.00106931 3.65665 4.41365e-06 4.2002 4.41365e-06H9.79981ZM2.00489 3.41895C2.00077 3.63092 2 3.88508 2 4.2002V9.79981C2 10.3764 2.00127 10.7489 2.02442 11.0322C2.04662 11.3038 2.08419 11.4047 2.10938 11.4541C2.20522 11.6421 2.35793 11.7948 2.5459 11.8906C2.59534 11.9158 2.69619 11.9534 2.96778 11.9756C3.25112 11.9987 3.62365 12 4.2002 12H9.79981C10.1145 12 10.3683 11.9982 10.5801 11.9941L2.00489 3.41895ZM4.2002 2C3.88508 2 3.63092 2.00077 3.41895 2.00489L11.9941 10.5801C11.9982 10.3683 12 10.1144 12 9.79981V4.2002C12 3.62365 11.9987 3.25112 11.9756 2.96778C11.9534 2.69619 11.9158 2.59534 11.8906 2.5459C11.7948 2.35793 11.6421 2.20522 11.4541 2.10938C11.4047 2.08419 11.3038 2.04662 11.0322 2.02442C10.7489 2.00127 10.3764 2 9.79981 2H4.2002Z" fill="black" style="mix-blend-mode:color-burn"/>
</svg>
