<svg width="5" height="14" viewBox="0 0 5 14" fill="none" xmlns="http://www.w3.org/2000/svg">
<path d="M3 13V4C3 3.52038 2.99957 3.21061 2.9834 2.97363C2.96784 2.74572 2.94106 2.65879 2.92383 2.61719C2.82234 2.37226 2.62774 2.17766 2.38281 2.07617C2.34121 2.05894 2.25428 2.03216 2.02637 2.0166C1.78939 2.00043 1.47962 2 1 2C0.447715 2 0 1.55229 0 1C0 0.447716 0.447715 4.57606e-07 1 4.57606e-07C1.45214 4.57606e-07 1.84131 -0.000388162 2.16211 0.0214848C2.49194 0.0439889 2.82251 0.0935121 3.14844 0.228516C3.88321 0.532989 4.46701 1.11679 4.77148 1.85156C4.90649 2.17749 4.95601 2.50806 4.97852 2.83789C5.00039 3.15869 5 3.54786 5 4V13C5 13.5523 4.55228 14 4 14C3.44772 14 3 13.5523 3 13Z" fill="black" style="mix-blend-mode:overlay"/>
<path d="M3 13V4C3 3.52038 2.99957 3.21061 2.9834 2.97363C2.96784 2.74572 2.94106 2.65879 2.92383 2.61719C2.82234 2.37226 2.62774 2.17766 2.38281 2.07617C2.34121 2.05894 2.25428 2.03216 2.02637 2.0166C1.78939 2.00043 1.47962 2 1 2C0.447715 2 0 1.55229 0 1C0 0.447716 0.447715 4.57606e-07 1 4.57606e-07C1.45214 4.57606e-07 1.84131 -0.000388162 2.16211 0.0214848C2.49194 0.0439889 2.82251 0.0935121 3.14844 0.228516C3.88321 0.532989 4.46701 1.11679 4.77148 1.85156C4.90649 2.17749 4.95601 2.50806 4.97852 2.83789C5.00039 3.15869 5 3.54786 5 4V13C5 13.5523 4.55228 14 4 14C3.44772 14 3 13.5523 3 13Z" fill="black" fill-opacity="0.983"/>
<path d="M3 13V4C3 3.52038 2.99957 3.21061 2.9834 2.97363C2.96784 2.74572 2.94106 2.65879 2.92383 2.61719C2.82234 2.37226 2.62774 2.17766 2.38281 2.07617C2.34121 2.05894 2.25428 2.03216 2.02637 2.0166C1.78939 2.00043 1.47962 2 1 2C0.447715 2 0 1.55229 0 1C0 0.447716 0.447715 4.57606e-07 1 4.57606e-07C1.45214 4.57606e-07 1.84131 -0.000388162 2.16211 0.0214848C2.49194 0.0439889 2.82251 0.0935121 3.14844 0.228516C3.88321 0.532989 4.46701 1.11679 4.77148 1.85156C4.90649 2.17749 4.95601 2.50806 4.97852 2.83789C5.00039 3.15869 5 3.54786 5 4V13C5 13.5523 4.55228 14 4 14C3.44772 14 3 13.5523 3 13Z" fill="white" style="mix-blend-mode:difference"/>
<path d="M3 13V4C3 3.52038 2.99957 3.21061 2.9834 2.97363C2.96784 2.74572 2.94106 2.65879 2.92383 2.61719C2.82234 2.37226 2.62774 2.17766 2.38281 2.07617C2.34121 2.05894 2.25428 2.03216 2.02637 2.0166C1.78939 2.00043 1.47962 2 1 2C0.447715 2 0 1.55229 0 1C0 0.447716 0.447715 4.57606e-07 1 4.57606e-07C1.45214 4.57606e-07 1.84131 -0.000388162 2.16211 0.0214848C2.49194 0.0439889 2.82251 0.0935121 3.14844 0.228516C3.88321 0.532989 4.46701 1.11679 4.77148 1.85156C4.90649 2.17749 4.95601 2.50806 4.97852 2.83789C5.00039 3.15869 5 3.54786 5 4V13C5 13.5523 4.55228 14 4 14C3.44772 14 3 13.5523 3 13Z" fill="black" style="mix-blend-mode:saturation"/>
<path d="M3 13V4C3 3.52038 2.99957 3.21061 2.9834 2.97363C2.96784 2.74572 2.94106 2.65879 2.92383 2.61719C2.82234 2.37226 2.62774 2.17766 2.38281 2.07617C2.34121 2.05894 2.25428 2.03216 2.02637 2.0166C1.78939 2.00043 1.47962 2 1 2C0.447715 2 0 1.55229 0 1C0 0.447716 0.447715 4.57606e-07 1 4.57606e-07C1.45214 4.57606e-07 1.84131 -0.000388162 2.16211 0.0214848C2.49194 0.0439889 2.82251 0.0935121 3.14844 0.228516C3.88321 0.532989 4.46701 1.11679 4.77148 1.85156C4.90649 2.17749 4.95601 2.50806 4.97852 2.83789C5.00039 3.15869 5 3.54786 5 4V13C5 13.5523 4.55228 14 4 14C3.44772 14 3 13.5523 3 13Z" fill="black" style="mix-blend-mode:color-burn"/>
</svg>
