<svg width="14" height="14" viewBox="0 0 14 14" fill="none" xmlns="http://www.w3.org/2000/svg">
<path d="M4.57625e-07 10C4.57554e-07 9.54786 -0.000388166 9.15869 0.0214848 8.83789C0.0439889 8.50806 0.0935121 8.17749 0.228516 7.85156C0.532989 7.11679 1.11679 6.53299 1.85156 6.22852C2.17749 6.09351 2.50806 6.04399 2.83789 6.02148C3.15869 5.99961 3.54786 6 4 6H10C10.4796 6 10.7894 5.99957 11.0264 5.9834C11.2543 5.96784 11.3412 5.94106 11.3828 5.92383C11.6277 5.82234 11.8223 5.62774 11.9238 5.38281C11.9411 5.34121 11.9678 5.25428 11.9834 5.02637C11.9996 4.78939 12 4.47962 12 4C12 3.52038 11.9996 3.21061 11.9834 2.97363C11.9678 2.74572 11.9411 2.65879 11.9238 2.61719C11.8223 2.37226 11.6277 2.17766 11.3828 2.07617C11.3412 2.05894 11.2543 2.03216 11.0264 2.0166C10.7894 2.00043 10.4796 2 10 2H1C0.447716 2 4.57625e-07 1.55229 4.57625e-07 1C4.57625e-07 0.447716 0.447716 4.5758e-07 1 4.5758e-07H10C10.4521 4.5758e-07 10.8413 -0.000388155 11.1621 0.0214848C11.4919 0.0439889 11.8225 0.0935121 12.1484 0.228516C12.8832 0.532989 13.467 1.11679 13.7715 1.85156C13.9065 2.17749 13.956 2.50806 13.9785 2.83789C14.0004 3.15869 14 3.54786 14 4C14 4.45214 14.0004 4.84131 13.9785 5.16211C13.956 5.49194 13.9065 5.82251 13.7715 6.14844C13.467 6.88321 12.8832 7.46701 12.1484 7.77148C11.8225 7.90649 11.4919 7.95601 11.1621 7.97852C10.8413 8.00039 10.4521 8 10 8H4C3.52038 8 3.21061 8.00043 2.97363 8.0166C2.74572 8.03216 2.65879 8.05894 2.61719 8.07617C2.37226 8.17766 2.17766 8.37226 2.07617 8.61719C2.05894 8.65879 2.03216 8.74572 2.0166 8.97363C2.00043 9.21061 2 9.52038 2 10C2 10.4796 2.00043 10.7894 2.0166 11.0264C2.03216 11.2543 2.05894 11.3412 2.07617 11.3828C2.17766 11.6277 2.37226 11.8223 2.61719 11.9238C2.65879 11.9411 2.74572 11.9678 2.97363 11.9834C3.21061 11.9996 3.52038 12 4 12H13C13.5523 12 14 12.4477 14 13C14 13.5523 13.5523 14 13 14H4C3.54786 14 3.15869 14.0004 2.83789 13.9785C2.50806 13.956 2.17749 13.9065 1.85156 13.7715C1.11679 13.467 0.532989 12.8832 0.228516 12.1484C0.0935121 11.8225 0.0439889 11.4919 0.0214848 11.1621C-0.000388155 10.8413 4.57625e-07 10.4521 4.57625e-07 10Z" fill="black" style="mix-blend-mode:overlay"/>
<path d="M4.57625e-07 10C4.57554e-07 9.54786 -0.000388166 9.15869 0.0214848 8.83789C0.0439889 8.50806 0.0935121 8.17749 0.228516 7.85156C0.532989 7.11679 1.11679 6.53299 1.85156 6.22852C2.17749 6.09351 2.50806 6.04399 2.83789 6.02148C3.15869 5.99961 3.54786 6 4 6H10C10.4796 6 10.7894 5.99957 11.0264 5.9834C11.2543 5.96784 11.3412 5.94106 11.3828 5.92383C11.6277 5.82234 11.8223 5.62774 11.9238 5.38281C11.9411 5.34121 11.9678 5.25428 11.9834 5.02637C11.9996 4.78939 12 4.47962 12 4C12 3.52038 11.9996 3.21061 11.9834 2.97363C11.9678 2.74572 11.9411 2.65879 11.9238 2.61719C11.8223 2.37226 11.6277 2.17766 11.3828 2.07617C11.3412 2.05894 11.2543 2.03216 11.0264 2.0166C10.7894 2.00043 10.4796 2 10 2H1C0.447716 2 4.57625e-07 1.55229 4.57625e-07 1C4.57625e-07 0.447716 0.447716 4.5758e-07 1 4.5758e-07H10C10.4521 4.5758e-07 10.8413 -0.000388155 11.1621 0.0214848C11.4919 0.0439889 11.8225 0.0935121 12.1484 0.228516C12.8832 0.532989 13.467 1.11679 13.7715 1.85156C13.9065 2.17749 13.956 2.50806 13.9785 2.83789C14.0004 3.15869 14 3.54786 14 4C14 4.45214 14.0004 4.84131 13.9785 5.16211C13.956 5.49194 13.9065 5.82251 13.7715 6.14844C13.467 6.88321 12.8832 7.46701 12.1484 7.77148C11.8225 7.90649 11.4919 7.95601 11.1621 7.97852C10.8413 8.00039 10.4521 8 10 8H4C3.52038 8 3.21061 8.00043 2.97363 8.0166C2.74572 8.03216 2.65879 8.05894 2.61719 8.07617C2.37226 8.17766 2.17766 8.37226 2.07617 8.61719C2.05894 8.65879 2.03216 8.74572 2.0166 8.97363C2.00043 9.21061 2 9.52038 2 10C2 10.4796 2.00043 10.7894 2.0166 11.0264C2.03216 11.2543 2.05894 11.3412 2.07617 11.3828C2.17766 11.6277 2.37226 11.8223 2.61719 11.9238C2.65879 11.9411 2.74572 11.9678 2.97363 11.9834C3.21061 11.9996 3.52038 12 4 12H13C13.5523 12 14 12.4477 14 13C14 13.5523 13.5523 14 13 14H4C3.54786 14 3.15869 14.0004 2.83789 13.9785C2.50806 13.956 2.17749 13.9065 1.85156 13.7715C1.11679 13.467 0.532989 12.8832 0.228516 12.1484C0.0935121 11.8225 0.0439889 11.4919 0.0214848 11.1621C-0.000388155 10.8413 4.57625e-07 10.4521 4.57625e-07 10Z" fill="black" fill-opacity="0.983"/>
<path d="M4.57625e-07 10C4.57554e-07 9.54786 -0.000388166 9.15869 0.0214848 8.83789C0.0439889 8.50806 0.0935121 8.17749 0.228516 7.85156C0.532989 7.11679 1.11679 6.53299 1.85156 6.22852C2.17749 6.09351 2.50806 6.04399 2.83789 6.02148C3.15869 5.99961 3.54786 6 4 6H10C10.4796 6 10.7894 5.99957 11.0264 5.9834C11.2543 5.96784 11.3412 5.94106 11.3828 5.92383C11.6277 5.82234 11.8223 5.62774 11.9238 5.38281C11.9411 5.34121 11.9678 5.25428 11.9834 5.02637C11.9996 4.78939 12 4.47962 12 4C12 3.52038 11.9996 3.21061 11.9834 2.97363C11.9678 2.74572 11.9411 2.65879 11.9238 2.61719C11.8223 2.37226 11.6277 2.17766 11.3828 2.07617C11.3412 2.05894 11.2543 2.03216 11.0264 2.0166C10.7894 2.00043 10.4796 2 10 2H1C0.447716 2 4.57625e-07 1.55229 4.57625e-07 1C4.57625e-07 0.447716 0.447716 4.5758e-07 1 4.5758e-07H10C10.4521 4.5758e-07 10.8413 -0.000388155 11.1621 0.0214848C11.4919 0.0439889 11.8225 0.0935121 12.1484 0.228516C12.8832 0.532989 13.467 1.11679 13.7715 1.85156C13.9065 2.17749 13.956 2.50806 13.9785 2.83789C14.0004 3.15869 14 3.54786 14 4C14 4.45214 14.0004 4.84131 13.9785 5.16211C13.956 5.49194 13.9065 5.82251 13.7715 6.14844C13.467 6.88321 12.8832 7.46701 12.1484 7.77148C11.8225 7.90649 11.4919 7.95601 11.1621 7.97852C10.8413 8.00039 10.4521 8 10 8H4C3.52038 8 3.21061 8.00043 2.97363 8.0166C2.74572 8.03216 2.65879 8.05894 2.61719 8.07617C2.37226 8.17766 2.17766 8.37226 2.07617 8.61719C2.05894 8.65879 2.03216 8.74572 2.0166 8.97363C2.00043 9.21061 2 9.52038 2 10C2 10.4796 2.00043 10.7894 2.0166 11.0264C2.03216 11.2543 2.05894 11.3412 2.07617 11.3828C2.17766 11.6277 2.37226 11.8223 2.61719 11.9238C2.65879 11.9411 2.74572 11.9678 2.97363 11.9834C3.21061 11.9996 3.52038 12 4 12H13C13.5523 12 14 12.4477 14 13C14 13.5523 13.5523 14 13 14H4C3.54786 14 3.15869 14.0004 2.83789 13.9785C2.50806 13.956 2.17749 13.9065 1.85156 13.7715C1.11679 13.467 0.532989 12.8832 0.228516 12.1484C0.0935121 11.8225 0.0439889 11.4919 0.0214848 11.1621C-0.000388155 10.8413 4.57625e-07 10.4521 4.57625e-07 10Z" fill="white" style="mix-blend-mode:difference"/>
<path d="M4.57625e-07 10C4.57554e-07 9.54786 -0.000388166 9.15869 0.0214848 8.83789C0.0439889 8.50806 0.0935121 8.17749 0.228516 7.85156C0.532989 7.11679 1.11679 6.53299 1.85156 6.22852C2.17749 6.09351 2.50806 6.04399 2.83789 6.02148C3.15869 5.99961 3.54786 6 4 6H10C10.4796 6 10.7894 5.99957 11.0264 5.9834C11.2543 5.96784 11.3412 5.94106 11.3828 5.92383C11.6277 5.82234 11.8223 5.62774 11.9238 5.38281C11.9411 5.34121 11.9678 5.25428 11.9834 5.02637C11.9996 4.78939 12 4.47962 12 4C12 3.52038 11.9996 3.21061 11.9834 2.97363C11.9678 2.74572 11.9411 2.65879 11.9238 2.61719C11.8223 2.37226 11.6277 2.17766 11.3828 2.07617C11.3412 2.05894 11.2543 2.03216 11.0264 2.0166C10.7894 2.00043 10.4796 2 10 2H1C0.447716 2 4.57625e-07 1.55229 4.57625e-07 1C4.57625e-07 0.447716 0.447716 4.5758e-07 1 4.5758e-07H10C10.4521 4.5758e-07 10.8413 -0.000388155 11.1621 0.0214848C11.4919 0.0439889 11.8225 0.0935121 12.1484 0.228516C12.8832 0.532989 13.467 1.11679 13.7715 1.85156C13.9065 2.17749 13.956 2.50806 13.9785 2.83789C14.0004 3.15869 14 3.54786 14 4C14 4.45214 14.0004 4.84131 13.9785 5.16211C13.956 5.49194 13.9065 5.82251 13.7715 6.14844C13.467 6.88321 12.8832 7.46701 12.1484 7.77148C11.8225 7.90649 11.4919 7.95601 11.1621 7.97852C10.8413 8.00039 10.4521 8 10 8H4C3.52038 8 3.21061 8.00043 2.97363 8.0166C2.74572 8.03216 2.65879 8.05894 2.61719 8.07617C2.37226 8.17766 2.17766 8.37226 2.07617 8.61719C2.05894 8.65879 2.03216 8.74572 2.0166 8.97363C2.00043 9.21061 2 9.52038 2 10C2 10.4796 2.00043 10.7894 2.0166 11.0264C2.03216 11.2543 2.05894 11.3412 2.07617 11.3828C2.17766 11.6277 2.37226 11.8223 2.61719 11.9238C2.65879 11.9411 2.74572 11.9678 2.97363 11.9834C3.21061 11.9996 3.52038 12 4 12H13C13.5523 12 14 12.4477 14 13C14 13.5523 13.5523 14 13 14H4C3.54786 14 3.15869 14.0004 2.83789 13.9785C2.50806 13.956 2.17749 13.9065 1.85156 13.7715C1.11679 13.467 0.532989 12.8832 0.228516 12.1484C0.0935121 11.8225 0.0439889 11.4919 0.0214848 11.1621C-0.000388155 10.8413 4.57625e-07 10.4521 4.57625e-07 10Z" fill="black" style="mix-blend-mode:saturation"/>
<path d="M4.57625e-07 10C4.57554e-07 9.54786 -0.000388166 9.15869 0.0214848 8.83789C0.0439889 8.50806 0.0935121 8.17749 0.228516 7.85156C0.532989 7.11679 1.11679 6.53299 1.85156 6.22852C2.17749 6.09351 2.50806 6.04399 2.83789 6.02148C3.15869 5.99961 3.54786 6 4 6H10C10.4796 6 10.7894 5.99957 11.0264 5.9834C11.2543 5.96784 11.3412 5.94106 11.3828 5.92383C11.6277 5.82234 11.8223 5.62774 11.9238 5.38281C11.9411 5.34121 11.9678 5.25428 11.9834 5.02637C11.9996 4.78939 12 4.47962 12 4C12 3.52038 11.9996 3.21061 11.9834 2.97363C11.9678 2.74572 11.9411 2.65879 11.9238 2.61719C11.8223 2.37226 11.6277 2.17766 11.3828 2.07617C11.3412 2.05894 11.2543 2.03216 11.0264 2.0166C10.7894 2.00043 10.4796 2 10 2H1C0.447716 2 4.57625e-07 1.55229 4.57625e-07 1C4.57625e-07 0.447716 0.447716 4.5758e-07 1 4.5758e-07H10C10.4521 4.5758e-07 10.8413 -0.000388155 11.1621 0.0214848C11.4919 0.0439889 11.8225 0.0935121 12.1484 0.228516C12.8832 0.532989 13.467 1.11679 13.7715 1.85156C13.9065 2.17749 13.956 2.50806 13.9785 2.83789C14.0004 3.15869 14 3.54786 14 4C14 4.45214 14.0004 4.84131 13.9785 5.16211C13.956 5.49194 13.9065 5.82251 13.7715 6.14844C13.467 6.88321 12.8832 7.46701 12.1484 7.77148C11.8225 7.90649 11.4919 7.95601 11.1621 7.97852C10.8413 8.00039 10.4521 8 10 8H4C3.52038 8 3.21061 8.00043 2.97363 8.0166C2.74572 8.03216 2.65879 8.05894 2.61719 8.07617C2.37226 8.17766 2.17766 8.37226 2.07617 8.61719C2.05894 8.65879 2.03216 8.74572 2.0166 8.97363C2.00043 9.21061 2 9.52038 2 10C2 10.4796 2.00043 10.7894 2.0166 11.0264C2.03216 11.2543 2.05894 11.3412 2.07617 11.3828C2.17766 11.6277 2.37226 11.8223 2.61719 11.9238C2.65879 11.9411 2.74572 11.9678 2.97363 11.9834C3.21061 11.9996 3.52038 12 4 12H13C13.5523 12 14 12.4477 14 13C14 13.5523 13.5523 14 13 14H4C3.54786 14 3.15869 14.0004 2.83789 13.9785C2.50806 13.956 2.17749 13.9065 1.85156 13.7715C1.11679 13.467 0.532989 12.8832 0.228516 12.1484C0.0935121 11.8225 0.0439889 11.4919 0.0214848 11.1621C-0.000388155 10.8413 4.57625e-07 10.4521 4.57625e-07 10Z" fill="black" style="mix-blend-mode:color-burn"/>
</svg>
