<svg width="14" height="14" viewBox="0 0 14 14" fill="none" xmlns="http://www.w3.org/2000/svg">
<path d="M12 9.96973C12 9.50915 11.9951 9.41811 11.9795 9.3418C11.9539 9.21715 11.905 9.09842 11.835 8.99219C11.7921 8.92717 11.7308 8.85972 11.4053 8.53418L10.8711 8H1C0.447715 8 0 7.55229 0 7C0 6.44772 0.447715 6 1 6H10.8711L11.4053 5.46582C11.7308 5.14029 11.7921 5.07283 11.835 5.00782C11.905 4.90158 11.9539 4.78286 11.9795 4.65821C11.9951 4.5819 12 4.49085 12 4.03028C12 3.53603 11.9996 3.2167 11.9824 2.97266C11.9659 2.73815 11.9373 2.64927 11.9189 2.60645C11.8178 2.37026 11.6297 2.18221 11.3936 2.08106C11.3507 2.06272 11.2619 2.03408 11.0273 2.01758C10.7833 2.00043 10.464 2 9.96973 2H1C0.447715 2 0 1.55229 0 1C0 0.447718 0.447715 2.65025e-06 1 2.65025e-06H9.96973C10.4356 2.49923e-06 10.8366 -0.000733923 11.167 0.0224636C11.5067 0.0463384 11.8465 0.0991405 12.1807 0.24219C12.8892 0.545663 13.4543 1.11078 13.7578 1.81934C13.9009 2.15352 13.9537 2.49333 13.9775 2.83301C14.0007 3.16335 14 3.56439 14 4.03028C14 4.40947 14.0044 4.7391 13.9385 5.06055C13.8617 5.43449 13.7141 5.79071 13.5039 6.10938C13.3233 6.38312 13.0873 6.61287 12.8193 6.88086L12.7002 7L12.8193 7.11914C13.0873 7.38714 13.3233 7.61688 13.5039 7.89063C13.7141 8.20929 13.8617 8.56552 13.9385 8.93946C14.0044 9.26091 14 9.59053 14 9.96973C14 10.4356 14.0007 10.8367 13.9775 11.167C13.9537 11.5067 13.9009 11.8465 13.7578 12.1807C13.4543 12.8892 12.8892 13.4543 12.1807 13.7578C11.8465 13.9009 11.5067 13.9537 11.167 13.9775C10.8366 14.0007 10.4356 14 9.96973 14H1C0.447715 14 0 13.5523 0 13C0 12.4477 0.447715 12 1 12H9.96973C10.464 12 10.7833 11.9996 11.0273 11.9824C11.2619 11.9659 11.3507 11.9373 11.3936 11.9189C11.6297 11.8178 11.8178 11.6297 11.9189 11.3936C11.9373 11.3507 11.9659 11.2619 11.9824 11.0273C11.9996 10.7833 12 10.464 12 9.96973Z" fill="black" style="mix-blend-mode:overlay"/>
<path d="M12 9.96973C12 9.50915 11.9951 9.41811 11.9795 9.3418C11.9539 9.21715 11.905 9.09842 11.835 8.99219C11.7921 8.92717 11.7308 8.85972 11.4053 8.53418L10.8711 8H1C0.447715 8 0 7.55229 0 7C0 6.44772 0.447715 6 1 6H10.8711L11.4053 5.46582C11.7308 5.14029 11.7921 5.07283 11.835 5.00782C11.905 4.90158 11.9539 4.78286 11.9795 4.65821C11.9951 4.5819 12 4.49085 12 4.03028C12 3.53603 11.9996 3.2167 11.9824 2.97266C11.9659 2.73815 11.9373 2.64927 11.9189 2.60645C11.8178 2.37026 11.6297 2.18221 11.3936 2.08106C11.3507 2.06272 11.2619 2.03408 11.0273 2.01758C10.7833 2.00043 10.464 2 9.96973 2H1C0.447715 2 0 1.55229 0 1C0 0.447718 0.447715 2.65025e-06 1 2.65025e-06H9.96973C10.4356 2.49923e-06 10.8366 -0.000733923 11.167 0.0224636C11.5067 0.0463384 11.8465 0.0991405 12.1807 0.24219C12.8892 0.545663 13.4543 1.11078 13.7578 1.81934C13.9009 2.15352 13.9537 2.49333 13.9775 2.83301C14.0007 3.16335 14 3.56439 14 4.03028C14 4.40947 14.0044 4.7391 13.9385 5.06055C13.8617 5.43449 13.7141 5.79071 13.5039 6.10938C13.3233 6.38312 13.0873 6.61287 12.8193 6.88086L12.7002 7L12.8193 7.11914C13.0873 7.38714 13.3233 7.61688 13.5039 7.89063C13.7141 8.20929 13.8617 8.56552 13.9385 8.93946C14.0044 9.26091 14 9.59053 14 9.96973C14 10.4356 14.0007 10.8367 13.9775 11.167C13.9537 11.5067 13.9009 11.8465 13.7578 12.1807C13.4543 12.8892 12.8892 13.4543 12.1807 13.7578C11.8465 13.9009 11.5067 13.9537 11.167 13.9775C10.8366 14.0007 10.4356 14 9.96973 14H1C0.447715 14 0 13.5523 0 13C0 12.4477 0.447715 12 1 12H9.96973C10.464 12 10.7833 11.9996 11.0273 11.9824C11.2619 11.9659 11.3507 11.9373 11.3936 11.9189C11.6297 11.8178 11.8178 11.6297 11.9189 11.3936C11.9373 11.3507 11.9659 11.2619 11.9824 11.0273C11.9996 10.7833 12 10.464 12 9.96973Z" fill="black" fill-opacity="0.983"/>
<path d="M12 9.96973C12 9.50915 11.9951 9.41811 11.9795 9.3418C11.9539 9.21715 11.905 9.09842 11.835 8.99219C11.7921 8.92717 11.7308 8.85972 11.4053 8.53418L10.8711 8H1C0.447715 8 0 7.55229 0 7C0 6.44772 0.447715 6 1 6H10.8711L11.4053 5.46582C11.7308 5.14029 11.7921 5.07283 11.835 5.00782C11.905 4.90158 11.9539 4.78286 11.9795 4.65821C11.9951 4.5819 12 4.49085 12 4.03028C12 3.53603 11.9996 3.2167 11.9824 2.97266C11.9659 2.73815 11.9373 2.64927 11.9189 2.60645C11.8178 2.37026 11.6297 2.18221 11.3936 2.08106C11.3507 2.06272 11.2619 2.03408 11.0273 2.01758C10.7833 2.00043 10.464 2 9.96973 2H1C0.447715 2 0 1.55229 0 1C0 0.447718 0.447715 2.65025e-06 1 2.65025e-06H9.96973C10.4356 2.49923e-06 10.8366 -0.000733923 11.167 0.0224636C11.5067 0.0463384 11.8465 0.0991405 12.1807 0.24219C12.8892 0.545663 13.4543 1.11078 13.7578 1.81934C13.9009 2.15352 13.9537 2.49333 13.9775 2.83301C14.0007 3.16335 14 3.56439 14 4.03028C14 4.40947 14.0044 4.7391 13.9385 5.06055C13.8617 5.43449 13.7141 5.79071 13.5039 6.10938C13.3233 6.38312 13.0873 6.61287 12.8193 6.88086L12.7002 7L12.8193 7.11914C13.0873 7.38714 13.3233 7.61688 13.5039 7.89063C13.7141 8.20929 13.8617 8.56552 13.9385 8.93946C14.0044 9.26091 14 9.59053 14 9.96973C14 10.4356 14.0007 10.8367 13.9775 11.167C13.9537 11.5067 13.9009 11.8465 13.7578 12.1807C13.4543 12.8892 12.8892 13.4543 12.1807 13.7578C11.8465 13.9009 11.5067 13.9537 11.167 13.9775C10.8366 14.0007 10.4356 14 9.96973 14H1C0.447715 14 0 13.5523 0 13C0 12.4477 0.447715 12 1 12H9.96973C10.464 12 10.7833 11.9996 11.0273 11.9824C11.2619 11.9659 11.3507 11.9373 11.3936 11.9189C11.6297 11.8178 11.8178 11.6297 11.9189 11.3936C11.9373 11.3507 11.9659 11.2619 11.9824 11.0273C11.9996 10.7833 12 10.464 12 9.96973Z" fill="white" style="mix-blend-mode:difference"/>
<path d="M12 9.96973C12 9.50915 11.9951 9.41811 11.9795 9.3418C11.9539 9.21715 11.905 9.09842 11.835 8.99219C11.7921 8.92717 11.7308 8.85972 11.4053 8.53418L10.8711 8H1C0.447715 8 0 7.55229 0 7C0 6.44772 0.447715 6 1 6H10.8711L11.4053 5.46582C11.7308 5.14029 11.7921 5.07283 11.835 5.00782C11.905 4.90158 11.9539 4.78286 11.9795 4.65821C11.9951 4.5819 12 4.49085 12 4.03028C12 3.53603 11.9996 3.2167 11.9824 2.97266C11.9659 2.73815 11.9373 2.64927 11.9189 2.60645C11.8178 2.37026 11.6297 2.18221 11.3936 2.08106C11.3507 2.06272 11.2619 2.03408 11.0273 2.01758C10.7833 2.00043 10.464 2 9.96973 2H1C0.447715 2 0 1.55229 0 1C0 0.447718 0.447715 2.65025e-06 1 2.65025e-06H9.96973C10.4356 2.49923e-06 10.8366 -0.000733923 11.167 0.0224636C11.5067 0.0463384 11.8465 0.0991405 12.1807 0.24219C12.8892 0.545663 13.4543 1.11078 13.7578 1.81934C13.9009 2.15352 13.9537 2.49333 13.9775 2.83301C14.0007 3.16335 14 3.56439 14 4.03028C14 4.40947 14.0044 4.7391 13.9385 5.06055C13.8617 5.43449 13.7141 5.79071 13.5039 6.10938C13.3233 6.38312 13.0873 6.61287 12.8193 6.88086L12.7002 7L12.8193 7.11914C13.0873 7.38714 13.3233 7.61688 13.5039 7.89063C13.7141 8.20929 13.8617 8.56552 13.9385 8.93946C14.0044 9.26091 14 9.59053 14 9.96973C14 10.4356 14.0007 10.8367 13.9775 11.167C13.9537 11.5067 13.9009 11.8465 13.7578 12.1807C13.4543 12.8892 12.8892 13.4543 12.1807 13.7578C11.8465 13.9009 11.5067 13.9537 11.167 13.9775C10.8366 14.0007 10.4356 14 9.96973 14H1C0.447715 14 0 13.5523 0 13C0 12.4477 0.447715 12 1 12H9.96973C10.464 12 10.7833 11.9996 11.0273 11.9824C11.2619 11.9659 11.3507 11.9373 11.3936 11.9189C11.6297 11.8178 11.8178 11.6297 11.9189 11.3936C11.9373 11.3507 11.9659 11.2619 11.9824 11.0273C11.9996 10.7833 12 10.464 12 9.96973Z" fill="black" style="mix-blend-mode:saturation"/>
<path d="M12 9.96973C12 9.50915 11.9951 9.41811 11.9795 9.3418C11.9539 9.21715 11.905 9.09842 11.835 8.99219C11.7921 8.92717 11.7308 8.85972 11.4053 8.53418L10.8711 8H1C0.447715 8 0 7.55229 0 7C0 6.44772 0.447715 6 1 6H10.8711L11.4053 5.46582C11.7308 5.14029 11.7921 5.07283 11.835 5.00782C11.905 4.90158 11.9539 4.78286 11.9795 4.65821C11.9951 4.5819 12 4.49085 12 4.03028C12 3.53603 11.9996 3.2167 11.9824 2.97266C11.9659 2.73815 11.9373 2.64927 11.9189 2.60645C11.8178 2.37026 11.6297 2.18221 11.3936 2.08106C11.3507 2.06272 11.2619 2.03408 11.0273 2.01758C10.7833 2.00043 10.464 2 9.96973 2H1C0.447715 2 0 1.55229 0 1C0 0.447718 0.447715 2.65025e-06 1 2.65025e-06H9.96973C10.4356 2.49923e-06 10.8366 -0.000733923 11.167 0.0224636C11.5067 0.0463384 11.8465 0.0991405 12.1807 0.24219C12.8892 0.545663 13.4543 1.11078 13.7578 1.81934C13.9009 2.15352 13.9537 2.49333 13.9775 2.83301C14.0007 3.16335 14 3.56439 14 4.03028C14 4.40947 14.0044 4.7391 13.9385 5.06055C13.8617 5.43449 13.7141 5.79071 13.5039 6.10938C13.3233 6.38312 13.0873 6.61287 12.8193 6.88086L12.7002 7L12.8193 7.11914C13.0873 7.38714 13.3233 7.61688 13.5039 7.89063C13.7141 8.20929 13.8617 8.56552 13.9385 8.93946C14.0044 9.26091 14 9.59053 14 9.96973C14 10.4356 14.0007 10.8367 13.9775 11.167C13.9537 11.5067 13.9009 11.8465 13.7578 12.1807C13.4543 12.8892 12.8892 13.4543 12.1807 13.7578C11.8465 13.9009 11.5067 13.9537 11.167 13.9775C10.8366 14.0007 10.4356 14 9.96973 14H1C0.447715 14 0 13.5523 0 13C0 12.4477 0.447715 12 1 12H9.96973C10.464 12 10.7833 11.9996 11.0273 11.9824C11.2619 11.9659 11.3507 11.9373 11.3936 11.9189C11.6297 11.8178 11.8178 11.6297 11.9189 11.3936C11.9373 11.3507 11.9659 11.2619 11.9824 11.0273C11.9996 10.7833 12 10.464 12 9.96973Z" fill="black" style="mix-blend-mode:color-burn"/>
</svg>
