<svg width="14" height="14" viewBox="0 0 14 14" fill="none" xmlns="http://www.w3.org/2000/svg">
<path d="M12 13V8H4.2002C3.65665 8 3.18836 8.00107 2.80469 7.96973C2.40943 7.93742 2.016 7.8656 1.6377 7.67285C1.07348 7.38528 0.614727 6.92653 0.327153 6.3623C0.134401 5.98401 0.0625888 5.59057 0.0302779 5.19531C-0.00106931 4.81164 4.41361e-06 4.34336 4.41361e-06 3.7998V1C4.41361e-06 0.447715 0.44772 0 1 0C1.55229 0 2 0.447715 2 1V3.7998C2 4.37636 2.00127 4.74889 2.02442 5.03223C2.04662 5.30381 2.08419 5.40466 2.10938 5.4541C2.20522 5.64207 2.35793 5.79478 2.5459 5.89062C2.59534 5.91581 2.69619 5.95339 2.96778 5.97559C3.25112 5.99874 3.62365 6 4.2002 6H12V1C12 0.447715 12.4477 6.44255e-08 13 0C13.5523 0 14 0.447715 14 1V13C14 13.5523 13.5523 14 13 14C12.4477 14 12 13.5523 12 13Z" fill="black" style="mix-blend-mode:overlay"/>
<path d="M12 13V8H4.2002C3.65665 8 3.18836 8.00107 2.80469 7.96973C2.40943 7.93742 2.016 7.8656 1.6377 7.67285C1.07348 7.38528 0.614727 6.92653 0.327153 6.3623C0.134401 5.98401 0.0625888 5.59057 0.0302779 5.19531C-0.00106931 4.81164 4.41361e-06 4.34336 4.41361e-06 3.7998V1C4.41361e-06 0.447715 0.44772 0 1 0C1.55229 0 2 0.447715 2 1V3.7998C2 4.37636 2.00127 4.74889 2.02442 5.03223C2.04662 5.30381 2.08419 5.40466 2.10938 5.4541C2.20522 5.64207 2.35793 5.79478 2.5459 5.89062C2.59534 5.91581 2.69619 5.95339 2.96778 5.97559C3.25112 5.99874 3.62365 6 4.2002 6H12V1C12 0.447715 12.4477 6.44255e-08 13 0C13.5523 0 14 0.447715 14 1V13C14 13.5523 13.5523 14 13 14C12.4477 14 12 13.5523 12 13Z" fill="black" fill-opacity="0.983"/>
<path d="M12 13V8H4.2002C3.65665 8 3.18836 8.00107 2.80469 7.96973C2.40943 7.93742 2.016 7.8656 1.6377 7.67285C1.07348 7.38528 0.614727 6.92653 0.327153 6.3623C0.134401 5.98401 0.0625888 5.59057 0.0302779 5.19531C-0.00106931 4.81164 4.41361e-06 4.34336 4.41361e-06 3.7998V1C4.41361e-06 0.447715 0.44772 0 1 0C1.55229 0 2 0.447715 2 1V3.7998C2 4.37636 2.00127 4.74889 2.02442 5.03223C2.04662 5.30381 2.08419 5.40466 2.10938 5.4541C2.20522 5.64207 2.35793 5.79478 2.5459 5.89062C2.59534 5.91581 2.69619 5.95339 2.96778 5.97559C3.25112 5.99874 3.62365 6 4.2002 6H12V1C12 0.447715 12.4477 6.44255e-08 13 0C13.5523 0 14 0.447715 14 1V13C14 13.5523 13.5523 14 13 14C12.4477 14 12 13.5523 12 13Z" fill="white" style="mix-blend-mode:difference"/>
<path d="M12 13V8H4.2002C3.65665 8 3.18836 8.00107 2.80469 7.96973C2.40943 7.93742 2.016 7.8656 1.6377 7.67285C1.07348 7.38528 0.614727 6.92653 0.327153 6.3623C0.134401 5.98401 0.0625888 5.59057 0.0302779 5.19531C-0.00106931 4.81164 4.41361e-06 4.34336 4.41361e-06 3.7998V1C4.41361e-06 0.447715 0.44772 0 1 0C1.55229 0 2 0.447715 2 1V3.7998C2 4.37636 2.00127 4.74889 2.02442 5.03223C2.04662 5.30381 2.08419 5.40466 2.10938 5.4541C2.20522 5.64207 2.35793 5.79478 2.5459 5.89062C2.59534 5.91581 2.69619 5.95339 2.96778 5.97559C3.25112 5.99874 3.62365 6 4.2002 6H12V1C12 0.447715 12.4477 6.44255e-08 13 0C13.5523 0 14 0.447715 14 1V13C14 13.5523 13.5523 14 13 14C12.4477 14 12 13.5523 12 13Z" fill="black" style="mix-blend-mode:saturation"/>
<path d="M12 13V8H4.2002C3.65665 8 3.18836 8.00107 2.80469 7.96973C2.40943 7.93742 2.016 7.8656 1.6377 7.67285C1.07348 7.38528 0.614727 6.92653 0.327153 6.3623C0.134401 5.98401 0.0625888 5.59057 0.0302779 5.19531C-0.00106931 4.81164 4.41361e-06 4.34336 4.41361e-06 3.7998V1C4.41361e-06 0.447715 0.44772 0 1 0C1.55229 0 2 0.447715 2 1V3.7998C2 4.37636 2.00127 4.74889 2.02442 5.03223C2.04662 5.30381 2.08419 5.40466 2.10938 5.4541C2.20522 5.64207 2.35793 5.79478 2.5459 5.89062C2.59534 5.91581 2.69619 5.95339 2.96778 5.97559C3.25112 5.99874 3.62365 6 4.2002 6H12V1C12 0.447715 12.4477 6.44255e-08 13 0C13.5523 0 14 0.447715 14 1V13C14 13.5523 13.5523 14 13 14C12.4477 14 12 13.5523 12 13Z" fill="black" style="mix-blend-mode:color-burn"/>
</svg>
