<svg width="14" height="14" viewBox="0 0 14 14" fill="none" xmlns="http://www.w3.org/2000/svg">
<path d="M12 10C12 9.52038 11.9996 9.21061 11.9834 8.97363C11.9678 8.74572 11.9411 8.65879 11.9238 8.61719C11.8223 8.37226 11.6277 8.17766 11.3828 8.07617C11.3412 8.05894 11.2543 8.03216 11.0264 8.0166C10.7894 8.00043 10.4796 8 10 8H4C3.54786 8 3.15869 8.00039 2.83789 7.97852C2.50806 7.95601 2.17749 7.90649 1.85156 7.77148C1.11679 7.46701 0.532989 6.88321 0.228516 6.14844C0.0935121 5.82251 0.0439889 5.49194 0.0214848 5.16211C-0.000388162 4.84131 4.57606e-07 4.45214 4.57606e-07 4C4.57606e-07 3.54786 -0.000388162 3.15869 0.0214848 2.83789C0.0439889 2.50806 0.0935121 2.17749 0.228516 1.85156C0.532989 1.11679 1.11679 0.532989 1.85156 0.228516C2.17749 0.0935121 2.50806 0.0439889 2.83789 0.0214848C3.15869 -0.000388162 3.54786 4.57606e-07 4 4.57606e-07H13C13.5523 4.57606e-07 14 0.447716 14 1C14 1.55229 13.5523 2 13 2H4C3.52038 2 3.21061 2.00043 2.97363 2.0166C2.74572 2.03216 2.65879 2.05894 2.61719 2.07617C2.37226 2.17766 2.17766 2.37226 2.07617 2.61719C2.05894 2.65879 2.03216 2.74572 2.0166 2.97363C2.00043 3.21061 2 3.52038 2 4C2 4.47962 2.00043 4.78939 2.0166 5.02637C2.03216 5.25428 2.05894 5.34121 2.07617 5.38281C2.17766 5.62774 2.37226 5.82234 2.61719 5.92383C2.65879 5.94106 2.74572 5.96784 2.97363 5.9834C3.21061 5.99957 3.52038 6 4 6H10C10.4521 6 10.8413 5.99961 11.1621 6.02148C11.4919 6.04399 11.8225 6.09351 12.1484 6.22852C12.8832 6.53299 13.467 7.11679 13.7715 7.85156C13.9065 8.17749 13.956 8.50806 13.9785 8.83789C14.0004 9.15869 14 9.54786 14 10C14 10.4521 14.0004 10.8413 13.9785 11.1621C13.956 11.4919 13.9065 11.8225 13.7715 12.1484C13.467 12.8832 12.8832 13.467 12.1484 13.7715C11.8225 13.9065 11.4919 13.956 11.1621 13.9785C10.8413 14.0004 10.4521 14 10 14H1C0.447716 14 4.57606e-07 13.5523 4.57606e-07 13C4.57606e-07 12.4477 0.447716 12 1 12H10C10.4796 12 10.7894 11.9996 11.0264 11.9834C11.2543 11.9678 11.3412 11.9411 11.3828 11.9238C11.6277 11.8223 11.8223 11.6277 11.9238 11.3828C11.9411 11.3412 11.9678 11.2543 11.9834 11.0264C11.9996 10.7894 12 10.4796 12 10Z" fill="black" style="mix-blend-mode:overlay"/>
<path d="M12 10C12 9.52038 11.9996 9.21061 11.9834 8.97363C11.9678 8.74572 11.9411 8.65879 11.9238 8.61719C11.8223 8.37226 11.6277 8.17766 11.3828 8.07617C11.3412 8.05894 11.2543 8.03216 11.0264 8.0166C10.7894 8.00043 10.4796 8 10 8H4C3.54786 8 3.15869 8.00039 2.83789 7.97852C2.50806 7.95601 2.17749 7.90649 1.85156 7.77148C1.11679 7.46701 0.532989 6.88321 0.228516 6.14844C0.0935121 5.82251 0.0439889 5.49194 0.0214848 5.16211C-0.000388162 4.84131 4.57606e-07 4.45214 4.57606e-07 4C4.57606e-07 3.54786 -0.000388162 3.15869 0.0214848 2.83789C0.0439889 2.50806 0.0935121 2.17749 0.228516 1.85156C0.532989 1.11679 1.11679 0.532989 1.85156 0.228516C2.17749 0.0935121 2.50806 0.0439889 2.83789 0.0214848C3.15869 -0.000388162 3.54786 4.57606e-07 4 4.57606e-07H13C13.5523 4.57606e-07 14 0.447716 14 1C14 1.55229 13.5523 2 13 2H4C3.52038 2 3.21061 2.00043 2.97363 2.0166C2.74572 2.03216 2.65879 2.05894 2.61719 2.07617C2.37226 2.17766 2.17766 2.37226 2.07617 2.61719C2.05894 2.65879 2.03216 2.74572 2.0166 2.97363C2.00043 3.21061 2 3.52038 2 4C2 4.47962 2.00043 4.78939 2.0166 5.02637C2.03216 5.25428 2.05894 5.34121 2.07617 5.38281C2.17766 5.62774 2.37226 5.82234 2.61719 5.92383C2.65879 5.94106 2.74572 5.96784 2.97363 5.9834C3.21061 5.99957 3.52038 6 4 6H10C10.4521 6 10.8413 5.99961 11.1621 6.02148C11.4919 6.04399 11.8225 6.09351 12.1484 6.22852C12.8832 6.53299 13.467 7.11679 13.7715 7.85156C13.9065 8.17749 13.956 8.50806 13.9785 8.83789C14.0004 9.15869 14 9.54786 14 10C14 10.4521 14.0004 10.8413 13.9785 11.1621C13.956 11.4919 13.9065 11.8225 13.7715 12.1484C13.467 12.8832 12.8832 13.467 12.1484 13.7715C11.8225 13.9065 11.4919 13.956 11.1621 13.9785C10.8413 14.0004 10.4521 14 10 14H1C0.447716 14 4.57606e-07 13.5523 4.57606e-07 13C4.57606e-07 12.4477 0.447716 12 1 12H10C10.4796 12 10.7894 11.9996 11.0264 11.9834C11.2543 11.9678 11.3412 11.9411 11.3828 11.9238C11.6277 11.8223 11.8223 11.6277 11.9238 11.3828C11.9411 11.3412 11.9678 11.2543 11.9834 11.0264C11.9996 10.7894 12 10.4796 12 10Z" fill="black" fill-opacity="0.983"/>
<path d="M12 10C12 9.52038 11.9996 9.21061 11.9834 8.97363C11.9678 8.74572 11.9411 8.65879 11.9238 8.61719C11.8223 8.37226 11.6277 8.17766 11.3828 8.07617C11.3412 8.05894 11.2543 8.03216 11.0264 8.0166C10.7894 8.00043 10.4796 8 10 8H4C3.54786 8 3.15869 8.00039 2.83789 7.97852C2.50806 7.95601 2.17749 7.90649 1.85156 7.77148C1.11679 7.46701 0.532989 6.88321 0.228516 6.14844C0.0935121 5.82251 0.0439889 5.49194 0.0214848 5.16211C-0.000388162 4.84131 4.57606e-07 4.45214 4.57606e-07 4C4.57606e-07 3.54786 -0.000388162 3.15869 0.0214848 2.83789C0.0439889 2.50806 0.0935121 2.17749 0.228516 1.85156C0.532989 1.11679 1.11679 0.532989 1.85156 0.228516C2.17749 0.0935121 2.50806 0.0439889 2.83789 0.0214848C3.15869 -0.000388162 3.54786 4.57606e-07 4 4.57606e-07H13C13.5523 4.57606e-07 14 0.447716 14 1C14 1.55229 13.5523 2 13 2H4C3.52038 2 3.21061 2.00043 2.97363 2.0166C2.74572 2.03216 2.65879 2.05894 2.61719 2.07617C2.37226 2.17766 2.17766 2.37226 2.07617 2.61719C2.05894 2.65879 2.03216 2.74572 2.0166 2.97363C2.00043 3.21061 2 3.52038 2 4C2 4.47962 2.00043 4.78939 2.0166 5.02637C2.03216 5.25428 2.05894 5.34121 2.07617 5.38281C2.17766 5.62774 2.37226 5.82234 2.61719 5.92383C2.65879 5.94106 2.74572 5.96784 2.97363 5.9834C3.21061 5.99957 3.52038 6 4 6H10C10.4521 6 10.8413 5.99961 11.1621 6.02148C11.4919 6.04399 11.8225 6.09351 12.1484 6.22852C12.8832 6.53299 13.467 7.11679 13.7715 7.85156C13.9065 8.17749 13.956 8.50806 13.9785 8.83789C14.0004 9.15869 14 9.54786 14 10C14 10.4521 14.0004 10.8413 13.9785 11.1621C13.956 11.4919 13.9065 11.8225 13.7715 12.1484C13.467 12.8832 12.8832 13.467 12.1484 13.7715C11.8225 13.9065 11.4919 13.956 11.1621 13.9785C10.8413 14.0004 10.4521 14 10 14H1C0.447716 14 4.57606e-07 13.5523 4.57606e-07 13C4.57606e-07 12.4477 0.447716 12 1 12H10C10.4796 12 10.7894 11.9996 11.0264 11.9834C11.2543 11.9678 11.3412 11.9411 11.3828 11.9238C11.6277 11.8223 11.8223 11.6277 11.9238 11.3828C11.9411 11.3412 11.9678 11.2543 11.9834 11.0264C11.9996 10.7894 12 10.4796 12 10Z" fill="white" style="mix-blend-mode:difference"/>
<path d="M12 10C12 9.52038 11.9996 9.21061 11.9834 8.97363C11.9678 8.74572 11.9411 8.65879 11.9238 8.61719C11.8223 8.37226 11.6277 8.17766 11.3828 8.07617C11.3412 8.05894 11.2543 8.03216 11.0264 8.0166C10.7894 8.00043 10.4796 8 10 8H4C3.54786 8 3.15869 8.00039 2.83789 7.97852C2.50806 7.95601 2.17749 7.90649 1.85156 7.77148C1.11679 7.46701 0.532989 6.88321 0.228516 6.14844C0.0935121 5.82251 0.0439889 5.49194 0.0214848 5.16211C-0.000388162 4.84131 4.57606e-07 4.45214 4.57606e-07 4C4.57606e-07 3.54786 -0.000388162 3.15869 0.0214848 2.83789C0.0439889 2.50806 0.0935121 2.17749 0.228516 1.85156C0.532989 1.11679 1.11679 0.532989 1.85156 0.228516C2.17749 0.0935121 2.50806 0.0439889 2.83789 0.0214848C3.15869 -0.000388162 3.54786 4.57606e-07 4 4.57606e-07H13C13.5523 4.57606e-07 14 0.447716 14 1C14 1.55229 13.5523 2 13 2H4C3.52038 2 3.21061 2.00043 2.97363 2.0166C2.74572 2.03216 2.65879 2.05894 2.61719 2.07617C2.37226 2.17766 2.17766 2.37226 2.07617 2.61719C2.05894 2.65879 2.03216 2.74572 2.0166 2.97363C2.00043 3.21061 2 3.52038 2 4C2 4.47962 2.00043 4.78939 2.0166 5.02637C2.03216 5.25428 2.05894 5.34121 2.07617 5.38281C2.17766 5.62774 2.37226 5.82234 2.61719 5.92383C2.65879 5.94106 2.74572 5.96784 2.97363 5.9834C3.21061 5.99957 3.52038 6 4 6H10C10.4521 6 10.8413 5.99961 11.1621 6.02148C11.4919 6.04399 11.8225 6.09351 12.1484 6.22852C12.8832 6.53299 13.467 7.11679 13.7715 7.85156C13.9065 8.17749 13.956 8.50806 13.9785 8.83789C14.0004 9.15869 14 9.54786 14 10C14 10.4521 14.0004 10.8413 13.9785 11.1621C13.956 11.4919 13.9065 11.8225 13.7715 12.1484C13.467 12.8832 12.8832 13.467 12.1484 13.7715C11.8225 13.9065 11.4919 13.956 11.1621 13.9785C10.8413 14.0004 10.4521 14 10 14H1C0.447716 14 4.57606e-07 13.5523 4.57606e-07 13C4.57606e-07 12.4477 0.447716 12 1 12H10C10.4796 12 10.7894 11.9996 11.0264 11.9834C11.2543 11.9678 11.3412 11.9411 11.3828 11.9238C11.6277 11.8223 11.8223 11.6277 11.9238 11.3828C11.9411 11.3412 11.9678 11.2543 11.9834 11.0264C11.9996 10.7894 12 10.4796 12 10Z" fill="black" style="mix-blend-mode:saturation"/>
<path d="M12 10C12 9.52038 11.9996 9.21061 11.9834 8.97363C11.9678 8.74572 11.9411 8.65879 11.9238 8.61719C11.8223 8.37226 11.6277 8.17766 11.3828 8.07617C11.3412 8.05894 11.2543 8.03216 11.0264 8.0166C10.7894 8.00043 10.4796 8 10 8H4C3.54786 8 3.15869 8.00039 2.83789 7.97852C2.50806 7.95601 2.17749 7.90649 1.85156 7.77148C1.11679 7.46701 0.532989 6.88321 0.228516 6.14844C0.0935121 5.82251 0.0439889 5.49194 0.0214848 5.16211C-0.000388162 4.84131 4.57606e-07 4.45214 4.57606e-07 4C4.57606e-07 3.54786 -0.000388162 3.15869 0.0214848 2.83789C0.0439889 2.50806 0.0935121 2.17749 0.228516 1.85156C0.532989 1.11679 1.11679 0.532989 1.85156 0.228516C2.17749 0.0935121 2.50806 0.0439889 2.83789 0.0214848C3.15869 -0.000388162 3.54786 4.57606e-07 4 4.57606e-07H13C13.5523 4.57606e-07 14 0.447716 14 1C14 1.55229 13.5523 2 13 2H4C3.52038 2 3.21061 2.00043 2.97363 2.0166C2.74572 2.03216 2.65879 2.05894 2.61719 2.07617C2.37226 2.17766 2.17766 2.37226 2.07617 2.61719C2.05894 2.65879 2.03216 2.74572 2.0166 2.97363C2.00043 3.21061 2 3.52038 2 4C2 4.47962 2.00043 4.78939 2.0166 5.02637C2.03216 5.25428 2.05894 5.34121 2.07617 5.38281C2.17766 5.62774 2.37226 5.82234 2.61719 5.92383C2.65879 5.94106 2.74572 5.96784 2.97363 5.9834C3.21061 5.99957 3.52038 6 4 6H10C10.4521 6 10.8413 5.99961 11.1621 6.02148C11.4919 6.04399 11.8225 6.09351 12.1484 6.22852C12.8832 6.53299 13.467 7.11679 13.7715 7.85156C13.9065 8.17749 13.956 8.50806 13.9785 8.83789C14.0004 9.15869 14 9.54786 14 10C14 10.4521 14.0004 10.8413 13.9785 11.1621C13.956 11.4919 13.9065 11.8225 13.7715 12.1484C13.467 12.8832 12.8832 13.467 12.1484 13.7715C11.8225 13.9065 11.4919 13.956 11.1621 13.9785C10.8413 14.0004 10.4521 14 10 14H1C0.447716 14 4.57606e-07 13.5523 4.57606e-07 13C4.57606e-07 12.4477 0.447716 12 1 12H10C10.4796 12 10.7894 11.9996 11.0264 11.9834C11.2543 11.9678 11.3412 11.9411 11.3828 11.9238C11.6277 11.8223 11.8223 11.6277 11.9238 11.3828C11.9411 11.3412 11.9678 11.2543 11.9834 11.0264C11.9996 10.7894 12 10.4796 12 10Z" fill="black" style="mix-blend-mode:color-burn"/>
</svg>
