<svg width="14" height="14" viewBox="0 0 14 14" fill="none" xmlns="http://www.w3.org/2000/svg">
<path d="M4.41361e-06 9.79981V4.2002C4.41361e-06 3.65665 -0.00106931 3.18836 0.0302779 2.80469C0.0625888 2.40943 0.134401 2.016 0.327153 1.6377C0.614727 1.07348 1.07348 0.614727 1.6377 0.327153C2.016 0.134401 2.40943 0.0625888 2.80469 0.0302779C3.18836 -0.00106931 3.65665 4.41357e-06 4.2002 4.41357e-06H11.2861C11.8382 0.000230479 12.2861 0.447859 12.2861 1C12.2861 1.55215 11.8382 1.99978 11.2861 2H4.2002C3.62365 2 3.25112 2.00127 2.96778 2.02442C2.69619 2.04662 2.59534 2.08419 2.5459 2.10938C2.35793 2.20522 2.20522 2.35793 2.10938 2.5459C2.08419 2.59534 2.04662 2.69619 2.02442 2.96778C2.00127 3.25112 2 3.62365 2 4.2002V6H10C10.4521 6 10.8413 5.99962 11.1621 6.02149C11.4919 6.04399 11.8225 6.09352 12.1484 6.22852C12.8832 6.53299 13.467 7.11679 13.7715 7.85157C13.9065 8.1775 13.956 8.50807 13.9785 8.8379C14.0004 9.15869 14 9.54787 14 10C14 10.4521 14.0004 10.8413 13.9785 11.1621C13.956 11.4919 13.9065 11.8225 13.7715 12.1484C13.467 12.8832 12.8832 13.467 12.1484 13.7715C11.8225 13.9065 11.4919 13.956 11.1621 13.9785C10.8413 14.0004 10.4521 14 10 14H4.2002C3.65665 14 3.18836 14.0011 2.80469 13.9697C2.40943 13.9374 2.016 13.8656 1.6377 13.6729C1.07348 13.3853 0.614727 12.9265 0.327153 12.3623C0.134401 11.984 0.0625888 11.5906 0.0302779 11.1953C-0.00106931 10.8116 4.41361e-06 10.3434 4.41361e-06 9.79981ZM2 9.79981C2 10.3764 2.00127 10.7489 2.02442 11.0322C2.04662 11.3038 2.08419 11.4047 2.10938 11.4541C2.20522 11.6421 2.35793 11.7948 2.5459 11.8906C2.59534 11.9158 2.69619 11.9534 2.96778 11.9756C3.25112 11.9987 3.62365 12 4.2002 12H10C10.4796 12 10.7894 11.9996 11.0264 11.9834C11.2543 11.9678 11.3412 11.9411 11.3828 11.9238C11.6277 11.8223 11.8223 11.6277 11.9238 11.3828C11.9411 11.3412 11.9678 11.2543 11.9834 11.0264C11.9996 10.7894 12 10.4796 12 10C12 9.52038 11.9996 9.21062 11.9834 8.97364C11.9678 8.74573 11.9411 8.6588 11.9238 8.61719C11.8223 8.37227 11.6277 8.17767 11.3828 8.07618C11.3412 8.05894 11.2543 8.03216 11.0264 8.01661C10.7894 8.00044 10.4796 8 10 8H2V9.79981Z" fill="black" style="mix-blend-mode:overlay"/>
<path d="M4.41361e-06 9.79981V4.2002C4.41361e-06 3.65665 -0.00106931 3.18836 0.0302779 2.80469C0.0625888 2.40943 0.134401 2.016 0.327153 1.6377C0.614727 1.07348 1.07348 0.614727 1.6377 0.327153C2.016 0.134401 2.40943 0.0625888 2.80469 0.0302779C3.18836 -0.00106931 3.65665 4.41357e-06 4.2002 4.41357e-06H11.2861C11.8382 0.000230479 12.2861 0.447859 12.2861 1C12.2861 1.55215 11.8382 1.99978 11.2861 2H4.2002C3.62365 2 3.25112 2.00127 2.96778 2.02442C2.69619 2.04662 2.59534 2.08419 2.5459 2.10938C2.35793 2.20522 2.20522 2.35793 2.10938 2.5459C2.08419 2.59534 2.04662 2.69619 2.02442 2.96778C2.00127 3.25112 2 3.62365 2 4.2002V6H10C10.4521 6 10.8413 5.99962 11.1621 6.02149C11.4919 6.04399 11.8225 6.09352 12.1484 6.22852C12.8832 6.53299 13.467 7.11679 13.7715 7.85157C13.9065 8.1775 13.956 8.50807 13.9785 8.8379C14.0004 9.15869 14 9.54787 14 10C14 10.4521 14.0004 10.8413 13.9785 11.1621C13.956 11.4919 13.9065 11.8225 13.7715 12.1484C13.467 12.8832 12.8832 13.467 12.1484 13.7715C11.8225 13.9065 11.4919 13.956 11.1621 13.9785C10.8413 14.0004 10.4521 14 10 14H4.2002C3.65665 14 3.18836 14.0011 2.80469 13.9697C2.40943 13.9374 2.016 13.8656 1.6377 13.6729C1.07348 13.3853 0.614727 12.9265 0.327153 12.3623C0.134401 11.984 0.0625888 11.5906 0.0302779 11.1953C-0.00106931 10.8116 4.41361e-06 10.3434 4.41361e-06 9.79981ZM2 9.79981C2 10.3764 2.00127 10.7489 2.02442 11.0322C2.04662 11.3038 2.08419 11.4047 2.10938 11.4541C2.20522 11.6421 2.35793 11.7948 2.5459 11.8906C2.59534 11.9158 2.69619 11.9534 2.96778 11.9756C3.25112 11.9987 3.62365 12 4.2002 12H10C10.4796 12 10.7894 11.9996 11.0264 11.9834C11.2543 11.9678 11.3412 11.9411 11.3828 11.9238C11.6277 11.8223 11.8223 11.6277 11.9238 11.3828C11.9411 11.3412 11.9678 11.2543 11.9834 11.0264C11.9996 10.7894 12 10.4796 12 10C12 9.52038 11.9996 9.21062 11.9834 8.97364C11.9678 8.74573 11.9411 8.6588 11.9238 8.61719C11.8223 8.37227 11.6277 8.17767 11.3828 8.07618C11.3412 8.05894 11.2543 8.03216 11.0264 8.01661C10.7894 8.00044 10.4796 8 10 8H2V9.79981Z" fill="black" fill-opacity="0.983"/>
<path d="M4.41361e-06 9.79981V4.2002C4.41361e-06 3.65665 -0.00106931 3.18836 0.0302779 2.80469C0.0625888 2.40943 0.134401 2.016 0.327153 1.6377C0.614727 1.07348 1.07348 0.614727 1.6377 0.327153C2.016 0.134401 2.40943 0.0625888 2.80469 0.0302779C3.18836 -0.00106931 3.65665 4.41357e-06 4.2002 4.41357e-06H11.2861C11.8382 0.000230479 12.2861 0.447859 12.2861 1C12.2861 1.55215 11.8382 1.99978 11.2861 2H4.2002C3.62365 2 3.25112 2.00127 2.96778 2.02442C2.69619 2.04662 2.59534 2.08419 2.5459 2.10938C2.35793 2.20522 2.20522 2.35793 2.10938 2.5459C2.08419 2.59534 2.04662 2.69619 2.02442 2.96778C2.00127 3.25112 2 3.62365 2 4.2002V6H10C10.4521 6 10.8413 5.99962 11.1621 6.02149C11.4919 6.04399 11.8225 6.09352 12.1484 6.22852C12.8832 6.53299 13.467 7.11679 13.7715 7.85157C13.9065 8.1775 13.956 8.50807 13.9785 8.8379C14.0004 9.15869 14 9.54787 14 10C14 10.4521 14.0004 10.8413 13.9785 11.1621C13.956 11.4919 13.9065 11.8225 13.7715 12.1484C13.467 12.8832 12.8832 13.467 12.1484 13.7715C11.8225 13.9065 11.4919 13.956 11.1621 13.9785C10.8413 14.0004 10.4521 14 10 14H4.2002C3.65665 14 3.18836 14.0011 2.80469 13.9697C2.40943 13.9374 2.016 13.8656 1.6377 13.6729C1.07348 13.3853 0.614727 12.9265 0.327153 12.3623C0.134401 11.984 0.0625888 11.5906 0.0302779 11.1953C-0.00106931 10.8116 4.41361e-06 10.3434 4.41361e-06 9.79981ZM2 9.79981C2 10.3764 2.00127 10.7489 2.02442 11.0322C2.04662 11.3038 2.08419 11.4047 2.10938 11.4541C2.20522 11.6421 2.35793 11.7948 2.5459 11.8906C2.59534 11.9158 2.69619 11.9534 2.96778 11.9756C3.25112 11.9987 3.62365 12 4.2002 12H10C10.4796 12 10.7894 11.9996 11.0264 11.9834C11.2543 11.9678 11.3412 11.9411 11.3828 11.9238C11.6277 11.8223 11.8223 11.6277 11.9238 11.3828C11.9411 11.3412 11.9678 11.2543 11.9834 11.0264C11.9996 10.7894 12 10.4796 12 10C12 9.52038 11.9996 9.21062 11.9834 8.97364C11.9678 8.74573 11.9411 8.6588 11.9238 8.61719C11.8223 8.37227 11.6277 8.17767 11.3828 8.07618C11.3412 8.05894 11.2543 8.03216 11.0264 8.01661C10.7894 8.00044 10.4796 8 10 8H2V9.79981Z" fill="white" style="mix-blend-mode:difference"/>
<path d="M4.41361e-06 9.79981V4.2002C4.41361e-06 3.65665 -0.00106931 3.18836 0.0302779 2.80469C0.0625888 2.40943 0.134401 2.016 0.327153 1.6377C0.614727 1.07348 1.07348 0.614727 1.6377 0.327153C2.016 0.134401 2.40943 0.0625888 2.80469 0.0302779C3.18836 -0.00106931 3.65665 4.41357e-06 4.2002 4.41357e-06H11.2861C11.8382 0.000230479 12.2861 0.447859 12.2861 1C12.2861 1.55215 11.8382 1.99978 11.2861 2H4.2002C3.62365 2 3.25112 2.00127 2.96778 2.02442C2.69619 2.04662 2.59534 2.08419 2.5459 2.10938C2.35793 2.20522 2.20522 2.35793 2.10938 2.5459C2.08419 2.59534 2.04662 2.69619 2.02442 2.96778C2.00127 3.25112 2 3.62365 2 4.2002V6H10C10.4521 6 10.8413 5.99962 11.1621 6.02149C11.4919 6.04399 11.8225 6.09352 12.1484 6.22852C12.8832 6.53299 13.467 7.11679 13.7715 7.85157C13.9065 8.1775 13.956 8.50807 13.9785 8.8379C14.0004 9.15869 14 9.54787 14 10C14 10.4521 14.0004 10.8413 13.9785 11.1621C13.956 11.4919 13.9065 11.8225 13.7715 12.1484C13.467 12.8832 12.8832 13.467 12.1484 13.7715C11.8225 13.9065 11.4919 13.956 11.1621 13.9785C10.8413 14.0004 10.4521 14 10 14H4.2002C3.65665 14 3.18836 14.0011 2.80469 13.9697C2.40943 13.9374 2.016 13.8656 1.6377 13.6729C1.07348 13.3853 0.614727 12.9265 0.327153 12.3623C0.134401 11.984 0.0625888 11.5906 0.0302779 11.1953C-0.00106931 10.8116 4.41361e-06 10.3434 4.41361e-06 9.79981ZM2 9.79981C2 10.3764 2.00127 10.7489 2.02442 11.0322C2.04662 11.3038 2.08419 11.4047 2.10938 11.4541C2.20522 11.6421 2.35793 11.7948 2.5459 11.8906C2.59534 11.9158 2.69619 11.9534 2.96778 11.9756C3.25112 11.9987 3.62365 12 4.2002 12H10C10.4796 12 10.7894 11.9996 11.0264 11.9834C11.2543 11.9678 11.3412 11.9411 11.3828 11.9238C11.6277 11.8223 11.8223 11.6277 11.9238 11.3828C11.9411 11.3412 11.9678 11.2543 11.9834 11.0264C11.9996 10.7894 12 10.4796 12 10C12 9.52038 11.9996 9.21062 11.9834 8.97364C11.9678 8.74573 11.9411 8.6588 11.9238 8.61719C11.8223 8.37227 11.6277 8.17767 11.3828 8.07618C11.3412 8.05894 11.2543 8.03216 11.0264 8.01661C10.7894 8.00044 10.4796 8 10 8H2V9.79981Z" fill="black" style="mix-blend-mode:saturation"/>
<path d="M4.41361e-06 9.79981V4.2002C4.41361e-06 3.65665 -0.00106931 3.18836 0.0302779 2.80469C0.0625888 2.40943 0.134401 2.016 0.327153 1.6377C0.614727 1.07348 1.07348 0.614727 1.6377 0.327153C2.016 0.134401 2.40943 0.0625888 2.80469 0.0302779C3.18836 -0.00106931 3.65665 4.41357e-06 4.2002 4.41357e-06H11.2861C11.8382 0.000230479 12.2861 0.447859 12.2861 1C12.2861 1.55215 11.8382 1.99978 11.2861 2H4.2002C3.62365 2 3.25112 2.00127 2.96778 2.02442C2.69619 2.04662 2.59534 2.08419 2.5459 2.10938C2.35793 2.20522 2.20522 2.35793 2.10938 2.5459C2.08419 2.59534 2.04662 2.69619 2.02442 2.96778C2.00127 3.25112 2 3.62365 2 4.2002V6H10C10.4521 6 10.8413 5.99962 11.1621 6.02149C11.4919 6.04399 11.8225 6.09352 12.1484 6.22852C12.8832 6.53299 13.467 7.11679 13.7715 7.85157C13.9065 8.1775 13.956 8.50807 13.9785 8.8379C14.0004 9.15869 14 9.54787 14 10C14 10.4521 14.0004 10.8413 13.9785 11.1621C13.956 11.4919 13.9065 11.8225 13.7715 12.1484C13.467 12.8832 12.8832 13.467 12.1484 13.7715C11.8225 13.9065 11.4919 13.956 11.1621 13.9785C10.8413 14.0004 10.4521 14 10 14H4.2002C3.65665 14 3.18836 14.0011 2.80469 13.9697C2.40943 13.9374 2.016 13.8656 1.6377 13.6729C1.07348 13.3853 0.614727 12.9265 0.327153 12.3623C0.134401 11.984 0.0625888 11.5906 0.0302779 11.1953C-0.00106931 10.8116 4.41361e-06 10.3434 4.41361e-06 9.79981ZM2 9.79981C2 10.3764 2.00127 10.7489 2.02442 11.0322C2.04662 11.3038 2.08419 11.4047 2.10938 11.4541C2.20522 11.6421 2.35793 11.7948 2.5459 11.8906C2.59534 11.9158 2.69619 11.9534 2.96778 11.9756C3.25112 11.9987 3.62365 12 4.2002 12H10C10.4796 12 10.7894 11.9996 11.0264 11.9834C11.2543 11.9678 11.3412 11.9411 11.3828 11.9238C11.6277 11.8223 11.8223 11.6277 11.9238 11.3828C11.9411 11.3412 11.9678 11.2543 11.9834 11.0264C11.9996 10.7894 12 10.4796 12 10C12 9.52038 11.9996 9.21062 11.9834 8.97364C11.9678 8.74573 11.9411 8.6588 11.9238 8.61719C11.8223 8.37227 11.6277 8.17767 11.3828 8.07618C11.3412 8.05894 11.2543 8.03216 11.0264 8.01661C10.7894 8.00044 10.4796 8 10 8H2V9.79981Z" fill="black" style="mix-blend-mode:color-burn"/>
</svg>
