<svg width="14" height="14" viewBox="0 0 14 14" fill="none" xmlns="http://www.w3.org/2000/svg">
<path d="M7.40039 6.45752e-07C8.84317 4.92393e-07 9.99005 -0.000946164 10.8447 0.0703131C11.6391 0.136564 12.4782 0.277268 13.0439 0.803712C13.791 1.49893 14.1337 2.52685 13.9531 3.53125C13.8163 4.29166 13.2294 4.90702 12.6338 5.43652C11.9928 6.0064 11.0744 6.69374 9.91992 7.55957L1.59961 13.7998C1.15779 14.131 0.531527 14.0414 0.200195 13.5996C-0.131037 13.1578 -0.0413851 12.5315 0.400391 12.2002L8.71973 5.95996C9.90446 5.07141 10.7412 4.44329 11.3047 3.94238C11.5838 3.69429 11.7625 3.50581 11.8721 3.36133C11.9809 3.21778 11.987 3.16262 11.9844 3.17676C12.0445 2.84203 11.9306 2.49927 11.6816 2.26758C11.6925 2.27766 11.6544 2.23718 11.4805 2.1875C11.3061 2.13771 11.0507 2.0945 10.6787 2.06348C9.92741 2.00082 8.88137 2 7.40039 2H1C0.447715 2 0 1.55229 0 1C0 0.447716 0.447715 6.45752e-07 1 6.45752e-07H7.40039Z" fill="black" style="mix-blend-mode:overlay"/>
<path d="M7.40039 6.45752e-07C8.84317 4.92393e-07 9.99005 -0.000946164 10.8447 0.0703131C11.6391 0.136564 12.4782 0.277268 13.0439 0.803712C13.791 1.49893 14.1337 2.52685 13.9531 3.53125C13.8163 4.29166 13.2294 4.90702 12.6338 5.43652C11.9928 6.0064 11.0744 6.69374 9.91992 7.55957L1.59961 13.7998C1.15779 14.131 0.531527 14.0414 0.200195 13.5996C-0.131037 13.1578 -0.0413851 12.5315 0.400391 12.2002L8.71973 5.95996C9.90446 5.07141 10.7412 4.44329 11.3047 3.94238C11.5838 3.69429 11.7625 3.50581 11.8721 3.36133C11.9809 3.21778 11.987 3.16262 11.9844 3.17676C12.0445 2.84203 11.9306 2.49927 11.6816 2.26758C11.6925 2.27766 11.6544 2.23718 11.4805 2.1875C11.3061 2.13771 11.0507 2.0945 10.6787 2.06348C9.92741 2.00082 8.88137 2 7.40039 2H1C0.447715 2 0 1.55229 0 1C0 0.447716 0.447715 6.45752e-07 1 6.45752e-07H7.40039Z" fill="black" fill-opacity="0.983"/>
<path d="M7.40039 6.45752e-07C8.84317 4.92393e-07 9.99005 -0.000946164 10.8447 0.0703131C11.6391 0.136564 12.4782 0.277268 13.0439 0.803712C13.791 1.49893 14.1337 2.52685 13.9531 3.53125C13.8163 4.29166 13.2294 4.90702 12.6338 5.43652C11.9928 6.0064 11.0744 6.69374 9.91992 7.55957L1.59961 13.7998C1.15779 14.131 0.531527 14.0414 0.200195 13.5996C-0.131037 13.1578 -0.0413851 12.5315 0.400391 12.2002L8.71973 5.95996C9.90446 5.07141 10.7412 4.44329 11.3047 3.94238C11.5838 3.69429 11.7625 3.50581 11.8721 3.36133C11.9809 3.21778 11.987 3.16262 11.9844 3.17676C12.0445 2.84203 11.9306 2.49927 11.6816 2.26758C11.6925 2.27766 11.6544 2.23718 11.4805 2.1875C11.3061 2.13771 11.0507 2.0945 10.6787 2.06348C9.92741 2.00082 8.88137 2 7.40039 2H1C0.447715 2 0 1.55229 0 1C0 0.447716 0.447715 6.45752e-07 1 6.45752e-07H7.40039Z" fill="white" style="mix-blend-mode:difference"/>
<path d="M7.40039 6.45752e-07C8.84317 4.92393e-07 9.99005 -0.000946164 10.8447 0.0703131C11.6391 0.136564 12.4782 0.277268 13.0439 0.803712C13.791 1.49893 14.1337 2.52685 13.9531 3.53125C13.8163 4.29166 13.2294 4.90702 12.6338 5.43652C11.9928 6.0064 11.0744 6.69374 9.91992 7.55957L1.59961 13.7998C1.15779 14.131 0.531527 14.0414 0.200195 13.5996C-0.131037 13.1578 -0.0413851 12.5315 0.400391 12.2002L8.71973 5.95996C9.90446 5.07141 10.7412 4.44329 11.3047 3.94238C11.5838 3.69429 11.7625 3.50581 11.8721 3.36133C11.9809 3.21778 11.987 3.16262 11.9844 3.17676C12.0445 2.84203 11.9306 2.49927 11.6816 2.26758C11.6925 2.27766 11.6544 2.23718 11.4805 2.1875C11.3061 2.13771 11.0507 2.0945 10.6787 2.06348C9.92741 2.00082 8.88137 2 7.40039 2H1C0.447715 2 0 1.55229 0 1C0 0.447716 0.447715 6.45752e-07 1 6.45752e-07H7.40039Z" fill="black" style="mix-blend-mode:saturation"/>
<path d="M7.40039 6.45752e-07C8.84317 4.92393e-07 9.99005 -0.000946164 10.8447 0.0703131C11.6391 0.136564 12.4782 0.277268 13.0439 0.803712C13.791 1.49893 14.1337 2.52685 13.9531 3.53125C13.8163 4.29166 13.2294 4.90702 12.6338 5.43652C11.9928 6.0064 11.0744 6.69374 9.91992 7.55957L1.59961 13.7998C1.15779 14.131 0.531527 14.0414 0.200195 13.5996C-0.131037 13.1578 -0.0413851 12.5315 0.400391 12.2002L8.71973 5.95996C9.90446 5.07141 10.7412 4.44329 11.3047 3.94238C11.5838 3.69429 11.7625 3.50581 11.8721 3.36133C11.9809 3.21778 11.987 3.16262 11.9844 3.17676C12.0445 2.84203 11.9306 2.49927 11.6816 2.26758C11.6925 2.27766 11.6544 2.23718 11.4805 2.1875C11.3061 2.13771 11.0507 2.0945 10.6787 2.06348C9.92741 2.00082 8.88137 2 7.40039 2H1C0.447715 2 0 1.55229 0 1C0 0.447716 0.447715 6.45752e-07 1 6.45752e-07H7.40039Z" fill="black" style="mix-blend-mode:color-burn"/>
</svg>
