<svg width="14" height="14" viewBox="0 0 14 14" fill="none" xmlns="http://www.w3.org/2000/svg">
<path d="M12.0001 9.61133C12.0001 9.075 11.9939 8.96914 11.9728 8.88086C11.9483 8.77885 11.9074 8.68126 11.8526 8.5918C11.8052 8.51436 11.7351 8.43523 11.3556 8.05567L11.2999 8H2.70029L2.64463 8.05567C2.26507 8.43523 2.19501 8.51436 2.14756 8.5918C2.09275 8.68126 2.05193 8.77885 2.02744 8.88086C2.00628 8.96914 2.00009 9.075 2.00009 9.61133V9.79981C2.00009 10.3764 2.00136 10.7489 2.02451 11.0322C2.04671 11.3038 2.08428 11.4047 2.10947 11.4541C2.20531 11.6421 2.35802 11.7948 2.54599 11.8906C2.59543 11.9158 2.69628 11.9534 2.96787 11.9756C3.25121 11.9987 3.62374 12 4.20029 12H9.7999C10.3765 12 10.749 11.9987 11.0323 11.9756C11.3039 11.9534 11.4048 11.9158 11.4542 11.8906C11.6422 11.7948 11.7949 11.6421 11.8907 11.4541C11.9159 11.4047 11.9535 11.3038 11.9757 11.0322C11.9988 10.7489 12.0001 10.3764 12.0001 9.79981V9.61133ZM12.0001 4.2002C12.0001 3.62365 11.9988 3.25112 11.9757 2.96778C11.9535 2.69619 11.9159 2.59534 11.8907 2.5459C11.7949 2.35793 11.6422 2.20522 11.4542 2.10938C11.4048 2.08419 11.3039 2.04662 11.0323 2.02442C10.749 2.00127 10.3765 2 9.7999 2H4.20029C3.62374 2 3.25121 2.00127 2.96787 2.02442C2.69628 2.04662 2.59543 2.08419 2.54599 2.10938C2.35802 2.20522 2.20531 2.35793 2.10947 2.5459C2.08428 2.59534 2.04671 2.69619 2.02451 2.96778C2.00136 3.25112 2.00009 3.62365 2.00009 4.2002V4.38868C2.00009 4.92501 2.00628 5.03087 2.02744 5.11914C2.05193 5.22116 2.09275 5.31875 2.14756 5.40821C2.19501 5.48565 2.26507 5.56478 2.64463 5.94434L2.70029 6H11.2999L11.3556 5.94434C11.7351 5.56478 11.8052 5.48565 11.8526 5.40821C11.9074 5.31875 11.9483 5.22116 11.9728 5.11914C11.9939 5.03087 12.0001 4.92501 12.0001 4.38868V4.2002ZM14.0001 4.38868C14.0001 4.83017 14.0063 5.21398 13.9171 5.58594C13.8436 5.89204 13.7222 6.18472 13.5577 6.45313C13.437 6.65006 13.2866 6.82331 13.1192 7C13.2866 7.1767 13.437 7.34995 13.5577 7.54688C13.7222 7.81529 13.8436 8.10797 13.9171 8.41407C14.0063 8.78603 14.0001 9.16984 14.0001 9.61133V9.79981C14.0001 10.3434 14.0012 10.8116 13.9698 11.1953C13.9375 11.5906 13.8657 11.984 13.6729 12.3623C13.3854 12.9265 12.9266 13.3853 12.3624 13.6729C11.9841 13.8656 11.5907 13.9374 11.1954 13.9697C10.8117 14.0011 10.3435 14 9.7999 14H4.20029C3.65674 14 3.18845 14.0011 2.80478 13.9697C2.40952 13.9374 2.01609 13.8656 1.63779 13.6729C1.07357 13.3853 0.614817 12.9265 0.327243 12.3623C0.134491 11.984 0.0626789 11.5906 0.0303679 11.1953C-0.000979232 10.8116 9.4498e-05 10.3434 9.4498e-05 9.79981V9.61133C9.4498e-05 9.16984 -0.0061602 8.78603 0.0831023 8.41407C0.15659 8.10797 0.278001 7.81529 0.442477 7.54688C0.563154 7.34995 0.713611 7.1767 0.880954 7C0.713611 6.82331 0.563154 6.65006 0.442477 6.45313C0.278001 6.18472 0.15659 5.89204 0.0831023 5.58594C-0.00616018 5.21398 9.4498e-05 4.83017 9.4498e-05 4.38868V4.2002C9.4498e-05 3.65665 -0.000979235 3.18836 0.0303679 2.80469C0.0626789 2.40943 0.134491 2.016 0.327243 1.6377C0.614817 1.07348 1.07357 0.614727 1.63779 0.327153C2.01609 0.134401 2.40952 0.0625888 2.80478 0.0302779C3.18845 -0.00106931 3.65674 4.41365e-06 4.20029 4.41365e-06H9.7999C10.3435 4.41365e-06 10.8117 -0.00106932 11.1954 0.0302779C11.5907 0.0625888 11.9841 0.134401 12.3624 0.327153C12.9266 0.614727 13.3854 1.07348 13.6729 1.6377C13.8657 2.016 13.9375 2.40943 13.9698 2.80469C14.0012 3.18836 14.0001 3.65665 14.0001 4.2002V4.38868Z" fill="black" style="mix-blend-mode:overlay"/>
<path d="M12.0001 9.61133C12.0001 9.075 11.9939 8.96914 11.9728 8.88086C11.9483 8.77885 11.9074 8.68126 11.8526 8.5918C11.8052 8.51436 11.7351 8.43523 11.3556 8.05567L11.2999 8H2.70029L2.64463 8.05567C2.26507 8.43523 2.19501 8.51436 2.14756 8.5918C2.09275 8.68126 2.05193 8.77885 2.02744 8.88086C2.00628 8.96914 2.00009 9.075 2.00009 9.61133V9.79981C2.00009 10.3764 2.00136 10.7489 2.02451 11.0322C2.04671 11.3038 2.08428 11.4047 2.10947 11.4541C2.20531 11.6421 2.35802 11.7948 2.54599 11.8906C2.59543 11.9158 2.69628 11.9534 2.96787 11.9756C3.25121 11.9987 3.62374 12 4.20029 12H9.7999C10.3765 12 10.749 11.9987 11.0323 11.9756C11.3039 11.9534 11.4048 11.9158 11.4542 11.8906C11.6422 11.7948 11.7949 11.6421 11.8907 11.4541C11.9159 11.4047 11.9535 11.3038 11.9757 11.0322C11.9988 10.7489 12.0001 10.3764 12.0001 9.79981V9.61133ZM12.0001 4.2002C12.0001 3.62365 11.9988 3.25112 11.9757 2.96778C11.9535 2.69619 11.9159 2.59534 11.8907 2.5459C11.7949 2.35793 11.6422 2.20522 11.4542 2.10938C11.4048 2.08419 11.3039 2.04662 11.0323 2.02442C10.749 2.00127 10.3765 2 9.7999 2H4.20029C3.62374 2 3.25121 2.00127 2.96787 2.02442C2.69628 2.04662 2.59543 2.08419 2.54599 2.10938C2.35802 2.20522 2.20531 2.35793 2.10947 2.5459C2.08428 2.59534 2.04671 2.69619 2.02451 2.96778C2.00136 3.25112 2.00009 3.62365 2.00009 4.2002V4.38868C2.00009 4.92501 2.00628 5.03087 2.02744 5.11914C2.05193 5.22116 2.09275 5.31875 2.14756 5.40821C2.19501 5.48565 2.26507 5.56478 2.64463 5.94434L2.70029 6H11.2999L11.3556 5.94434C11.7351 5.56478 11.8052 5.48565 11.8526 5.40821C11.9074 5.31875 11.9483 5.22116 11.9728 5.11914C11.9939 5.03087 12.0001 4.92501 12.0001 4.38868V4.2002ZM14.0001 4.38868C14.0001 4.83017 14.0063 5.21398 13.9171 5.58594C13.8436 5.89204 13.7222 6.18472 13.5577 6.45313C13.437 6.65006 13.2866 6.82331 13.1192 7C13.2866 7.1767 13.437 7.34995 13.5577 7.54688C13.7222 7.81529 13.8436 8.10797 13.9171 8.41407C14.0063 8.78603 14.0001 9.16984 14.0001 9.61133V9.79981C14.0001 10.3434 14.0012 10.8116 13.9698 11.1953C13.9375 11.5906 13.8657 11.984 13.6729 12.3623C13.3854 12.9265 12.9266 13.3853 12.3624 13.6729C11.9841 13.8656 11.5907 13.9374 11.1954 13.9697C10.8117 14.0011 10.3435 14 9.7999 14H4.20029C3.65674 14 3.18845 14.0011 2.80478 13.9697C2.40952 13.9374 2.01609 13.8656 1.63779 13.6729C1.07357 13.3853 0.614817 12.9265 0.327243 12.3623C0.134491 11.984 0.0626789 11.5906 0.0303679 11.1953C-0.000979232 10.8116 9.4498e-05 10.3434 9.4498e-05 9.79981V9.61133C9.4498e-05 9.16984 -0.0061602 8.78603 0.0831023 8.41407C0.15659 8.10797 0.278001 7.81529 0.442477 7.54688C0.563154 7.34995 0.713611 7.1767 0.880954 7C0.713611 6.82331 0.563154 6.65006 0.442477 6.45313C0.278001 6.18472 0.15659 5.89204 0.0831023 5.58594C-0.00616018 5.21398 9.4498e-05 4.83017 9.4498e-05 4.38868V4.2002C9.4498e-05 3.65665 -0.000979235 3.18836 0.0303679 2.80469C0.0626789 2.40943 0.134491 2.016 0.327243 1.6377C0.614817 1.07348 1.07357 0.614727 1.63779 0.327153C2.01609 0.134401 2.40952 0.0625888 2.80478 0.0302779C3.18845 -0.00106931 3.65674 4.41365e-06 4.20029 4.41365e-06H9.7999C10.3435 4.41365e-06 10.8117 -0.00106932 11.1954 0.0302779C11.5907 0.0625888 11.9841 0.134401 12.3624 0.327153C12.9266 0.614727 13.3854 1.07348 13.6729 1.6377C13.8657 2.016 13.9375 2.40943 13.9698 2.80469C14.0012 3.18836 14.0001 3.65665 14.0001 4.2002V4.38868Z" fill="black" fill-opacity="0.983"/>
<path d="M12.0001 9.61133C12.0001 9.075 11.9939 8.96914 11.9728 8.88086C11.9483 8.77885 11.9074 8.68126 11.8526 8.5918C11.8052 8.51436 11.7351 8.43523 11.3556 8.05567L11.2999 8H2.70029L2.64463 8.05567C2.26507 8.43523 2.19501 8.51436 2.14756 8.5918C2.09275 8.68126 2.05193 8.77885 2.02744 8.88086C2.00628 8.96914 2.00009 9.075 2.00009 9.61133V9.79981C2.00009 10.3764 2.00136 10.7489 2.02451 11.0322C2.04671 11.3038 2.08428 11.4047 2.10947 11.4541C2.20531 11.6421 2.35802 11.7948 2.54599 11.8906C2.59543 11.9158 2.69628 11.9534 2.96787 11.9756C3.25121 11.9987 3.62374 12 4.20029 12H9.7999C10.3765 12 10.749 11.9987 11.0323 11.9756C11.3039 11.9534 11.4048 11.9158 11.4542 11.8906C11.6422 11.7948 11.7949 11.6421 11.8907 11.4541C11.9159 11.4047 11.9535 11.3038 11.9757 11.0322C11.9988 10.7489 12.0001 10.3764 12.0001 9.79981V9.61133ZM12.0001 4.2002C12.0001 3.62365 11.9988 3.25112 11.9757 2.96778C11.9535 2.69619 11.9159 2.59534 11.8907 2.5459C11.7949 2.35793 11.6422 2.20522 11.4542 2.10938C11.4048 2.08419 11.3039 2.04662 11.0323 2.02442C10.749 2.00127 10.3765 2 9.7999 2H4.20029C3.62374 2 3.25121 2.00127 2.96787 2.02442C2.69628 2.04662 2.59543 2.08419 2.54599 2.10938C2.35802 2.20522 2.20531 2.35793 2.10947 2.5459C2.08428 2.59534 2.04671 2.69619 2.02451 2.96778C2.00136 3.25112 2.00009 3.62365 2.00009 4.2002V4.38868C2.00009 4.92501 2.00628 5.03087 2.02744 5.11914C2.05193 5.22116 2.09275 5.31875 2.14756 5.40821C2.19501 5.48565 2.26507 5.56478 2.64463 5.94434L2.70029 6H11.2999L11.3556 5.94434C11.7351 5.56478 11.8052 5.48565 11.8526 5.40821C11.9074 5.31875 11.9483 5.22116 11.9728 5.11914C11.9939 5.03087 12.0001 4.92501 12.0001 4.38868V4.2002ZM14.0001 4.38868C14.0001 4.83017 14.0063 5.21398 13.9171 5.58594C13.8436 5.89204 13.7222 6.18472 13.5577 6.45313C13.437 6.65006 13.2866 6.82331 13.1192 7C13.2866 7.1767 13.437 7.34995 13.5577 7.54688C13.7222 7.81529 13.8436 8.10797 13.9171 8.41407C14.0063 8.78603 14.0001 9.16984 14.0001 9.61133V9.79981C14.0001 10.3434 14.0012 10.8116 13.9698 11.1953C13.9375 11.5906 13.8657 11.984 13.6729 12.3623C13.3854 12.9265 12.9266 13.3853 12.3624 13.6729C11.9841 13.8656 11.5907 13.9374 11.1954 13.9697C10.8117 14.0011 10.3435 14 9.7999 14H4.20029C3.65674 14 3.18845 14.0011 2.80478 13.9697C2.40952 13.9374 2.01609 13.8656 1.63779 13.6729C1.07357 13.3853 0.614817 12.9265 0.327243 12.3623C0.134491 11.984 0.0626789 11.5906 0.0303679 11.1953C-0.000979232 10.8116 9.4498e-05 10.3434 9.4498e-05 9.79981V9.61133C9.4498e-05 9.16984 -0.0061602 8.78603 0.0831023 8.41407C0.15659 8.10797 0.278001 7.81529 0.442477 7.54688C0.563154 7.34995 0.713611 7.1767 0.880954 7C0.713611 6.82331 0.563154 6.65006 0.442477 6.45313C0.278001 6.18472 0.15659 5.89204 0.0831023 5.58594C-0.00616018 5.21398 9.4498e-05 4.83017 9.4498e-05 4.38868V4.2002C9.4498e-05 3.65665 -0.000979235 3.18836 0.0303679 2.80469C0.0626789 2.40943 0.134491 2.016 0.327243 1.6377C0.614817 1.07348 1.07357 0.614727 1.63779 0.327153C2.01609 0.134401 2.40952 0.0625888 2.80478 0.0302779C3.18845 -0.00106931 3.65674 4.41365e-06 4.20029 4.41365e-06H9.7999C10.3435 4.41365e-06 10.8117 -0.00106932 11.1954 0.0302779C11.5907 0.0625888 11.9841 0.134401 12.3624 0.327153C12.9266 0.614727 13.3854 1.07348 13.6729 1.6377C13.8657 2.016 13.9375 2.40943 13.9698 2.80469C14.0012 3.18836 14.0001 3.65665 14.0001 4.2002V4.38868Z" fill="white" style="mix-blend-mode:difference"/>
<path d="M12.0001 9.61133C12.0001 9.075 11.9939 8.96914 11.9728 8.88086C11.9483 8.77885 11.9074 8.68126 11.8526 8.5918C11.8052 8.51436 11.7351 8.43523 11.3556 8.05567L11.2999 8H2.70029L2.64463 8.05567C2.26507 8.43523 2.19501 8.51436 2.14756 8.5918C2.09275 8.68126 2.05193 8.77885 2.02744 8.88086C2.00628 8.96914 2.00009 9.075 2.00009 9.61133V9.79981C2.00009 10.3764 2.00136 10.7489 2.02451 11.0322C2.04671 11.3038 2.08428 11.4047 2.10947 11.4541C2.20531 11.6421 2.35802 11.7948 2.54599 11.8906C2.59543 11.9158 2.69628 11.9534 2.96787 11.9756C3.25121 11.9987 3.62374 12 4.20029 12H9.7999C10.3765 12 10.749 11.9987 11.0323 11.9756C11.3039 11.9534 11.4048 11.9158 11.4542 11.8906C11.6422 11.7948 11.7949 11.6421 11.8907 11.4541C11.9159 11.4047 11.9535 11.3038 11.9757 11.0322C11.9988 10.7489 12.0001 10.3764 12.0001 9.79981V9.61133ZM12.0001 4.2002C12.0001 3.62365 11.9988 3.25112 11.9757 2.96778C11.9535 2.69619 11.9159 2.59534 11.8907 2.5459C11.7949 2.35793 11.6422 2.20522 11.4542 2.10938C11.4048 2.08419 11.3039 2.04662 11.0323 2.02442C10.749 2.00127 10.3765 2 9.7999 2H4.20029C3.62374 2 3.25121 2.00127 2.96787 2.02442C2.69628 2.04662 2.59543 2.08419 2.54599 2.10938C2.35802 2.20522 2.20531 2.35793 2.10947 2.5459C2.08428 2.59534 2.04671 2.69619 2.02451 2.96778C2.00136 3.25112 2.00009 3.62365 2.00009 4.2002V4.38868C2.00009 4.92501 2.00628 5.03087 2.02744 5.11914C2.05193 5.22116 2.09275 5.31875 2.14756 5.40821C2.19501 5.48565 2.26507 5.56478 2.64463 5.94434L2.70029 6H11.2999L11.3556 5.94434C11.7351 5.56478 11.8052 5.48565 11.8526 5.40821C11.9074 5.31875 11.9483 5.22116 11.9728 5.11914C11.9939 5.03087 12.0001 4.92501 12.0001 4.38868V4.2002ZM14.0001 4.38868C14.0001 4.83017 14.0063 5.21398 13.9171 5.58594C13.8436 5.89204 13.7222 6.18472 13.5577 6.45313C13.437 6.65006 13.2866 6.82331 13.1192 7C13.2866 7.1767 13.437 7.34995 13.5577 7.54688C13.7222 7.81529 13.8436 8.10797 13.9171 8.41407C14.0063 8.78603 14.0001 9.16984 14.0001 9.61133V9.79981C14.0001 10.3434 14.0012 10.8116 13.9698 11.1953C13.9375 11.5906 13.8657 11.984 13.6729 12.3623C13.3854 12.9265 12.9266 13.3853 12.3624 13.6729C11.9841 13.8656 11.5907 13.9374 11.1954 13.9697C10.8117 14.0011 10.3435 14 9.7999 14H4.20029C3.65674 14 3.18845 14.0011 2.80478 13.9697C2.40952 13.9374 2.01609 13.8656 1.63779 13.6729C1.07357 13.3853 0.614817 12.9265 0.327243 12.3623C0.134491 11.984 0.0626789 11.5906 0.0303679 11.1953C-0.000979232 10.8116 9.4498e-05 10.3434 9.4498e-05 9.79981V9.61133C9.4498e-05 9.16984 -0.0061602 8.78603 0.0831023 8.41407C0.15659 8.10797 0.278001 7.81529 0.442477 7.54688C0.563154 7.34995 0.713611 7.1767 0.880954 7C0.713611 6.82331 0.563154 6.65006 0.442477 6.45313C0.278001 6.18472 0.15659 5.89204 0.0831023 5.58594C-0.00616018 5.21398 9.4498e-05 4.83017 9.4498e-05 4.38868V4.2002C9.4498e-05 3.65665 -0.000979235 3.18836 0.0303679 2.80469C0.0626789 2.40943 0.134491 2.016 0.327243 1.6377C0.614817 1.07348 1.07357 0.614727 1.63779 0.327153C2.01609 0.134401 2.40952 0.0625888 2.80478 0.0302779C3.18845 -0.00106931 3.65674 4.41365e-06 4.20029 4.41365e-06H9.7999C10.3435 4.41365e-06 10.8117 -0.00106932 11.1954 0.0302779C11.5907 0.0625888 11.9841 0.134401 12.3624 0.327153C12.9266 0.614727 13.3854 1.07348 13.6729 1.6377C13.8657 2.016 13.9375 2.40943 13.9698 2.80469C14.0012 3.18836 14.0001 3.65665 14.0001 4.2002V4.38868Z" fill="black" style="mix-blend-mode:saturation"/>
<path d="M12.0001 9.61133C12.0001 9.075 11.9939 8.96914 11.9728 8.88086C11.9483 8.77885 11.9074 8.68126 11.8526 8.5918C11.8052 8.51436 11.7351 8.43523 11.3556 8.05567L11.2999 8H2.70029L2.64463 8.05567C2.26507 8.43523 2.19501 8.51436 2.14756 8.5918C2.09275 8.68126 2.05193 8.77885 2.02744 8.88086C2.00628 8.96914 2.00009 9.075 2.00009 9.61133V9.79981C2.00009 10.3764 2.00136 10.7489 2.02451 11.0322C2.04671 11.3038 2.08428 11.4047 2.10947 11.4541C2.20531 11.6421 2.35802 11.7948 2.54599 11.8906C2.59543 11.9158 2.69628 11.9534 2.96787 11.9756C3.25121 11.9987 3.62374 12 4.20029 12H9.7999C10.3765 12 10.749 11.9987 11.0323 11.9756C11.3039 11.9534 11.4048 11.9158 11.4542 11.8906C11.6422 11.7948 11.7949 11.6421 11.8907 11.4541C11.9159 11.4047 11.9535 11.3038 11.9757 11.0322C11.9988 10.7489 12.0001 10.3764 12.0001 9.79981V9.61133ZM12.0001 4.2002C12.0001 3.62365 11.9988 3.25112 11.9757 2.96778C11.9535 2.69619 11.9159 2.59534 11.8907 2.5459C11.7949 2.35793 11.6422 2.20522 11.4542 2.10938C11.4048 2.08419 11.3039 2.04662 11.0323 2.02442C10.749 2.00127 10.3765 2 9.7999 2H4.20029C3.62374 2 3.25121 2.00127 2.96787 2.02442C2.69628 2.04662 2.59543 2.08419 2.54599 2.10938C2.35802 2.20522 2.20531 2.35793 2.10947 2.5459C2.08428 2.59534 2.04671 2.69619 2.02451 2.96778C2.00136 3.25112 2.00009 3.62365 2.00009 4.2002V4.38868C2.00009 4.92501 2.00628 5.03087 2.02744 5.11914C2.05193 5.22116 2.09275 5.31875 2.14756 5.40821C2.19501 5.48565 2.26507 5.56478 2.64463 5.94434L2.70029 6H11.2999L11.3556 5.94434C11.7351 5.56478 11.8052 5.48565 11.8526 5.40821C11.9074 5.31875 11.9483 5.22116 11.9728 5.11914C11.9939 5.03087 12.0001 4.92501 12.0001 4.38868V4.2002ZM14.0001 4.38868C14.0001 4.83017 14.0063 5.21398 13.9171 5.58594C13.8436 5.89204 13.7222 6.18472 13.5577 6.45313C13.437 6.65006 13.2866 6.82331 13.1192 7C13.2866 7.1767 13.437 7.34995 13.5577 7.54688C13.7222 7.81529 13.8436 8.10797 13.9171 8.41407C14.0063 8.78603 14.0001 9.16984 14.0001 9.61133V9.79981C14.0001 10.3434 14.0012 10.8116 13.9698 11.1953C13.9375 11.5906 13.8657 11.984 13.6729 12.3623C13.3854 12.9265 12.9266 13.3853 12.3624 13.6729C11.9841 13.8656 11.5907 13.9374 11.1954 13.9697C10.8117 14.0011 10.3435 14 9.7999 14H4.20029C3.65674 14 3.18845 14.0011 2.80478 13.9697C2.40952 13.9374 2.01609 13.8656 1.63779 13.6729C1.07357 13.3853 0.614817 12.9265 0.327243 12.3623C0.134491 11.984 0.0626789 11.5906 0.0303679 11.1953C-0.000979232 10.8116 9.4498e-05 10.3434 9.4498e-05 9.79981V9.61133C9.4498e-05 9.16984 -0.0061602 8.78603 0.0831023 8.41407C0.15659 8.10797 0.278001 7.81529 0.442477 7.54688C0.563154 7.34995 0.713611 7.1767 0.880954 7C0.713611 6.82331 0.563154 6.65006 0.442477 6.45313C0.278001 6.18472 0.15659 5.89204 0.0831023 5.58594C-0.00616018 5.21398 9.4498e-05 4.83017 9.4498e-05 4.38868V4.2002C9.4498e-05 3.65665 -0.000979235 3.18836 0.0303679 2.80469C0.0626789 2.40943 0.134491 2.016 0.327243 1.6377C0.614817 1.07348 1.07357 0.614727 1.63779 0.327153C2.01609 0.134401 2.40952 0.0625888 2.80478 0.0302779C3.18845 -0.00106931 3.65674 4.41365e-06 4.20029 4.41365e-06H9.7999C10.3435 4.41365e-06 10.8117 -0.00106932 11.1954 0.0302779C11.5907 0.0625888 11.9841 0.134401 12.3624 0.327153C12.9266 0.614727 13.3854 1.07348 13.6729 1.6377C13.8657 2.016 13.9375 2.40943 13.9698 2.80469C14.0012 3.18836 14.0001 3.65665 14.0001 4.2002V4.38868Z" fill="black" style="mix-blend-mode:color-burn"/>
</svg>
