<svg width="14" height="14" viewBox="0 0 14 14" fill="none" xmlns="http://www.w3.org/2000/svg">
<path d="M14 4.2002V9.79981C14 10.3434 14.0011 10.8116 13.9697 11.1953C13.9374 11.5906 13.8656 11.984 13.6728 12.3623C13.3853 12.9265 12.9265 13.3853 12.3623 13.6729C11.984 13.8656 11.5906 13.9374 11.1953 13.9697C10.8116 14.0011 10.3434 14 9.7998 14H0.999995C0.44771 14 -4.76837e-06 13.5523 -4.76837e-06 13C-4.76837e-06 12.4477 0.44771 12 0.999995 12H9.7998C10.3764 12 10.7489 11.9987 11.0322 11.9756C11.3038 11.9534 11.4047 11.9158 11.4541 11.8906C11.6421 11.7948 11.7948 11.6421 11.8906 11.4541C11.9158 11.4047 11.9534 11.3038 11.9756 11.0322C11.9987 10.7489 12 10.3764 12 9.79981V8.00001H4C3.54786 8.00001 3.15868 8.0004 2.83789 7.97852C2.50806 7.95602 2.17749 7.9065 1.85156 7.77149C1.11678 7.46702 0.532984 6.88322 0.228511 6.14844C0.0935069 5.82252 0.0439837 5.49194 0.0214796 5.16212C-0.000393393 4.84132 -4.76844e-06 4.45214 -4.76837e-06 4.00001C-4.76837e-06 3.54787 -0.000393381 3.15869 0.0214796 2.8379C0.0439837 2.50807 0.0935069 2.1775 0.228511 1.85157C0.532984 1.11679 1.11678 0.532995 1.85156 0.228522C2.17749 0.0935184 2.50806 0.0439951 2.83789 0.0214911C3.15868 -0.000381937 3.54786 6.67572e-06 4 6.67572e-06H9.7998C10.3434 6.67572e-06 10.8116 -0.00106705 11.1953 0.0302801C11.5906 0.0625911 11.984 0.134403 12.3623 0.327155C12.9265 0.61473 13.3853 1.07348 13.6728 1.6377C13.8656 2.016 13.9374 2.40944 13.9697 2.80469C14.0011 3.18837 14 3.65665 14 4.2002ZM12 4.2002C12 3.62365 11.9987 3.25112 11.9756 2.96778C11.9534 2.69619 11.9158 2.59534 11.8906 2.54591C11.7948 2.35793 11.6421 2.20522 11.4541 2.10938C11.4047 2.08419 11.3038 2.04662 11.0322 2.02442C10.7489 2.00127 10.3764 2.00001 9.7998 2.00001H4C3.52037 2.00001 3.21061 2.00044 2.97363 2.01661C2.74572 2.03217 2.65879 2.05894 2.61718 2.07618C2.37226 2.17767 2.17766 2.37227 2.07617 2.61719C2.05893 2.6588 2.03215 2.74573 2.0166 2.97364C2.00043 3.21062 2 3.52038 2 4.00001C2 4.47963 2.00043 4.78939 2.0166 5.02637C2.03215 5.25428 2.05893 5.34121 2.07617 5.38282C2.17766 5.62774 2.37226 5.82234 2.61718 5.92383C2.65879 5.94107 2.74572 5.96785 2.97363 5.98341C3.21061 5.99957 3.52037 6.00001 4 6.00001H12V4.2002Z" fill="black" style="mix-blend-mode:overlay"/>
<path d="M14 4.2002V9.79981C14 10.3434 14.0011 10.8116 13.9697 11.1953C13.9374 11.5906 13.8656 11.984 13.6728 12.3623C13.3853 12.9265 12.9265 13.3853 12.3623 13.6729C11.984 13.8656 11.5906 13.9374 11.1953 13.9697C10.8116 14.0011 10.3434 14 9.7998 14H0.999995C0.44771 14 -4.76837e-06 13.5523 -4.76837e-06 13C-4.76837e-06 12.4477 0.44771 12 0.999995 12H9.7998C10.3764 12 10.7489 11.9987 11.0322 11.9756C11.3038 11.9534 11.4047 11.9158 11.4541 11.8906C11.6421 11.7948 11.7948 11.6421 11.8906 11.4541C11.9158 11.4047 11.9534 11.3038 11.9756 11.0322C11.9987 10.7489 12 10.3764 12 9.79981V8.00001H4C3.54786 8.00001 3.15868 8.0004 2.83789 7.97852C2.50806 7.95602 2.17749 7.9065 1.85156 7.77149C1.11678 7.46702 0.532984 6.88322 0.228511 6.14844C0.0935069 5.82252 0.0439837 5.49194 0.0214796 5.16212C-0.000393393 4.84132 -4.76844e-06 4.45214 -4.76837e-06 4.00001C-4.76837e-06 3.54787 -0.000393381 3.15869 0.0214796 2.8379C0.0439837 2.50807 0.0935069 2.1775 0.228511 1.85157C0.532984 1.11679 1.11678 0.532995 1.85156 0.228522C2.17749 0.0935184 2.50806 0.0439951 2.83789 0.0214911C3.15868 -0.000381937 3.54786 6.67572e-06 4 6.67572e-06H9.7998C10.3434 6.67572e-06 10.8116 -0.00106705 11.1953 0.0302801C11.5906 0.0625911 11.984 0.134403 12.3623 0.327155C12.9265 0.61473 13.3853 1.07348 13.6728 1.6377C13.8656 2.016 13.9374 2.40944 13.9697 2.80469C14.0011 3.18837 14 3.65665 14 4.2002ZM12 4.2002C12 3.62365 11.9987 3.25112 11.9756 2.96778C11.9534 2.69619 11.9158 2.59534 11.8906 2.54591C11.7948 2.35793 11.6421 2.20522 11.4541 2.10938C11.4047 2.08419 11.3038 2.04662 11.0322 2.02442C10.7489 2.00127 10.3764 2.00001 9.7998 2.00001H4C3.52037 2.00001 3.21061 2.00044 2.97363 2.01661C2.74572 2.03217 2.65879 2.05894 2.61718 2.07618C2.37226 2.17767 2.17766 2.37227 2.07617 2.61719C2.05893 2.6588 2.03215 2.74573 2.0166 2.97364C2.00043 3.21062 2 3.52038 2 4.00001C2 4.47963 2.00043 4.78939 2.0166 5.02637C2.03215 5.25428 2.05893 5.34121 2.07617 5.38282C2.17766 5.62774 2.37226 5.82234 2.61718 5.92383C2.65879 5.94107 2.74572 5.96785 2.97363 5.98341C3.21061 5.99957 3.52037 6.00001 4 6.00001H12V4.2002Z" fill="black" fill-opacity="0.983"/>
<path d="M14 4.2002V9.79981C14 10.3434 14.0011 10.8116 13.9697 11.1953C13.9374 11.5906 13.8656 11.984 13.6728 12.3623C13.3853 12.9265 12.9265 13.3853 12.3623 13.6729C11.984 13.8656 11.5906 13.9374 11.1953 13.9697C10.8116 14.0011 10.3434 14 9.7998 14H0.999995C0.44771 14 -4.76837e-06 13.5523 -4.76837e-06 13C-4.76837e-06 12.4477 0.44771 12 0.999995 12H9.7998C10.3764 12 10.7489 11.9987 11.0322 11.9756C11.3038 11.9534 11.4047 11.9158 11.4541 11.8906C11.6421 11.7948 11.7948 11.6421 11.8906 11.4541C11.9158 11.4047 11.9534 11.3038 11.9756 11.0322C11.9987 10.7489 12 10.3764 12 9.79981V8.00001H4C3.54786 8.00001 3.15868 8.0004 2.83789 7.97852C2.50806 7.95602 2.17749 7.9065 1.85156 7.77149C1.11678 7.46702 0.532984 6.88322 0.228511 6.14844C0.0935069 5.82252 0.0439837 5.49194 0.0214796 5.16212C-0.000393393 4.84132 -4.76844e-06 4.45214 -4.76837e-06 4.00001C-4.76837e-06 3.54787 -0.000393381 3.15869 0.0214796 2.8379C0.0439837 2.50807 0.0935069 2.1775 0.228511 1.85157C0.532984 1.11679 1.11678 0.532995 1.85156 0.228522C2.17749 0.0935184 2.50806 0.0439951 2.83789 0.0214911C3.15868 -0.000381937 3.54786 6.67572e-06 4 6.67572e-06H9.7998C10.3434 6.67572e-06 10.8116 -0.00106705 11.1953 0.0302801C11.5906 0.0625911 11.984 0.134403 12.3623 0.327155C12.9265 0.61473 13.3853 1.07348 13.6728 1.6377C13.8656 2.016 13.9374 2.40944 13.9697 2.80469C14.0011 3.18837 14 3.65665 14 4.2002ZM12 4.2002C12 3.62365 11.9987 3.25112 11.9756 2.96778C11.9534 2.69619 11.9158 2.59534 11.8906 2.54591C11.7948 2.35793 11.6421 2.20522 11.4541 2.10938C11.4047 2.08419 11.3038 2.04662 11.0322 2.02442C10.7489 2.00127 10.3764 2.00001 9.7998 2.00001H4C3.52037 2.00001 3.21061 2.00044 2.97363 2.01661C2.74572 2.03217 2.65879 2.05894 2.61718 2.07618C2.37226 2.17767 2.17766 2.37227 2.07617 2.61719C2.05893 2.6588 2.03215 2.74573 2.0166 2.97364C2.00043 3.21062 2 3.52038 2 4.00001C2 4.47963 2.00043 4.78939 2.0166 5.02637C2.03215 5.25428 2.05893 5.34121 2.07617 5.38282C2.17766 5.62774 2.37226 5.82234 2.61718 5.92383C2.65879 5.94107 2.74572 5.96785 2.97363 5.98341C3.21061 5.99957 3.52037 6.00001 4 6.00001H12V4.2002Z" fill="white" style="mix-blend-mode:difference"/>
<path d="M14 4.2002V9.79981C14 10.3434 14.0011 10.8116 13.9697 11.1953C13.9374 11.5906 13.8656 11.984 13.6728 12.3623C13.3853 12.9265 12.9265 13.3853 12.3623 13.6729C11.984 13.8656 11.5906 13.9374 11.1953 13.9697C10.8116 14.0011 10.3434 14 9.7998 14H0.999995C0.44771 14 -4.76837e-06 13.5523 -4.76837e-06 13C-4.76837e-06 12.4477 0.44771 12 0.999995 12H9.7998C10.3764 12 10.7489 11.9987 11.0322 11.9756C11.3038 11.9534 11.4047 11.9158 11.4541 11.8906C11.6421 11.7948 11.7948 11.6421 11.8906 11.4541C11.9158 11.4047 11.9534 11.3038 11.9756 11.0322C11.9987 10.7489 12 10.3764 12 9.79981V8.00001H4C3.54786 8.00001 3.15868 8.0004 2.83789 7.97852C2.50806 7.95602 2.17749 7.9065 1.85156 7.77149C1.11678 7.46702 0.532984 6.88322 0.228511 6.14844C0.0935069 5.82252 0.0439837 5.49194 0.0214796 5.16212C-0.000393393 4.84132 -4.76844e-06 4.45214 -4.76837e-06 4.00001C-4.76837e-06 3.54787 -0.000393381 3.15869 0.0214796 2.8379C0.0439837 2.50807 0.0935069 2.1775 0.228511 1.85157C0.532984 1.11679 1.11678 0.532995 1.85156 0.228522C2.17749 0.0935184 2.50806 0.0439951 2.83789 0.0214911C3.15868 -0.000381937 3.54786 6.67572e-06 4 6.67572e-06H9.7998C10.3434 6.67572e-06 10.8116 -0.00106705 11.1953 0.0302801C11.5906 0.0625911 11.984 0.134403 12.3623 0.327155C12.9265 0.61473 13.3853 1.07348 13.6728 1.6377C13.8656 2.016 13.9374 2.40944 13.9697 2.80469C14.0011 3.18837 14 3.65665 14 4.2002ZM12 4.2002C12 3.62365 11.9987 3.25112 11.9756 2.96778C11.9534 2.69619 11.9158 2.59534 11.8906 2.54591C11.7948 2.35793 11.6421 2.20522 11.4541 2.10938C11.4047 2.08419 11.3038 2.04662 11.0322 2.02442C10.7489 2.00127 10.3764 2.00001 9.7998 2.00001H4C3.52037 2.00001 3.21061 2.00044 2.97363 2.01661C2.74572 2.03217 2.65879 2.05894 2.61718 2.07618C2.37226 2.17767 2.17766 2.37227 2.07617 2.61719C2.05893 2.6588 2.03215 2.74573 2.0166 2.97364C2.00043 3.21062 2 3.52038 2 4.00001C2 4.47963 2.00043 4.78939 2.0166 5.02637C2.03215 5.25428 2.05893 5.34121 2.07617 5.38282C2.17766 5.62774 2.37226 5.82234 2.61718 5.92383C2.65879 5.94107 2.74572 5.96785 2.97363 5.98341C3.21061 5.99957 3.52037 6.00001 4 6.00001H12V4.2002Z" fill="black" style="mix-blend-mode:saturation"/>
<path d="M14 4.2002V9.79981C14 10.3434 14.0011 10.8116 13.9697 11.1953C13.9374 11.5906 13.8656 11.984 13.6728 12.3623C13.3853 12.9265 12.9265 13.3853 12.3623 13.6729C11.984 13.8656 11.5906 13.9374 11.1953 13.9697C10.8116 14.0011 10.3434 14 9.7998 14H0.999995C0.44771 14 -4.76837e-06 13.5523 -4.76837e-06 13C-4.76837e-06 12.4477 0.44771 12 0.999995 12H9.7998C10.3764 12 10.7489 11.9987 11.0322 11.9756C11.3038 11.9534 11.4047 11.9158 11.4541 11.8906C11.6421 11.7948 11.7948 11.6421 11.8906 11.4541C11.9158 11.4047 11.9534 11.3038 11.9756 11.0322C11.9987 10.7489 12 10.3764 12 9.79981V8.00001H4C3.54786 8.00001 3.15868 8.0004 2.83789 7.97852C2.50806 7.95602 2.17749 7.9065 1.85156 7.77149C1.11678 7.46702 0.532984 6.88322 0.228511 6.14844C0.0935069 5.82252 0.0439837 5.49194 0.0214796 5.16212C-0.000393393 4.84132 -4.76844e-06 4.45214 -4.76837e-06 4.00001C-4.76837e-06 3.54787 -0.000393381 3.15869 0.0214796 2.8379C0.0439837 2.50807 0.0935069 2.1775 0.228511 1.85157C0.532984 1.11679 1.11678 0.532995 1.85156 0.228522C2.17749 0.0935184 2.50806 0.0439951 2.83789 0.0214911C3.15868 -0.000381937 3.54786 6.67572e-06 4 6.67572e-06H9.7998C10.3434 6.67572e-06 10.8116 -0.00106705 11.1953 0.0302801C11.5906 0.0625911 11.984 0.134403 12.3623 0.327155C12.9265 0.61473 13.3853 1.07348 13.6728 1.6377C13.8656 2.016 13.9374 2.40944 13.9697 2.80469C14.0011 3.18837 14 3.65665 14 4.2002ZM12 4.2002C12 3.62365 11.9987 3.25112 11.9756 2.96778C11.9534 2.69619 11.9158 2.59534 11.8906 2.54591C11.7948 2.35793 11.6421 2.20522 11.4541 2.10938C11.4047 2.08419 11.3038 2.04662 11.0322 2.02442C10.7489 2.00127 10.3764 2.00001 9.7998 2.00001H4C3.52037 2.00001 3.21061 2.00044 2.97363 2.01661C2.74572 2.03217 2.65879 2.05894 2.61718 2.07618C2.37226 2.17767 2.17766 2.37227 2.07617 2.61719C2.05893 2.6588 2.03215 2.74573 2.0166 2.97364C2.00043 3.21062 2 3.52038 2 4.00001C2 4.47963 2.00043 4.78939 2.0166 5.02637C2.03215 5.25428 2.05893 5.34121 2.07617 5.38282C2.17766 5.62774 2.37226 5.82234 2.61718 5.92383C2.65879 5.94107 2.74572 5.96785 2.97363 5.98341C3.21061 5.99957 3.52037 6.00001 4 6.00001H12V4.2002Z" fill="black" style="mix-blend-mode:color-burn"/>
</svg>
