<svg width="14" height="14" viewBox="0 0 14 14" fill="none" xmlns="http://www.w3.org/2000/svg">
<path d="M7.00032 0.0400391C8.28898 0.0400391 9.08319 1.03411 9.66341 2.07812C10.27 3.16966 10.8888 4.77424 11.6634 6.77539L13.9329 12.6387C14.1323 13.1536 13.8765 13.7331 13.3616 13.9326C12.8467 14.132 12.2672 13.8762 12.0677 13.3613L10.3734 8.98535H3.62727L1.93294 13.3613C1.73347 13.8762 1.15394 14.132 0.638991 13.9326C0.124131 13.7331 -0.131634 13.1536 0.0677024 12.6387L2.33723 6.77539C3.11187 4.77424 3.73067 3.16966 4.33723 2.07812C4.91745 1.03411 5.71166 0.0400391 7.00032 0.0400391ZM7.00032 2.04004C6.91873 2.04004 6.63421 2.06204 6.08528 3.0498C5.60702 3.91045 5.09689 5.19307 4.40169 6.98535H9.59895C8.90375 5.19307 8.39362 3.91045 7.91536 3.0498C7.36643 2.06204 7.08191 2.04004 7.00032 2.04004Z" fill="black" style="mix-blend-mode:overlay"/>
<path d="M7.00032 0.0400391C8.28898 0.0400391 9.08319 1.03411 9.66341 2.07812C10.27 3.16966 10.8888 4.77424 11.6634 6.77539L13.9329 12.6387C14.1323 13.1536 13.8765 13.7331 13.3616 13.9326C12.8467 14.132 12.2672 13.8762 12.0677 13.3613L10.3734 8.98535H3.62727L1.93294 13.3613C1.73347 13.8762 1.15394 14.132 0.638991 13.9326C0.124131 13.7331 -0.131634 13.1536 0.0677024 12.6387L2.33723 6.77539C3.11187 4.77424 3.73067 3.16966 4.33723 2.07812C4.91745 1.03411 5.71166 0.0400391 7.00032 0.0400391ZM7.00032 2.04004C6.91873 2.04004 6.63421 2.06204 6.08528 3.0498C5.60702 3.91045 5.09689 5.19307 4.40169 6.98535H9.59895C8.90375 5.19307 8.39362 3.91045 7.91536 3.0498C7.36643 2.06204 7.08191 2.04004 7.00032 2.04004Z" fill="black" fill-opacity="0.983"/>
<path d="M7.00032 0.0400391C8.28898 0.0400391 9.08319 1.03411 9.66341 2.07812C10.27 3.16966 10.8888 4.77424 11.6634 6.77539L13.9329 12.6387C14.1323 13.1536 13.8765 13.7331 13.3616 13.9326C12.8467 14.132 12.2672 13.8762 12.0677 13.3613L10.3734 8.98535H3.62727L1.93294 13.3613C1.73347 13.8762 1.15394 14.132 0.638991 13.9326C0.124131 13.7331 -0.131634 13.1536 0.0677024 12.6387L2.33723 6.77539C3.11187 4.77424 3.73067 3.16966 4.33723 2.07812C4.91745 1.03411 5.71166 0.0400391 7.00032 0.0400391ZM7.00032 2.04004C6.91873 2.04004 6.63421 2.06204 6.08528 3.0498C5.60702 3.91045 5.09689 5.19307 4.40169 6.98535H9.59895C8.90375 5.19307 8.39362 3.91045 7.91536 3.0498C7.36643 2.06204 7.08191 2.04004 7.00032 2.04004Z" fill="white" style="mix-blend-mode:difference"/>
<path d="M7.00032 0.0400391C8.28898 0.0400391 9.08319 1.03411 9.66341 2.07812C10.27 3.16966 10.8888 4.77424 11.6634 6.77539L13.9329 12.6387C14.1323 13.1536 13.8765 13.7331 13.3616 13.9326C12.8467 14.132 12.2672 13.8762 12.0677 13.3613L10.3734 8.98535H3.62727L1.93294 13.3613C1.73347 13.8762 1.15394 14.132 0.638991 13.9326C0.124131 13.7331 -0.131634 13.1536 0.0677024 12.6387L2.33723 6.77539C3.11187 4.77424 3.73067 3.16966 4.33723 2.07812C4.91745 1.03411 5.71166 0.0400391 7.00032 0.0400391ZM7.00032 2.04004C6.91873 2.04004 6.63421 2.06204 6.08528 3.0498C5.60702 3.91045 5.09689 5.19307 4.40169 6.98535H9.59895C8.90375 5.19307 8.39362 3.91045 7.91536 3.0498C7.36643 2.06204 7.08191 2.04004 7.00032 2.04004Z" fill="black" style="mix-blend-mode:saturation"/>
<path d="M7.00032 0.0400391C8.28898 0.0400391 9.08319 1.03411 9.66341 2.07812C10.27 3.16966 10.8888 4.77424 11.6634 6.77539L13.9329 12.6387C14.1323 13.1536 13.8765 13.7331 13.3616 13.9326C12.8467 14.132 12.2672 13.8762 12.0677 13.3613L10.3734 8.98535H3.62727L1.93294 13.3613C1.73347 13.8762 1.15394 14.132 0.638991 13.9326C0.124131 13.7331 -0.131634 13.1536 0.0677024 12.6387L2.33723 6.77539C3.11187 4.77424 3.73067 3.16966 4.33723 2.07812C4.91745 1.03411 5.71166 0.0400391 7.00032 0.0400391ZM7.00032 2.04004C6.91873 2.04004 6.63421 2.06204 6.08528 3.0498C5.60702 3.91045 5.09689 5.19307 4.40169 6.98535H9.59895C8.90375 5.19307 8.39362 3.91045 7.91536 3.0498C7.36643 2.06204 7.08191 2.04004 7.00032 2.04004Z" fill="black" style="mix-blend-mode:color-burn"/>
</svg>
