<svg width="14" height="14" viewBox="0 0 14 14" fill="none" xmlns="http://www.w3.org/2000/svg">
<path d="M12 4.00001C12 2.89544 11.1046 2.00001 10 2.00001H5.00001C4.02893 2.00001 3.40099 2.00228 2.93848 2.06446C2.50493 2.12278 2.36908 2.21686 2.29297 2.29297C2.21686 2.36908 2.12278 2.50493 2.06446 2.93848C2.00228 3.40099 2.00001 4.02893 2.00001 5.00001V6.00001H10C11.1046 6.00001 12 5.10458 12 4.00001ZM2.00001 9.00001C2.00001 9.97108 2.00228 10.599 2.06446 11.0615C2.12278 11.4951 2.21686 11.6309 2.29297 11.707C2.36908 11.7831 2.50494 11.8772 2.93848 11.9356C3.40099 11.9977 4.02893 12 5.00001 12H10C11.1046 12 12 11.1046 12 10C12 8.89544 11.1046 8.00001 10 8.00001H2.00001V9.00001ZM14 4.00001C14 5.19531 13.4747 6.26703 12.6436 7.00001C13.4747 7.73298 14 8.8047 14 10C14 12.2091 12.2091 14 10 14H5.00001C4.08547 14 3.29863 14.0022 2.67188 13.918C2.01648 13.8298 1.38849 13.6307 0.878912 13.1211C0.369331 12.6115 0.17019 11.9835 0.0820369 11.3281C-0.00222736 10.7014 5.65705e-06 9.91454 5.65705e-06 9.00001V5.00001C5.65681e-06 4.08547 -0.00222735 3.29863 0.0820369 2.67188C0.17019 2.01648 0.369331 1.38849 0.878912 0.878912C1.38849 0.369331 2.01648 0.17019 2.67188 0.0820369C3.29863 -0.00222735 4.08547 5.65691e-06 5.00001 5.65701e-06H10C12.2091 5.65701e-06 14 1.79087 14 4.00001Z" fill="black" style="mix-blend-mode:overlay"/>
<path d="M12 4.00001C12 2.89544 11.1046 2.00001 10 2.00001H5.00001C4.02893 2.00001 3.40099 2.00228 2.93848 2.06446C2.50493 2.12278 2.36908 2.21686 2.29297 2.29297C2.21686 2.36908 2.12278 2.50493 2.06446 2.93848C2.00228 3.40099 2.00001 4.02893 2.00001 5.00001V6.00001H10C11.1046 6.00001 12 5.10458 12 4.00001ZM2.00001 9.00001C2.00001 9.97108 2.00228 10.599 2.06446 11.0615C2.12278 11.4951 2.21686 11.6309 2.29297 11.707C2.36908 11.7831 2.50494 11.8772 2.93848 11.9356C3.40099 11.9977 4.02893 12 5.00001 12H10C11.1046 12 12 11.1046 12 10C12 8.89544 11.1046 8.00001 10 8.00001H2.00001V9.00001ZM14 4.00001C14 5.19531 13.4747 6.26703 12.6436 7.00001C13.4747 7.73298 14 8.8047 14 10C14 12.2091 12.2091 14 10 14H5.00001C4.08547 14 3.29863 14.0022 2.67188 13.918C2.01648 13.8298 1.38849 13.6307 0.878912 13.1211C0.369331 12.6115 0.17019 11.9835 0.0820369 11.3281C-0.00222736 10.7014 5.65705e-06 9.91454 5.65705e-06 9.00001V5.00001C5.65681e-06 4.08547 -0.00222735 3.29863 0.0820369 2.67188C0.17019 2.01648 0.369331 1.38849 0.878912 0.878912C1.38849 0.369331 2.01648 0.17019 2.67188 0.0820369C3.29863 -0.00222735 4.08547 5.65691e-06 5.00001 5.65701e-06H10C12.2091 5.65701e-06 14 1.79087 14 4.00001Z" fill="black" fill-opacity="0.983"/>
<path d="M12 4.00001C12 2.89544 11.1046 2.00001 10 2.00001H5.00001C4.02893 2.00001 3.40099 2.00228 2.93848 2.06446C2.50493 2.12278 2.36908 2.21686 2.29297 2.29297C2.21686 2.36908 2.12278 2.50493 2.06446 2.93848C2.00228 3.40099 2.00001 4.02893 2.00001 5.00001V6.00001H10C11.1046 6.00001 12 5.10458 12 4.00001ZM2.00001 9.00001C2.00001 9.97108 2.00228 10.599 2.06446 11.0615C2.12278 11.4951 2.21686 11.6309 2.29297 11.707C2.36908 11.7831 2.50494 11.8772 2.93848 11.9356C3.40099 11.9977 4.02893 12 5.00001 12H10C11.1046 12 12 11.1046 12 10C12 8.89544 11.1046 8.00001 10 8.00001H2.00001V9.00001ZM14 4.00001C14 5.19531 13.4747 6.26703 12.6436 7.00001C13.4747 7.73298 14 8.8047 14 10C14 12.2091 12.2091 14 10 14H5.00001C4.08547 14 3.29863 14.0022 2.67188 13.918C2.01648 13.8298 1.38849 13.6307 0.878912 13.1211C0.369331 12.6115 0.17019 11.9835 0.0820369 11.3281C-0.00222736 10.7014 5.65705e-06 9.91454 5.65705e-06 9.00001V5.00001C5.65681e-06 4.08547 -0.00222735 3.29863 0.0820369 2.67188C0.17019 2.01648 0.369331 1.38849 0.878912 0.878912C1.38849 0.369331 2.01648 0.17019 2.67188 0.0820369C3.29863 -0.00222735 4.08547 5.65691e-06 5.00001 5.65701e-06H10C12.2091 5.65701e-06 14 1.79087 14 4.00001Z" fill="white" style="mix-blend-mode:difference"/>
<path d="M12 4.00001C12 2.89544 11.1046 2.00001 10 2.00001H5.00001C4.02893 2.00001 3.40099 2.00228 2.93848 2.06446C2.50493 2.12278 2.36908 2.21686 2.29297 2.29297C2.21686 2.36908 2.12278 2.50493 2.06446 2.93848C2.00228 3.40099 2.00001 4.02893 2.00001 5.00001V6.00001H10C11.1046 6.00001 12 5.10458 12 4.00001ZM2.00001 9.00001C2.00001 9.97108 2.00228 10.599 2.06446 11.0615C2.12278 11.4951 2.21686 11.6309 2.29297 11.707C2.36908 11.7831 2.50494 11.8772 2.93848 11.9356C3.40099 11.9977 4.02893 12 5.00001 12H10C11.1046 12 12 11.1046 12 10C12 8.89544 11.1046 8.00001 10 8.00001H2.00001V9.00001ZM14 4.00001C14 5.19531 13.4747 6.26703 12.6436 7.00001C13.4747 7.73298 14 8.8047 14 10C14 12.2091 12.2091 14 10 14H5.00001C4.08547 14 3.29863 14.0022 2.67188 13.918C2.01648 13.8298 1.38849 13.6307 0.878912 13.1211C0.369331 12.6115 0.17019 11.9835 0.0820369 11.3281C-0.00222736 10.7014 5.65705e-06 9.91454 5.65705e-06 9.00001V5.00001C5.65681e-06 4.08547 -0.00222735 3.29863 0.0820369 2.67188C0.17019 2.01648 0.369331 1.38849 0.878912 0.878912C1.38849 0.369331 2.01648 0.17019 2.67188 0.0820369C3.29863 -0.00222735 4.08547 5.65691e-06 5.00001 5.65701e-06H10C12.2091 5.65701e-06 14 1.79087 14 4.00001Z" fill="black" style="mix-blend-mode:saturation"/>
<path d="M12 4.00001C12 2.89544 11.1046 2.00001 10 2.00001H5.00001C4.02893 2.00001 3.40099 2.00228 2.93848 2.06446C2.50493 2.12278 2.36908 2.21686 2.29297 2.29297C2.21686 2.36908 2.12278 2.50493 2.06446 2.93848C2.00228 3.40099 2.00001 4.02893 2.00001 5.00001V6.00001H10C11.1046 6.00001 12 5.10458 12 4.00001ZM2.00001 9.00001C2.00001 9.97108 2.00228 10.599 2.06446 11.0615C2.12278 11.4951 2.21686 11.6309 2.29297 11.707C2.36908 11.7831 2.50494 11.8772 2.93848 11.9356C3.40099 11.9977 4.02893 12 5.00001 12H10C11.1046 12 12 11.1046 12 10C12 8.89544 11.1046 8.00001 10 8.00001H2.00001V9.00001ZM14 4.00001C14 5.19531 13.4747 6.26703 12.6436 7.00001C13.4747 7.73298 14 8.8047 14 10C14 12.2091 12.2091 14 10 14H5.00001C4.08547 14 3.29863 14.0022 2.67188 13.918C2.01648 13.8298 1.38849 13.6307 0.878912 13.1211C0.369331 12.6115 0.17019 11.9835 0.0820369 11.3281C-0.00222736 10.7014 5.65705e-06 9.91454 5.65705e-06 9.00001V5.00001C5.65681e-06 4.08547 -0.00222735 3.29863 0.0820369 2.67188C0.17019 2.01648 0.369331 1.38849 0.878912 0.878912C1.38849 0.369331 2.01648 0.17019 2.67188 0.0820369C3.29863 -0.00222735 4.08547 5.65691e-06 5.00001 5.65701e-06H10C12.2091 5.65701e-06 14 1.79087 14 4.00001Z" fill="black" style="mix-blend-mode:color-burn"/>
</svg>
