<svg width="14" height="14" viewBox="0 0 14 14" fill="none" xmlns="http://www.w3.org/2000/svg">
<path d="M0 7C3.22139e-08 3.13401 3.13401 3.22128e-08 7 0H13L13.1025 0.00488281C13.6067 0.0562144 14 0.482323 14 1C14 1.51768 13.6067 1.94379 13.1025 1.99512L13 2H7C4.23858 2 2 4.23858 2 7C2 9.76142 4.23858 12 7 12H13C13.5523 12 14 12.4477 14 13C14 13.5523 13.5523 14 13 14H7C3.13401 14 0 10.866 0 7Z" fill="black" style="mix-blend-mode:overlay"/>
<path d="M0 7C3.22139e-08 3.13401 3.13401 3.22128e-08 7 0H13L13.1025 0.00488281C13.6067 0.0562144 14 0.482323 14 1C14 1.51768 13.6067 1.94379 13.1025 1.99512L13 2H7C4.23858 2 2 4.23858 2 7C2 9.76142 4.23858 12 7 12H13C13.5523 12 14 12.4477 14 13C14 13.5523 13.5523 14 13 14H7C3.13401 14 0 10.866 0 7Z" fill="black" fill-opacity="0.983"/>
<path d="M0 7C3.22139e-08 3.13401 3.13401 3.22128e-08 7 0H13L13.1025 0.00488281C13.6067 0.0562144 14 0.482323 14 1C14 1.51768 13.6067 1.94379 13.1025 1.99512L13 2H7C4.23858 2 2 4.23858 2 7C2 9.76142 4.23858 12 7 12H13C13.5523 12 14 12.4477 14 13C14 13.5523 13.5523 14 13 14H7C3.13401 14 0 10.866 0 7Z" fill="white" style="mix-blend-mode:difference"/>
<path d="M0 7C3.22139e-08 3.13401 3.13401 3.22128e-08 7 0H13L13.1025 0.00488281C13.6067 0.0562144 14 0.482323 14 1C14 1.51768 13.6067 1.94379 13.1025 1.99512L13 2H7C4.23858 2 2 4.23858 2 7C2 9.76142 4.23858 12 7 12H13C13.5523 12 14 12.4477 14 13C14 13.5523 13.5523 14 13 14H7C3.13401 14 0 10.866 0 7Z" fill="black" style="mix-blend-mode:saturation"/>
<path d="M0 7C3.22139e-08 3.13401 3.13401 3.22128e-08 7 0H13L13.1025 0.00488281C13.6067 0.0562144 14 0.482323 14 1C14 1.51768 13.6067 1.94379 13.1025 1.99512L13 2H7C4.23858 2 2 4.23858 2 7C2 9.76142 4.23858 12 7 12H13C13.5523 12 14 12.4477 14 13C14 13.5523 13.5523 14 13 14H7C3.13401 14 0 10.866 0 7Z" fill="black" style="mix-blend-mode:color-burn"/>
</svg>
