<svg width="2" height="12" viewBox="0 0 2 12" fill="none" xmlns="http://www.w3.org/2000/svg">
<path d="M2 2C2 2.55228 1.55228 3 1 3C0.447715 3 0 2.55228 0 2C0 1.44772 0.447715 1 1 1C1.55228 1 2 1.44772 2 2Z" fill="black" style="mix-blend-mode:overlay"/>
<path d="M2 2C2 2.55228 1.55228 3 1 3C0.447715 3 0 2.55228 0 2C0 1.44772 0.447715 1 1 1C1.55228 1 2 1.44772 2 2Z" fill="black" fill-opacity="0.983"/>
<path d="M2 2C2 2.55228 1.55228 3 1 3C0.447715 3 0 2.55228 0 2C0 1.44772 0.447715 1 1 1C1.55228 1 2 1.44772 2 2Z" fill="white" style="mix-blend-mode:difference"/>
<path d="M2 2C2 2.55228 1.55228 3 1 3C0.447715 3 0 2.55228 0 2C0 1.44772 0.447715 1 1 1C1.55228 1 2 1.44772 2 2Z" fill="black" style="mix-blend-mode:saturation"/>
<path d="M2 2C2 2.55228 1.55228 3 1 3C0.447715 3 0 2.55228 0 2C0 1.44772 0.447715 1 1 1C1.55228 1 2 1.44772 2 2Z" fill="black" style="mix-blend-mode:color-burn"/>
<path d="M2 10C2 10.5523 1.55228 11 1 11C0.447715 11 0 10.5523 0 10C0 9.44772 0.447715 9 1 9C1.55228 9 2 9.44772 2 10Z" fill="black" style="mix-blend-mode:overlay"/>
<path d="M2 10C2 10.5523 1.55228 11 1 11C0.447715 11 0 10.5523 0 10C0 9.44772 0.447715 9 1 9C1.55228 9 2 9.44772 2 10Z" fill="black" fill-opacity="0.983"/>
<path d="M2 10C2 10.5523 1.55228 11 1 11C0.447715 11 0 10.5523 0 10C0 9.44772 0.447715 9 1 9C1.55228 9 2 9.44772 2 10Z" fill="white" style="mix-blend-mode:difference"/>
<path d="M2 10C2 10.5523 1.55228 11 1 11C0.447715 11 0 10.5523 0 10C0 9.44772 0.447715 9 1 9C1.55228 9 2 9.44772 2 10Z" fill="black" style="mix-blend-mode:saturation"/>
<path d="M2 10C2 10.5523 1.55228 11 1 11C0.447715 11 0 10.5523 0 10C0 9.44772 0.447715 9 1 9C1.55228 9 2 9.44772 2 10Z" fill="black" style="mix-blend-mode:color-burn"/>
</svg>
