<svg width="14" height="14" viewBox="0 0 14 14" fill="none" xmlns="http://www.w3.org/2000/svg">
<path d="M0.00390625 2.93559C0.00812972 2.79139 0.0170712 2.65684 0.0371094 2.53032C0.240561 1.247 1.24695 0.240609 2.53027 0.0371571C2.78307 -0.00288136 3.067 4.7719e-05 3.40039 4.7719e-05H7C10.866 4.7719e-05 14 3.13405 14 7.00005C14 10.866 10.866 14 7 14H3.40039C3.067 14 2.78307 14.003 2.53027 13.9629C1.24695 13.7595 0.240561 12.7531 0.0371094 11.4698C0.0170712 11.3433 0.00812972 11.2087 0.00390625 11.0645L0 10.5997V3.40044L0.00390625 2.93559ZM2 10.5997L2.00293 11.0098C2.00485 11.0905 2.0081 11.1272 2.0127 11.1563C2.08047 11.5842 2.41586 11.9196 2.84375 11.9874C2.90189 11.9965 2.99086 12 3.40039 12H7C9.76142 12 12 9.76147 12 7.00005C12 4.23862 9.76142 2.00005 7 2.00005H3.40039C2.99086 2.00005 2.90189 2.00355 2.84375 2.01274C2.41586 2.08051 2.08047 2.41591 2.0127 2.8438C2.0035 2.90194 2 2.99091 2 3.40044V10.5997Z" fill="black" style="mix-blend-mode:overlay"/>
<path d="M0.00390625 2.93559C0.00812972 2.79139 0.0170712 2.65684 0.0371094 2.53032C0.240561 1.247 1.24695 0.240609 2.53027 0.0371571C2.78307 -0.00288136 3.067 4.7719e-05 3.40039 4.7719e-05H7C10.866 4.7719e-05 14 3.13405 14 7.00005C14 10.866 10.866 14 7 14H3.40039C3.067 14 2.78307 14.003 2.53027 13.9629C1.24695 13.7595 0.240561 12.7531 0.0371094 11.4698C0.0170712 11.3433 0.00812972 11.2087 0.00390625 11.0645L0 10.5997V3.40044L0.00390625 2.93559ZM2 10.5997L2.00293 11.0098C2.00485 11.0905 2.0081 11.1272 2.0127 11.1563C2.08047 11.5842 2.41586 11.9196 2.84375 11.9874C2.90189 11.9965 2.99086 12 3.40039 12H7C9.76142 12 12 9.76147 12 7.00005C12 4.23862 9.76142 2.00005 7 2.00005H3.40039C2.99086 2.00005 2.90189 2.00355 2.84375 2.01274C2.41586 2.08051 2.08047 2.41591 2.0127 2.8438C2.0035 2.90194 2 2.99091 2 3.40044V10.5997Z" fill="black" fill-opacity="0.983"/>
<path d="M0.00390625 2.93559C0.00812972 2.79139 0.0170712 2.65684 0.0371094 2.53032C0.240561 1.247 1.24695 0.240609 2.53027 0.0371571C2.78307 -0.00288136 3.067 4.7719e-05 3.40039 4.7719e-05H7C10.866 4.7719e-05 14 3.13405 14 7.00005C14 10.866 10.866 14 7 14H3.40039C3.067 14 2.78307 14.003 2.53027 13.9629C1.24695 13.7595 0.240561 12.7531 0.0371094 11.4698C0.0170712 11.3433 0.00812972 11.2087 0.00390625 11.0645L0 10.5997V3.40044L0.00390625 2.93559ZM2 10.5997L2.00293 11.0098C2.00485 11.0905 2.0081 11.1272 2.0127 11.1563C2.08047 11.5842 2.41586 11.9196 2.84375 11.9874C2.90189 11.9965 2.99086 12 3.40039 12H7C9.76142 12 12 9.76147 12 7.00005C12 4.23862 9.76142 2.00005 7 2.00005H3.40039C2.99086 2.00005 2.90189 2.00355 2.84375 2.01274C2.41586 2.08051 2.08047 2.41591 2.0127 2.8438C2.0035 2.90194 2 2.99091 2 3.40044V10.5997Z" fill="white" style="mix-blend-mode:difference"/>
<path d="M0.00390625 2.93559C0.00812972 2.79139 0.0170712 2.65684 0.0371094 2.53032C0.240561 1.247 1.24695 0.240609 2.53027 0.0371571C2.78307 -0.00288136 3.067 4.7719e-05 3.40039 4.7719e-05H7C10.866 4.7719e-05 14 3.13405 14 7.00005C14 10.866 10.866 14 7 14H3.40039C3.067 14 2.78307 14.003 2.53027 13.9629C1.24695 13.7595 0.240561 12.7531 0.0371094 11.4698C0.0170712 11.3433 0.00812972 11.2087 0.00390625 11.0645L0 10.5997V3.40044L0.00390625 2.93559ZM2 10.5997L2.00293 11.0098C2.00485 11.0905 2.0081 11.1272 2.0127 11.1563C2.08047 11.5842 2.41586 11.9196 2.84375 11.9874C2.90189 11.9965 2.99086 12 3.40039 12H7C9.76142 12 12 9.76147 12 7.00005C12 4.23862 9.76142 2.00005 7 2.00005H3.40039C2.99086 2.00005 2.90189 2.00355 2.84375 2.01274C2.41586 2.08051 2.08047 2.41591 2.0127 2.8438C2.0035 2.90194 2 2.99091 2 3.40044V10.5997Z" fill="black" style="mix-blend-mode:saturation"/>
<path d="M0.00390625 2.93559C0.00812972 2.79139 0.0170712 2.65684 0.0371094 2.53032C0.240561 1.247 1.24695 0.240609 2.53027 0.0371571C2.78307 -0.00288136 3.067 4.7719e-05 3.40039 4.7719e-05H7C10.866 4.7719e-05 14 3.13405 14 7.00005C14 10.866 10.866 14 7 14H3.40039C3.067 14 2.78307 14.003 2.53027 13.9629C1.24695 13.7595 0.240561 12.7531 0.0371094 11.4698C0.0170712 11.3433 0.00812972 11.2087 0.00390625 11.0645L0 10.5997V3.40044L0.00390625 2.93559ZM2 10.5997L2.00293 11.0098C2.00485 11.0905 2.0081 11.1272 2.0127 11.1563C2.08047 11.5842 2.41586 11.9196 2.84375 11.9874C2.90189 11.9965 2.99086 12 3.40039 12H7C9.76142 12 12 9.76147 12 7.00005C12 4.23862 9.76142 2.00005 7 2.00005H3.40039C2.99086 2.00005 2.90189 2.00355 2.84375 2.01274C2.41586 2.08051 2.08047 2.41591 2.0127 2.8438C2.0035 2.90194 2 2.99091 2 3.40044V10.5997Z" fill="black" style="mix-blend-mode:color-burn"/>
</svg>
