<svg width="2" height="14" viewBox="0 0 2 14" fill="none" xmlns="http://www.w3.org/2000/svg">
<path d="M2 12C2 12.5523 1.55228 13 1 13C0.447715 13 0 12.5523 0 12C0 11.4477 0.447715 11 1 11C1.55228 11 2 11.4477 2 12Z" fill="black" style="mix-blend-mode:overlay"/>
<path d="M2 12C2 12.5523 1.55228 13 1 13C0.447715 13 0 12.5523 0 12C0 11.4477 0.447715 11 1 11C1.55228 11 2 11.4477 2 12Z" fill="black" fill-opacity="0.983"/>
<path d="M2 12C2 12.5523 1.55228 13 1 13C0.447715 13 0 12.5523 0 12C0 11.4477 0.447715 11 1 11C1.55228 11 2 11.4477 2 12Z" fill="white" style="mix-blend-mode:difference"/>
<path d="M2 12C2 12.5523 1.55228 13 1 13C0.447715 13 0 12.5523 0 12C0 11.4477 0.447715 11 1 11C1.55228 11 2 11.4477 2 12Z" fill="black" style="mix-blend-mode:saturation"/>
<path d="M2 12C2 12.5523 1.55228 13 1 13C0.447715 13 0 12.5523 0 12C0 11.4477 0.447715 11 1 11C1.55228 11 2 11.4477 2 12Z" fill="black" style="mix-blend-mode:color-burn"/>
</svg>
