<svg width="14" height="14" viewBox="0 0 14 14" fill="none" xmlns="http://www.w3.org/2000/svg">
<path d="M5.65703e-06 13V5.00001C5.65679e-06 4.08547 -0.00222735 3.29863 0.0820369 2.67188C0.17019 2.01648 0.369331 1.38849 0.878912 0.878912C1.38849 0.369331 2.01648 0.17019 2.67188 0.0820369C3.29863 -0.00222736 4.08547 5.65705e-06 5.00001 5.65705e-06H13C13.5523 5.65705e-06 14 0.447721 14 1.00001C14 1.55229 13.5523 2.00001 13 2.00001H5.00001C4.02893 2.00001 3.40099 2.00228 2.93848 2.06446C2.50494 2.12278 2.36908 2.21686 2.29297 2.29297C2.21686 2.36908 2.12278 2.50493 2.06446 2.93848C2.00228 3.40099 2.00001 4.02893 2.00001 5.00001V6.00001H7.00001C7.55229 6.00001 8.00001 6.44772 8.00001 7.00001C8.00001 7.55229 7.55229 8.00001 7.00001 8.00001H2.00001V13L1.99512 13.1025C1.94379 13.6067 1.51768 14 1.00001 14C0.482329 14 0.05622 13.6067 0.00488847 13.1025L5.65703e-06 13Z" fill="black" style="mix-blend-mode:overlay"/>
<path d="M5.65703e-06 13V5.00001C5.65679e-06 4.08547 -0.00222735 3.29863 0.0820369 2.67188C0.17019 2.01648 0.369331 1.38849 0.878912 0.878912C1.38849 0.369331 2.01648 0.17019 2.67188 0.0820369C3.29863 -0.00222736 4.08547 5.65705e-06 5.00001 5.65705e-06H13C13.5523 5.65705e-06 14 0.447721 14 1.00001C14 1.55229 13.5523 2.00001 13 2.00001H5.00001C4.02893 2.00001 3.40099 2.00228 2.93848 2.06446C2.50494 2.12278 2.36908 2.21686 2.29297 2.29297C2.21686 2.36908 2.12278 2.50493 2.06446 2.93848C2.00228 3.40099 2.00001 4.02893 2.00001 5.00001V6.00001H7.00001C7.55229 6.00001 8.00001 6.44772 8.00001 7.00001C8.00001 7.55229 7.55229 8.00001 7.00001 8.00001H2.00001V13L1.99512 13.1025C1.94379 13.6067 1.51768 14 1.00001 14C0.482329 14 0.05622 13.6067 0.00488847 13.1025L5.65703e-06 13Z" fill="black" fill-opacity="0.983"/>
<path d="M5.65703e-06 13V5.00001C5.65679e-06 4.08547 -0.00222735 3.29863 0.0820369 2.67188C0.17019 2.01648 0.369331 1.38849 0.878912 0.878912C1.38849 0.369331 2.01648 0.17019 2.67188 0.0820369C3.29863 -0.00222736 4.08547 5.65705e-06 5.00001 5.65705e-06H13C13.5523 5.65705e-06 14 0.447721 14 1.00001C14 1.55229 13.5523 2.00001 13 2.00001H5.00001C4.02893 2.00001 3.40099 2.00228 2.93848 2.06446C2.50494 2.12278 2.36908 2.21686 2.29297 2.29297C2.21686 2.36908 2.12278 2.50493 2.06446 2.93848C2.00228 3.40099 2.00001 4.02893 2.00001 5.00001V6.00001H7.00001C7.55229 6.00001 8.00001 6.44772 8.00001 7.00001C8.00001 7.55229 7.55229 8.00001 7.00001 8.00001H2.00001V13L1.99512 13.1025C1.94379 13.6067 1.51768 14 1.00001 14C0.482329 14 0.05622 13.6067 0.00488847 13.1025L5.65703e-06 13Z" fill="white" style="mix-blend-mode:difference"/>
<path d="M5.65703e-06 13V5.00001C5.65679e-06 4.08547 -0.00222735 3.29863 0.0820369 2.67188C0.17019 2.01648 0.369331 1.38849 0.878912 0.878912C1.38849 0.369331 2.01648 0.17019 2.67188 0.0820369C3.29863 -0.00222736 4.08547 5.65705e-06 5.00001 5.65705e-06H13C13.5523 5.65705e-06 14 0.447721 14 1.00001C14 1.55229 13.5523 2.00001 13 2.00001H5.00001C4.02893 2.00001 3.40099 2.00228 2.93848 2.06446C2.50494 2.12278 2.36908 2.21686 2.29297 2.29297C2.21686 2.36908 2.12278 2.50493 2.06446 2.93848C2.00228 3.40099 2.00001 4.02893 2.00001 5.00001V6.00001H7.00001C7.55229 6.00001 8.00001 6.44772 8.00001 7.00001C8.00001 7.55229 7.55229 8.00001 7.00001 8.00001H2.00001V13L1.99512 13.1025C1.94379 13.6067 1.51768 14 1.00001 14C0.482329 14 0.05622 13.6067 0.00488847 13.1025L5.65703e-06 13Z" fill="black" style="mix-blend-mode:saturation"/>
<path d="M5.65703e-06 13V5.00001C5.65679e-06 4.08547 -0.00222735 3.29863 0.0820369 2.67188C0.17019 2.01648 0.369331 1.38849 0.878912 0.878912C1.38849 0.369331 2.01648 0.17019 2.67188 0.0820369C3.29863 -0.00222736 4.08547 5.65705e-06 5.00001 5.65705e-06H13C13.5523 5.65705e-06 14 0.447721 14 1.00001C14 1.55229 13.5523 2.00001 13 2.00001H5.00001C4.02893 2.00001 3.40099 2.00228 2.93848 2.06446C2.50494 2.12278 2.36908 2.21686 2.29297 2.29297C2.21686 2.36908 2.12278 2.50493 2.06446 2.93848C2.00228 3.40099 2.00001 4.02893 2.00001 5.00001V6.00001H7.00001C7.55229 6.00001 8.00001 6.44772 8.00001 7.00001C8.00001 7.55229 7.55229 8.00001 7.00001 8.00001H2.00001V13L1.99512 13.1025C1.94379 13.6067 1.51768 14 1.00001 14C0.482329 14 0.05622 13.6067 0.00488847 13.1025L5.65703e-06 13Z" fill="black" style="mix-blend-mode:color-burn"/>
</svg>
