<svg width="14" height="14" viewBox="0 0 14 14" fill="none" xmlns="http://www.w3.org/2000/svg">
<path d="M1.50761e-06 7C1.50761e-06 6.0818 -0.000880755 5.34293 0.0400406 4.74317C0.0815728 4.13455 0.169808 3.59653 0.380861 3.08692C0.888331 1.86178 1.86178 0.888331 3.08692 0.380861C3.59653 0.169808 4.13455 0.0815728 4.74317 0.0400406C5.34293 -0.000880755 6.0818 1.5076e-06 7 1.50761e-06H11.2861C11.8382 0.000227702 12.2861 0.447856 12.2861 1C12.2861 1.55215 11.8382 1.99978 11.2861 2H7C6.05468 2 5.39572 2.00096 4.87988 2.03613C4.37297 2.07072 4.07695 2.13516 3.85156 2.22852C3.11679 2.53299 2.53299 3.11679 2.22852 3.85156C2.13516 4.07695 2.07072 4.37297 2.03613 4.87988C2.00096 5.39572 2 6.05468 2 7C2 7.94532 2.00096 8.60429 2.03613 9.12012C2.07072 9.62703 2.13516 9.92305 2.22852 10.1484C2.53299 10.8832 3.11679 11.467 3.85156 11.7715C4.07695 11.8648 4.37297 11.9293 4.87988 11.9639C5.39572 11.999 6.05468 12 7 12H8.2002C8.98147 12 9.25614 11.9967 9.46973 11.9629C10.753 11.7594 11.7594 10.753 11.9629 9.46973C11.9967 9.25614 12 8.98147 12 8.2002C12 8.102 12.0001 8.04807 11.999 8.00879C11.9989 8.00598 11.9981 8.0033 11.998 8.00098C11.996 8.00091 11.9936 8.00104 11.9912 8.00098C11.9519 7.99991 11.898 8 11.7998 8H8.71387C8.16178 7.99978 7.71387 7.55215 7.71387 7C7.71387 6.44786 8.16178 6.00023 8.71387 6H11.7998C11.9473 6 12.1376 5.99676 12.3125 6.02442C13.1149 6.1515 13.7549 6.74979 13.9434 7.5293L13.9756 7.6875L13.9912 7.82031C14.002 7.9546 14 8.0895 14 8.2002C14 8.90508 14.0031 9.37401 13.9385 9.78223C13.5996 11.9217 11.9217 13.5996 9.78223 13.9385C9.37401 14.0031 8.90508 14 8.2002 14H7C6.0818 14 5.34293 14.0009 4.74317 13.96C4.13455 13.9184 3.59653 13.8302 3.08692 13.6191C1.86178 13.1117 0.888331 12.1382 0.380861 10.9131C0.169808 10.4035 0.0815728 9.86546 0.0400406 9.25684C-0.000880755 8.65708 1.50761e-06 7.9182 1.50761e-06 7Z" fill="black" style="mix-blend-mode:overlay"/>
<path d="M1.50761e-06 7C1.50761e-06 6.0818 -0.000880755 5.34293 0.0400406 4.74317C0.0815728 4.13455 0.169808 3.59653 0.380861 3.08692C0.888331 1.86178 1.86178 0.888331 3.08692 0.380861C3.59653 0.169808 4.13455 0.0815728 4.74317 0.0400406C5.34293 -0.000880755 6.0818 1.5076e-06 7 1.50761e-06H11.2861C11.8382 0.000227702 12.2861 0.447856 12.2861 1C12.2861 1.55215 11.8382 1.99978 11.2861 2H7C6.05468 2 5.39572 2.00096 4.87988 2.03613C4.37297 2.07072 4.07695 2.13516 3.85156 2.22852C3.11679 2.53299 2.53299 3.11679 2.22852 3.85156C2.13516 4.07695 2.07072 4.37297 2.03613 4.87988C2.00096 5.39572 2 6.05468 2 7C2 7.94532 2.00096 8.60429 2.03613 9.12012C2.07072 9.62703 2.13516 9.92305 2.22852 10.1484C2.53299 10.8832 3.11679 11.467 3.85156 11.7715C4.07695 11.8648 4.37297 11.9293 4.87988 11.9639C5.39572 11.999 6.05468 12 7 12H8.2002C8.98147 12 9.25614 11.9967 9.46973 11.9629C10.753 11.7594 11.7594 10.753 11.9629 9.46973C11.9967 9.25614 12 8.98147 12 8.2002C12 8.102 12.0001 8.04807 11.999 8.00879C11.9989 8.00598 11.9981 8.0033 11.998 8.00098C11.996 8.00091 11.9936 8.00104 11.9912 8.00098C11.9519 7.99991 11.898 8 11.7998 8H8.71387C8.16178 7.99978 7.71387 7.55215 7.71387 7C7.71387 6.44786 8.16178 6.00023 8.71387 6H11.7998C11.9473 6 12.1376 5.99676 12.3125 6.02442C13.1149 6.1515 13.7549 6.74979 13.9434 7.5293L13.9756 7.6875L13.9912 7.82031C14.002 7.9546 14 8.0895 14 8.2002C14 8.90508 14.0031 9.37401 13.9385 9.78223C13.5996 11.9217 11.9217 13.5996 9.78223 13.9385C9.37401 14.0031 8.90508 14 8.2002 14H7C6.0818 14 5.34293 14.0009 4.74317 13.96C4.13455 13.9184 3.59653 13.8302 3.08692 13.6191C1.86178 13.1117 0.888331 12.1382 0.380861 10.9131C0.169808 10.4035 0.0815728 9.86546 0.0400406 9.25684C-0.000880755 8.65708 1.50761e-06 7.9182 1.50761e-06 7Z" fill="black" fill-opacity="0.983"/>
<path d="M1.50761e-06 7C1.50761e-06 6.0818 -0.000880755 5.34293 0.0400406 4.74317C0.0815728 4.13455 0.169808 3.59653 0.380861 3.08692C0.888331 1.86178 1.86178 0.888331 3.08692 0.380861C3.59653 0.169808 4.13455 0.0815728 4.74317 0.0400406C5.34293 -0.000880755 6.0818 1.5076e-06 7 1.50761e-06H11.2861C11.8382 0.000227702 12.2861 0.447856 12.2861 1C12.2861 1.55215 11.8382 1.99978 11.2861 2H7C6.05468 2 5.39572 2.00096 4.87988 2.03613C4.37297 2.07072 4.07695 2.13516 3.85156 2.22852C3.11679 2.53299 2.53299 3.11679 2.22852 3.85156C2.13516 4.07695 2.07072 4.37297 2.03613 4.87988C2.00096 5.39572 2 6.05468 2 7C2 7.94532 2.00096 8.60429 2.03613 9.12012C2.07072 9.62703 2.13516 9.92305 2.22852 10.1484C2.53299 10.8832 3.11679 11.467 3.85156 11.7715C4.07695 11.8648 4.37297 11.9293 4.87988 11.9639C5.39572 11.999 6.05468 12 7 12H8.2002C8.98147 12 9.25614 11.9967 9.46973 11.9629C10.753 11.7594 11.7594 10.753 11.9629 9.46973C11.9967 9.25614 12 8.98147 12 8.2002C12 8.102 12.0001 8.04807 11.999 8.00879C11.9989 8.00598 11.9981 8.0033 11.998 8.00098C11.996 8.00091 11.9936 8.00104 11.9912 8.00098C11.9519 7.99991 11.898 8 11.7998 8H8.71387C8.16178 7.99978 7.71387 7.55215 7.71387 7C7.71387 6.44786 8.16178 6.00023 8.71387 6H11.7998C11.9473 6 12.1376 5.99676 12.3125 6.02442C13.1149 6.1515 13.7549 6.74979 13.9434 7.5293L13.9756 7.6875L13.9912 7.82031C14.002 7.9546 14 8.0895 14 8.2002C14 8.90508 14.0031 9.37401 13.9385 9.78223C13.5996 11.9217 11.9217 13.5996 9.78223 13.9385C9.37401 14.0031 8.90508 14 8.2002 14H7C6.0818 14 5.34293 14.0009 4.74317 13.96C4.13455 13.9184 3.59653 13.8302 3.08692 13.6191C1.86178 13.1117 0.888331 12.1382 0.380861 10.9131C0.169808 10.4035 0.0815728 9.86546 0.0400406 9.25684C-0.000880755 8.65708 1.50761e-06 7.9182 1.50761e-06 7Z" fill="white" style="mix-blend-mode:difference"/>
<path d="M1.50761e-06 7C1.50761e-06 6.0818 -0.000880755 5.34293 0.0400406 4.74317C0.0815728 4.13455 0.169808 3.59653 0.380861 3.08692C0.888331 1.86178 1.86178 0.888331 3.08692 0.380861C3.59653 0.169808 4.13455 0.0815728 4.74317 0.0400406C5.34293 -0.000880755 6.0818 1.5076e-06 7 1.50761e-06H11.2861C11.8382 0.000227702 12.2861 0.447856 12.2861 1C12.2861 1.55215 11.8382 1.99978 11.2861 2H7C6.05468 2 5.39572 2.00096 4.87988 2.03613C4.37297 2.07072 4.07695 2.13516 3.85156 2.22852C3.11679 2.53299 2.53299 3.11679 2.22852 3.85156C2.13516 4.07695 2.07072 4.37297 2.03613 4.87988C2.00096 5.39572 2 6.05468 2 7C2 7.94532 2.00096 8.60429 2.03613 9.12012C2.07072 9.62703 2.13516 9.92305 2.22852 10.1484C2.53299 10.8832 3.11679 11.467 3.85156 11.7715C4.07695 11.8648 4.37297 11.9293 4.87988 11.9639C5.39572 11.999 6.05468 12 7 12H8.2002C8.98147 12 9.25614 11.9967 9.46973 11.9629C10.753 11.7594 11.7594 10.753 11.9629 9.46973C11.9967 9.25614 12 8.98147 12 8.2002C12 8.102 12.0001 8.04807 11.999 8.00879C11.9989 8.00598 11.9981 8.0033 11.998 8.00098C11.996 8.00091 11.9936 8.00104 11.9912 8.00098C11.9519 7.99991 11.898 8 11.7998 8H8.71387C8.16178 7.99978 7.71387 7.55215 7.71387 7C7.71387 6.44786 8.16178 6.00023 8.71387 6H11.7998C11.9473 6 12.1376 5.99676 12.3125 6.02442C13.1149 6.1515 13.7549 6.74979 13.9434 7.5293L13.9756 7.6875L13.9912 7.82031C14.002 7.9546 14 8.0895 14 8.2002C14 8.90508 14.0031 9.37401 13.9385 9.78223C13.5996 11.9217 11.9217 13.5996 9.78223 13.9385C9.37401 14.0031 8.90508 14 8.2002 14H7C6.0818 14 5.34293 14.0009 4.74317 13.96C4.13455 13.9184 3.59653 13.8302 3.08692 13.6191C1.86178 13.1117 0.888331 12.1382 0.380861 10.9131C0.169808 10.4035 0.0815728 9.86546 0.0400406 9.25684C-0.000880755 8.65708 1.50761e-06 7.9182 1.50761e-06 7Z" fill="black" style="mix-blend-mode:saturation"/>
<path d="M1.50761e-06 7C1.50761e-06 6.0818 -0.000880755 5.34293 0.0400406 4.74317C0.0815728 4.13455 0.169808 3.59653 0.380861 3.08692C0.888331 1.86178 1.86178 0.888331 3.08692 0.380861C3.59653 0.169808 4.13455 0.0815728 4.74317 0.0400406C5.34293 -0.000880755 6.0818 1.5076e-06 7 1.50761e-06H11.2861C11.8382 0.000227702 12.2861 0.447856 12.2861 1C12.2861 1.55215 11.8382 1.99978 11.2861 2H7C6.05468 2 5.39572 2.00096 4.87988 2.03613C4.37297 2.07072 4.07695 2.13516 3.85156 2.22852C3.11679 2.53299 2.53299 3.11679 2.22852 3.85156C2.13516 4.07695 2.07072 4.37297 2.03613 4.87988C2.00096 5.39572 2 6.05468 2 7C2 7.94532 2.00096 8.60429 2.03613 9.12012C2.07072 9.62703 2.13516 9.92305 2.22852 10.1484C2.53299 10.8832 3.11679 11.467 3.85156 11.7715C4.07695 11.8648 4.37297 11.9293 4.87988 11.9639C5.39572 11.999 6.05468 12 7 12H8.2002C8.98147 12 9.25614 11.9967 9.46973 11.9629C10.753 11.7594 11.7594 10.753 11.9629 9.46973C11.9967 9.25614 12 8.98147 12 8.2002C12 8.102 12.0001 8.04807 11.999 8.00879C11.9989 8.00598 11.9981 8.0033 11.998 8.00098C11.996 8.00091 11.9936 8.00104 11.9912 8.00098C11.9519 7.99991 11.898 8 11.7998 8H8.71387C8.16178 7.99978 7.71387 7.55215 7.71387 7C7.71387 6.44786 8.16178 6.00023 8.71387 6H11.7998C11.9473 6 12.1376 5.99676 12.3125 6.02442C13.1149 6.1515 13.7549 6.74979 13.9434 7.5293L13.9756 7.6875L13.9912 7.82031C14.002 7.9546 14 8.0895 14 8.2002C14 8.90508 14.0031 9.37401 13.9385 9.78223C13.5996 11.9217 11.9217 13.5996 9.78223 13.9385C9.37401 14.0031 8.90508 14 8.2002 14H7C6.0818 14 5.34293 14.0009 4.74317 13.96C4.13455 13.9184 3.59653 13.8302 3.08692 13.6191C1.86178 13.1117 0.888331 12.1382 0.380861 10.9131C0.169808 10.4035 0.0815728 9.86546 0.0400406 9.25684C-0.000880755 8.65708 1.50761e-06 7.9182 1.50761e-06 7Z" fill="black" style="mix-blend-mode:color-burn"/>
</svg>
