<svg width="14" height="14" viewBox="0 0 14 14" fill="none" xmlns="http://www.w3.org/2000/svg">
<path d="M12 13V8H2V13L1.99512 13.1025C1.94379 13.6067 1.51768 14 1 14C0.482323 14 0.0562144 13.6067 0.00488281 13.1025L0 13V1C0 0.447715 0.447715 0 1 0C1.55228 0 2 0.447715 2 1V6H12V1C12 0.447715 12.4477 6.44255e-08 13 0C13.5523 0 14 0.447715 14 1V13C14 13.5523 13.5523 14 13 14C12.4477 14 12 13.5523 12 13Z" fill="black" style="mix-blend-mode:overlay"/>
<path d="M12 13V8H2V13L1.99512 13.1025C1.94379 13.6067 1.51768 14 1 14C0.482323 14 0.0562144 13.6067 0.00488281 13.1025L0 13V1C0 0.447715 0.447715 0 1 0C1.55228 0 2 0.447715 2 1V6H12V1C12 0.447715 12.4477 6.44255e-08 13 0C13.5523 0 14 0.447715 14 1V13C14 13.5523 13.5523 14 13 14C12.4477 14 12 13.5523 12 13Z" fill="black" fill-opacity="0.983"/>
<path d="M12 13V8H2V13L1.99512 13.1025C1.94379 13.6067 1.51768 14 1 14C0.482323 14 0.0562144 13.6067 0.00488281 13.1025L0 13V1C0 0.447715 0.447715 0 1 0C1.55228 0 2 0.447715 2 1V6H12V1C12 0.447715 12.4477 6.44255e-08 13 0C13.5523 0 14 0.447715 14 1V13C14 13.5523 13.5523 14 13 14C12.4477 14 12 13.5523 12 13Z" fill="white" style="mix-blend-mode:difference"/>
<path d="M12 13V8H2V13L1.99512 13.1025C1.94379 13.6067 1.51768 14 1 14C0.482323 14 0.0562144 13.6067 0.00488281 13.1025L0 13V1C0 0.447715 0.447715 0 1 0C1.55228 0 2 0.447715 2 1V6H12V1C12 0.447715 12.4477 6.44255e-08 13 0C13.5523 0 14 0.447715 14 1V13C14 13.5523 13.5523 14 13 14C12.4477 14 12 13.5523 12 13Z" fill="black" style="mix-blend-mode:saturation"/>
<path d="M12 13V8H2V13L1.99512 13.1025C1.94379 13.6067 1.51768 14 1 14C0.482323 14 0.0562144 13.6067 0.00488281 13.1025L0 13V1C0 0.447715 0.447715 0 1 0C1.55228 0 2 0.447715 2 1V6H12V1C12 0.447715 12.4477 6.44255e-08 13 0C13.5523 0 14 0.447715 14 1V13C14 13.5523 13.5523 14 13 14C12.4477 14 12 13.5523 12 13Z" fill="black" style="mix-blend-mode:color-burn"/>
</svg>
