<svg width="14" height="14" viewBox="0 0 14 14" fill="none" xmlns="http://www.w3.org/2000/svg">
<path d="M12 7V1C12 0.447715 12.4477 0 13 0C13.5523 0 14 0.447715 14 1V7C14 7.9182 14.0009 8.65708 13.96 9.25684C13.9184 9.86545 13.8302 10.4035 13.6191 10.9131C13.1117 12.1382 12.1382 13.1117 10.9131 13.6191C10.4035 13.8302 9.86545 13.9184 9.25684 13.96C8.65708 14.0009 7.9182 14 7 14H5C2.23858 14 0 11.7614 0 9C0 8.44772 0.447715 8 1 8C1.55228 8 2 8.44772 2 9C2 10.6569 3.34315 12 5 12H7C7.94532 12 8.60428 11.999 9.12012 11.9639C9.62703 11.9293 9.92305 11.8648 10.1484 11.7715C10.8832 11.467 11.467 10.8832 11.7715 10.1484C11.8648 9.92305 11.9293 9.62703 11.9639 9.12012C11.999 8.60428 12 7.94532 12 7Z" fill="black" style="mix-blend-mode:overlay"/>
<path d="M12 7V1C12 0.447715 12.4477 0 13 0C13.5523 0 14 0.447715 14 1V7C14 7.9182 14.0009 8.65708 13.96 9.25684C13.9184 9.86545 13.8302 10.4035 13.6191 10.9131C13.1117 12.1382 12.1382 13.1117 10.9131 13.6191C10.4035 13.8302 9.86545 13.9184 9.25684 13.96C8.65708 14.0009 7.9182 14 7 14H5C2.23858 14 0 11.7614 0 9C0 8.44772 0.447715 8 1 8C1.55228 8 2 8.44772 2 9C2 10.6569 3.34315 12 5 12H7C7.94532 12 8.60428 11.999 9.12012 11.9639C9.62703 11.9293 9.92305 11.8648 10.1484 11.7715C10.8832 11.467 11.467 10.8832 11.7715 10.1484C11.8648 9.92305 11.9293 9.62703 11.9639 9.12012C11.999 8.60428 12 7.94532 12 7Z" fill="black" fill-opacity="0.983"/>
<path d="M12 7V1C12 0.447715 12.4477 0 13 0C13.5523 0 14 0.447715 14 1V7C14 7.9182 14.0009 8.65708 13.96 9.25684C13.9184 9.86545 13.8302 10.4035 13.6191 10.9131C13.1117 12.1382 12.1382 13.1117 10.9131 13.6191C10.4035 13.8302 9.86545 13.9184 9.25684 13.96C8.65708 14.0009 7.9182 14 7 14H5C2.23858 14 0 11.7614 0 9C0 8.44772 0.447715 8 1 8C1.55228 8 2 8.44772 2 9C2 10.6569 3.34315 12 5 12H7C7.94532 12 8.60428 11.999 9.12012 11.9639C9.62703 11.9293 9.92305 11.8648 10.1484 11.7715C10.8832 11.467 11.467 10.8832 11.7715 10.1484C11.8648 9.92305 11.9293 9.62703 11.9639 9.12012C11.999 8.60428 12 7.94532 12 7Z" fill="white" style="mix-blend-mode:difference"/>
<path d="M12 7V1C12 0.447715 12.4477 0 13 0C13.5523 0 14 0.447715 14 1V7C14 7.9182 14.0009 8.65708 13.96 9.25684C13.9184 9.86545 13.8302 10.4035 13.6191 10.9131C13.1117 12.1382 12.1382 13.1117 10.9131 13.6191C10.4035 13.8302 9.86545 13.9184 9.25684 13.96C8.65708 14.0009 7.9182 14 7 14H5C2.23858 14 0 11.7614 0 9C0 8.44772 0.447715 8 1 8C1.55228 8 2 8.44772 2 9C2 10.6569 3.34315 12 5 12H7C7.94532 12 8.60428 11.999 9.12012 11.9639C9.62703 11.9293 9.92305 11.8648 10.1484 11.7715C10.8832 11.467 11.467 10.8832 11.7715 10.1484C11.8648 9.92305 11.9293 9.62703 11.9639 9.12012C11.999 8.60428 12 7.94532 12 7Z" fill="black" style="mix-blend-mode:saturation"/>
<path d="M12 7V1C12 0.447715 12.4477 0 13 0C13.5523 0 14 0.447715 14 1V7C14 7.9182 14.0009 8.65708 13.96 9.25684C13.9184 9.86545 13.8302 10.4035 13.6191 10.9131C13.1117 12.1382 12.1382 13.1117 10.9131 13.6191C10.4035 13.8302 9.86545 13.9184 9.25684 13.96C8.65708 14.0009 7.9182 14 7 14H5C2.23858 14 0 11.7614 0 9C0 8.44772 0.447715 8 1 8C1.55228 8 2 8.44772 2 9C2 10.6569 3.34315 12 5 12H7C7.94532 12 8.60428 11.999 9.12012 11.9639C9.62703 11.9293 9.92305 11.8648 10.1484 11.7715C10.8832 11.467 11.467 10.8832 11.7715 10.1484C11.8648 9.92305 11.9293 9.62703 11.9639 9.12012C11.999 8.60428 12 7.94532 12 7Z" fill="black" style="mix-blend-mode:color-burn"/>
</svg>
