<svg width="14" height="14" viewBox="0 0 14 14" fill="none" xmlns="http://www.w3.org/2000/svg">
<path d="M0 13.0003V1.00031C0 0.448028 0.447715 0.000312476 1 0.000312476C1.55228 0.000312476 2 0.448028 2 1.00031V5.38215L12.5527 0.105781C13.0467 -0.141208 13.6475 0.0590684 13.8945 0.553047C14.1415 1.04703 13.9412 1.64785 13.4473 1.89484L3.23633 7.00031L13.4473 12.1058C13.9412 12.3528 14.1415 12.9536 13.8945 13.4476C13.6475 13.9416 13.0467 14.1418 12.5527 13.8948L2 8.61848V13.0003L1.99512 13.1029C1.94379 13.607 1.51768 14.0003 1 14.0003C0.482323 14.0003 0.0562144 13.607 0.00488281 13.1029L0 13.0003Z" fill="black" style="mix-blend-mode:overlay"/>
<path d="M0 13.0003V1.00031C0 0.448028 0.447715 0.000312476 1 0.000312476C1.55228 0.000312476 2 0.448028 2 1.00031V5.38215L12.5527 0.105781C13.0467 -0.141208 13.6475 0.0590684 13.8945 0.553047C14.1415 1.04703 13.9412 1.64785 13.4473 1.89484L3.23633 7.00031L13.4473 12.1058C13.9412 12.3528 14.1415 12.9536 13.8945 13.4476C13.6475 13.9416 13.0467 14.1418 12.5527 13.8948L2 8.61848V13.0003L1.99512 13.1029C1.94379 13.607 1.51768 14.0003 1 14.0003C0.482323 14.0003 0.0562144 13.607 0.00488281 13.1029L0 13.0003Z" fill="black" fill-opacity="0.983"/>
<path d="M0 13.0003V1.00031C0 0.448028 0.447715 0.000312476 1 0.000312476C1.55228 0.000312476 2 0.448028 2 1.00031V5.38215L12.5527 0.105781C13.0467 -0.141208 13.6475 0.0590684 13.8945 0.553047C14.1415 1.04703 13.9412 1.64785 13.4473 1.89484L3.23633 7.00031L13.4473 12.1058C13.9412 12.3528 14.1415 12.9536 13.8945 13.4476C13.6475 13.9416 13.0467 14.1418 12.5527 13.8948L2 8.61848V13.0003L1.99512 13.1029C1.94379 13.607 1.51768 14.0003 1 14.0003C0.482323 14.0003 0.0562144 13.607 0.00488281 13.1029L0 13.0003Z" fill="white" style="mix-blend-mode:difference"/>
<path d="M0 13.0003V1.00031C0 0.448028 0.447715 0.000312476 1 0.000312476C1.55228 0.000312476 2 0.448028 2 1.00031V5.38215L12.5527 0.105781C13.0467 -0.141208 13.6475 0.0590684 13.8945 0.553047C14.1415 1.04703 13.9412 1.64785 13.4473 1.89484L3.23633 7.00031L13.4473 12.1058C13.9412 12.3528 14.1415 12.9536 13.8945 13.4476C13.6475 13.9416 13.0467 14.1418 12.5527 13.8948L2 8.61848V13.0003L1.99512 13.1029C1.94379 13.607 1.51768 14.0003 1 14.0003C0.482323 14.0003 0.0562144 13.607 0.00488281 13.1029L0 13.0003Z" fill="black" style="mix-blend-mode:saturation"/>
<path d="M0 13.0003V1.00031C0 0.448028 0.447715 0.000312476 1 0.000312476C1.55228 0.000312476 2 0.448028 2 1.00031V5.38215L12.5527 0.105781C13.0467 -0.141208 13.6475 0.0590684 13.8945 0.553047C14.1415 1.04703 13.9412 1.64785 13.4473 1.89484L3.23633 7.00031L13.4473 12.1058C13.9412 12.3528 14.1415 12.9536 13.8945 13.4476C13.6475 13.9416 13.0467 14.1418 12.5527 13.8948L2 8.61848V13.0003L1.99512 13.1029C1.94379 13.607 1.51768 14.0003 1 14.0003C0.482323 14.0003 0.0562144 13.607 0.00488281 13.1029L0 13.0003Z" fill="black" style="mix-blend-mode:color-burn"/>
</svg>
