<svg width="14" height="14" viewBox="0 0 14 14" fill="none" xmlns="http://www.w3.org/2000/svg">
<path d="M5.65705e-06 9V1C5.65705e-06 0.447715 0.447721 0 1.00001 0C1.55229 0 2.00001 0.447715 2.00001 1V9C2.00001 9.97108 2.00228 10.599 2.06446 11.0615C2.12278 11.4951 2.21686 11.6309 2.29297 11.707C2.36908 11.7831 2.50494 11.8772 2.93848 11.9355C3.40099 11.9977 4.02893 12 5.00001 12H13C13.5523 12 14 12.4477 14 13C14 13.5523 13.5523 14 13 14H5.00001C4.08547 14 3.29863 14.0022 2.67188 13.918C2.01648 13.8298 1.38849 13.6307 0.878912 13.1211C0.369331 12.6115 0.17019 11.9835 0.0820369 11.3281C-0.00222736 10.7014 5.65705e-06 9.91454 5.65705e-06 9Z" fill="black" style="mix-blend-mode:overlay"/>
<path d="M5.65705e-06 9V1C5.65705e-06 0.447715 0.447721 0 1.00001 0C1.55229 0 2.00001 0.447715 2.00001 1V9C2.00001 9.97108 2.00228 10.599 2.06446 11.0615C2.12278 11.4951 2.21686 11.6309 2.29297 11.707C2.36908 11.7831 2.50494 11.8772 2.93848 11.9355C3.40099 11.9977 4.02893 12 5.00001 12H13C13.5523 12 14 12.4477 14 13C14 13.5523 13.5523 14 13 14H5.00001C4.08547 14 3.29863 14.0022 2.67188 13.918C2.01648 13.8298 1.38849 13.6307 0.878912 13.1211C0.369331 12.6115 0.17019 11.9835 0.0820369 11.3281C-0.00222736 10.7014 5.65705e-06 9.91454 5.65705e-06 9Z" fill="black" fill-opacity="0.983"/>
<path d="M5.65705e-06 9V1C5.65705e-06 0.447715 0.447721 0 1.00001 0C1.55229 0 2.00001 0.447715 2.00001 1V9C2.00001 9.97108 2.00228 10.599 2.06446 11.0615C2.12278 11.4951 2.21686 11.6309 2.29297 11.707C2.36908 11.7831 2.50494 11.8772 2.93848 11.9355C3.40099 11.9977 4.02893 12 5.00001 12H13C13.5523 12 14 12.4477 14 13C14 13.5523 13.5523 14 13 14H5.00001C4.08547 14 3.29863 14.0022 2.67188 13.918C2.01648 13.8298 1.38849 13.6307 0.878912 13.1211C0.369331 12.6115 0.17019 11.9835 0.0820369 11.3281C-0.00222736 10.7014 5.65705e-06 9.91454 5.65705e-06 9Z" fill="white" style="mix-blend-mode:difference"/>
<path d="M5.65705e-06 9V1C5.65705e-06 0.447715 0.447721 0 1.00001 0C1.55229 0 2.00001 0.447715 2.00001 1V9C2.00001 9.97108 2.00228 10.599 2.06446 11.0615C2.12278 11.4951 2.21686 11.6309 2.29297 11.707C2.36908 11.7831 2.50494 11.8772 2.93848 11.9355C3.40099 11.9977 4.02893 12 5.00001 12H13C13.5523 12 14 12.4477 14 13C14 13.5523 13.5523 14 13 14H5.00001C4.08547 14 3.29863 14.0022 2.67188 13.918C2.01648 13.8298 1.38849 13.6307 0.878912 13.1211C0.369331 12.6115 0.17019 11.9835 0.0820369 11.3281C-0.00222736 10.7014 5.65705e-06 9.91454 5.65705e-06 9Z" fill="black" style="mix-blend-mode:saturation"/>
<path d="M5.65705e-06 9V1C5.65705e-06 0.447715 0.447721 0 1.00001 0C1.55229 0 2.00001 0.447715 2.00001 1V9C2.00001 9.97108 2.00228 10.599 2.06446 11.0615C2.12278 11.4951 2.21686 11.6309 2.29297 11.707C2.36908 11.7831 2.50494 11.8772 2.93848 11.9355C3.40099 11.9977 4.02893 12 5.00001 12H13C13.5523 12 14 12.4477 14 13C14 13.5523 13.5523 14 13 14H5.00001C4.08547 14 3.29863 14.0022 2.67188 13.918C2.01648 13.8298 1.38849 13.6307 0.878912 13.1211C0.369331 12.6115 0.17019 11.9835 0.0820369 11.3281C-0.00222736 10.7014 5.65705e-06 9.91454 5.65705e-06 9Z" fill="black" style="mix-blend-mode:color-burn"/>
</svg>
