<svg width="14" height="14" viewBox="0 0 14 14" fill="none" xmlns="http://www.w3.org/2000/svg">
<path d="M12 13V4.92871C12 3.759 11.998 2.99 11.9277 2.47559C11.9256 2.46005 11.9221 2.44506 11.9199 2.43066C11.909 2.44014 11.8973 2.44961 11.8857 2.45996C11.4985 2.80587 10.9982 3.38996 10.2393 4.28027L9.28321 5.40137C8.9495 5.79284 8.631 6.17028 8.33106 6.43555C8.05026 6.68379 7.68435 6.92733 7.20997 6.98437L7.00001 6.99707C6.42189 6.99707 5.98986 6.71925 5.66895 6.43555C5.36901 6.17028 5.05051 5.79284 4.7168 5.40137L3.76075 4.28027C3.00179 3.38996 2.50147 2.80587 2.11426 2.45996C2.10248 2.44944 2.09016 2.44029 2.07911 2.43066C2.07696 2.44502 2.07439 2.4601 2.07227 2.47559C2.00203 2.99 2.00001 3.759 2.00001 4.92871V13C2.00001 13.5523 1.55229 14 1.00001 14C0.447721 14 5.98447e-06 13.5523 5.98447e-06 13V4.92871C5.46889e-06 3.82459 -0.00241722 2.88804 0.0908263 2.20508C0.17517 1.58762 0.397551 0.673548 1.3086 0.33789L1.47755 0.285156C2.31375 0.0705685 3.01055 0.579483 3.4463 0.96875C3.9604 1.42801 4.56677 2.14198 5.28321 2.98242L6.23926 4.10449C6.61211 4.54187 6.82433 4.78712 6.99317 4.93652C6.99517 4.93829 6.99807 4.93971 7.00001 4.94141C7.00194 4.93971 7.00484 4.93829 7.00684 4.93652C7.17568 4.78712 7.3879 4.54187 7.76075 4.10449L8.7168 2.98242C9.43325 2.14198 10.0396 1.42801 10.5537 0.96875C10.9895 0.579483 11.6863 0.0705685 12.5225 0.285156L12.6914 0.33789L12.8545 0.407226C13.6298 0.786472 13.8301 1.62623 13.9092 2.20508C14.0024 2.88804 14 3.82459 14 4.92871V13C14 13.5523 13.5523 14 13 14C12.4477 14 12 13.5523 12 13Z" fill="black" style="mix-blend-mode:overlay"/>
<path d="M12 13V4.92871C12 3.759 11.998 2.99 11.9277 2.47559C11.9256 2.46005 11.9221 2.44506 11.9199 2.43066C11.909 2.44014 11.8973 2.44961 11.8857 2.45996C11.4985 2.80587 10.9982 3.38996 10.2393 4.28027L9.28321 5.40137C8.9495 5.79284 8.631 6.17028 8.33106 6.43555C8.05026 6.68379 7.68435 6.92733 7.20997 6.98437L7.00001 6.99707C6.42189 6.99707 5.98986 6.71925 5.66895 6.43555C5.36901 6.17028 5.05051 5.79284 4.7168 5.40137L3.76075 4.28027C3.00179 3.38996 2.50147 2.80587 2.11426 2.45996C2.10248 2.44944 2.09016 2.44029 2.07911 2.43066C2.07696 2.44502 2.07439 2.4601 2.07227 2.47559C2.00203 2.99 2.00001 3.759 2.00001 4.92871V13C2.00001 13.5523 1.55229 14 1.00001 14C0.447721 14 5.98447e-06 13.5523 5.98447e-06 13V4.92871C5.46889e-06 3.82459 -0.00241722 2.88804 0.0908263 2.20508C0.17517 1.58762 0.397551 0.673548 1.3086 0.33789L1.47755 0.285156C2.31375 0.0705685 3.01055 0.579483 3.4463 0.96875C3.9604 1.42801 4.56677 2.14198 5.28321 2.98242L6.23926 4.10449C6.61211 4.54187 6.82433 4.78712 6.99317 4.93652C6.99517 4.93829 6.99807 4.93971 7.00001 4.94141C7.00194 4.93971 7.00484 4.93829 7.00684 4.93652C7.17568 4.78712 7.3879 4.54187 7.76075 4.10449L8.7168 2.98242C9.43325 2.14198 10.0396 1.42801 10.5537 0.96875C10.9895 0.579483 11.6863 0.0705685 12.5225 0.285156L12.6914 0.33789L12.8545 0.407226C13.6298 0.786472 13.8301 1.62623 13.9092 2.20508C14.0024 2.88804 14 3.82459 14 4.92871V13C14 13.5523 13.5523 14 13 14C12.4477 14 12 13.5523 12 13Z" fill="black" fill-opacity="0.983"/>
<path d="M12 13V4.92871C12 3.759 11.998 2.99 11.9277 2.47559C11.9256 2.46005 11.9221 2.44506 11.9199 2.43066C11.909 2.44014 11.8973 2.44961 11.8857 2.45996C11.4985 2.80587 10.9982 3.38996 10.2393 4.28027L9.28321 5.40137C8.9495 5.79284 8.631 6.17028 8.33106 6.43555C8.05026 6.68379 7.68435 6.92733 7.20997 6.98437L7.00001 6.99707C6.42189 6.99707 5.98986 6.71925 5.66895 6.43555C5.36901 6.17028 5.05051 5.79284 4.7168 5.40137L3.76075 4.28027C3.00179 3.38996 2.50147 2.80587 2.11426 2.45996C2.10248 2.44944 2.09016 2.44029 2.07911 2.43066C2.07696 2.44502 2.07439 2.4601 2.07227 2.47559C2.00203 2.99 2.00001 3.759 2.00001 4.92871V13C2.00001 13.5523 1.55229 14 1.00001 14C0.447721 14 5.98447e-06 13.5523 5.98447e-06 13V4.92871C5.46889e-06 3.82459 -0.00241722 2.88804 0.0908263 2.20508C0.17517 1.58762 0.397551 0.673548 1.3086 0.33789L1.47755 0.285156C2.31375 0.0705685 3.01055 0.579483 3.4463 0.96875C3.9604 1.42801 4.56677 2.14198 5.28321 2.98242L6.23926 4.10449C6.61211 4.54187 6.82433 4.78712 6.99317 4.93652C6.99517 4.93829 6.99807 4.93971 7.00001 4.94141C7.00194 4.93971 7.00484 4.93829 7.00684 4.93652C7.17568 4.78712 7.3879 4.54187 7.76075 4.10449L8.7168 2.98242C9.43325 2.14198 10.0396 1.42801 10.5537 0.96875C10.9895 0.579483 11.6863 0.0705685 12.5225 0.285156L12.6914 0.33789L12.8545 0.407226C13.6298 0.786472 13.8301 1.62623 13.9092 2.20508C14.0024 2.88804 14 3.82459 14 4.92871V13C14 13.5523 13.5523 14 13 14C12.4477 14 12 13.5523 12 13Z" fill="white" style="mix-blend-mode:difference"/>
<path d="M12 13V4.92871C12 3.759 11.998 2.99 11.9277 2.47559C11.9256 2.46005 11.9221 2.44506 11.9199 2.43066C11.909 2.44014 11.8973 2.44961 11.8857 2.45996C11.4985 2.80587 10.9982 3.38996 10.2393 4.28027L9.28321 5.40137C8.9495 5.79284 8.631 6.17028 8.33106 6.43555C8.05026 6.68379 7.68435 6.92733 7.20997 6.98437L7.00001 6.99707C6.42189 6.99707 5.98986 6.71925 5.66895 6.43555C5.36901 6.17028 5.05051 5.79284 4.7168 5.40137L3.76075 4.28027C3.00179 3.38996 2.50147 2.80587 2.11426 2.45996C2.10248 2.44944 2.09016 2.44029 2.07911 2.43066C2.07696 2.44502 2.07439 2.4601 2.07227 2.47559C2.00203 2.99 2.00001 3.759 2.00001 4.92871V13C2.00001 13.5523 1.55229 14 1.00001 14C0.447721 14 5.98447e-06 13.5523 5.98447e-06 13V4.92871C5.46889e-06 3.82459 -0.00241722 2.88804 0.0908263 2.20508C0.17517 1.58762 0.397551 0.673548 1.3086 0.33789L1.47755 0.285156C2.31375 0.0705685 3.01055 0.579483 3.4463 0.96875C3.9604 1.42801 4.56677 2.14198 5.28321 2.98242L6.23926 4.10449C6.61211 4.54187 6.82433 4.78712 6.99317 4.93652C6.99517 4.93829 6.99807 4.93971 7.00001 4.94141C7.00194 4.93971 7.00484 4.93829 7.00684 4.93652C7.17568 4.78712 7.3879 4.54187 7.76075 4.10449L8.7168 2.98242C9.43325 2.14198 10.0396 1.42801 10.5537 0.96875C10.9895 0.579483 11.6863 0.0705685 12.5225 0.285156L12.6914 0.33789L12.8545 0.407226C13.6298 0.786472 13.8301 1.62623 13.9092 2.20508C14.0024 2.88804 14 3.82459 14 4.92871V13C14 13.5523 13.5523 14 13 14C12.4477 14 12 13.5523 12 13Z" fill="black" style="mix-blend-mode:saturation"/>
<path d="M12 13V4.92871C12 3.759 11.998 2.99 11.9277 2.47559C11.9256 2.46005 11.9221 2.44506 11.9199 2.43066C11.909 2.44014 11.8973 2.44961 11.8857 2.45996C11.4985 2.80587 10.9982 3.38996 10.2393 4.28027L9.28321 5.40137C8.9495 5.79284 8.631 6.17028 8.33106 6.43555C8.05026 6.68379 7.68435 6.92733 7.20997 6.98437L7.00001 6.99707C6.42189 6.99707 5.98986 6.71925 5.66895 6.43555C5.36901 6.17028 5.05051 5.79284 4.7168 5.40137L3.76075 4.28027C3.00179 3.38996 2.50147 2.80587 2.11426 2.45996C2.10248 2.44944 2.09016 2.44029 2.07911 2.43066C2.07696 2.44502 2.07439 2.4601 2.07227 2.47559C2.00203 2.99 2.00001 3.759 2.00001 4.92871V13C2.00001 13.5523 1.55229 14 1.00001 14C0.447721 14 5.98447e-06 13.5523 5.98447e-06 13V4.92871C5.46889e-06 3.82459 -0.00241722 2.88804 0.0908263 2.20508C0.17517 1.58762 0.397551 0.673548 1.3086 0.33789L1.47755 0.285156C2.31375 0.0705685 3.01055 0.579483 3.4463 0.96875C3.9604 1.42801 4.56677 2.14198 5.28321 2.98242L6.23926 4.10449C6.61211 4.54187 6.82433 4.78712 6.99317 4.93652C6.99517 4.93829 6.99807 4.93971 7.00001 4.94141C7.00194 4.93971 7.00484 4.93829 7.00684 4.93652C7.17568 4.78712 7.3879 4.54187 7.76075 4.10449L8.7168 2.98242C9.43325 2.14198 10.0396 1.42801 10.5537 0.96875C10.9895 0.579483 11.6863 0.0705685 12.5225 0.285156L12.6914 0.33789L12.8545 0.407226C13.6298 0.786472 13.8301 1.62623 13.9092 2.20508C14.0024 2.88804 14 3.82459 14 4.92871V13C14 13.5523 13.5523 14 13 14C12.4477 14 12 13.5523 12 13Z" fill="black" style="mix-blend-mode:color-burn"/>
</svg>
