<svg width="14" height="14" viewBox="0 0 14 14" fill="none" xmlns="http://www.w3.org/2000/svg">
<path d="M5.80334e-07 13V8.31738C5.01301e-07 6.32377 -0.000939697 4.7761 0.0732428 3.65723C0.110364 3.09739 0.168512 2.60032 0.268555 2.18555C0.36414 1.78932 0.52619 1.34384 0.857422 1.00586C1.69181 0.154589 2.95113 -0.121585 4.06543 0.301758C4.50778 0.469833 4.84093 0.806286 5.09375 1.12598C5.35835 1.46057 5.61944 1.88726 5.8877 2.37988C6.42396 3.36476 7.07268 4.77075 7.9082 6.58105C8.75675 8.41958 9.37152 9.75094 9.86817 10.6631C10.1163 11.1188 10.3141 11.4308 10.4746 11.6338C10.5804 11.7675 10.6434 11.8192 10.6621 11.834C11.0239 11.9641 11.4264 11.8744 11.7002 11.6045C11.7115 11.5821 11.7477 11.5091 11.7871 11.3457C11.8478 11.0941 11.8963 10.7277 11.9307 10.21C11.9993 9.17369 12 7.70735 12 5.68262V1C12 0.447715 12.4477 0 13 0C13.5523 0 14 0.447715 14 1V5.68262C14 7.67623 14.0009 9.2239 13.9268 10.3428C13.8896 10.9026 13.8315 11.3997 13.7314 11.8145C13.6359 12.2107 13.4738 12.6562 13.1426 12.9941C12.3082 13.8454 11.0489 14.1216 9.93457 13.6982C9.49222 13.5302 9.15907 13.1937 8.90625 12.874C8.64165 12.5394 8.38056 12.1127 8.11231 11.6201C7.57604 10.6352 6.92732 9.22925 6.0918 7.41895C5.24325 5.58042 4.62848 4.24906 4.13184 3.33691C3.88372 2.88123 3.68593 2.56921 3.52539 2.36621C3.4175 2.22978 3.35423 2.17858 3.33691 2.16504C2.9754 2.03554 2.57237 2.12487 2.29883 2.39453C2.28768 2.41644 2.25254 2.48998 2.21289 2.6543C2.1522 2.90589 2.10366 3.27232 2.06934 3.79004C2.00065 4.82631 2 6.29265 2 8.31738V13C2 13.5523 1.55229 14 1 14C0.447716 14 5.80334e-07 13.5523 5.80334e-07 13Z" fill="black" style="mix-blend-mode:overlay"/>
<path d="M5.80334e-07 13V8.31738C5.01301e-07 6.32377 -0.000939697 4.7761 0.0732428 3.65723C0.110364 3.09739 0.168512 2.60032 0.268555 2.18555C0.36414 1.78932 0.52619 1.34384 0.857422 1.00586C1.69181 0.154589 2.95113 -0.121585 4.06543 0.301758C4.50778 0.469833 4.84093 0.806286 5.09375 1.12598C5.35835 1.46057 5.61944 1.88726 5.8877 2.37988C6.42396 3.36476 7.07268 4.77075 7.9082 6.58105C8.75675 8.41958 9.37152 9.75094 9.86817 10.6631C10.1163 11.1188 10.3141 11.4308 10.4746 11.6338C10.5804 11.7675 10.6434 11.8192 10.6621 11.834C11.0239 11.9641 11.4264 11.8744 11.7002 11.6045C11.7115 11.5821 11.7477 11.5091 11.7871 11.3457C11.8478 11.0941 11.8963 10.7277 11.9307 10.21C11.9993 9.17369 12 7.70735 12 5.68262V1C12 0.447715 12.4477 0 13 0C13.5523 0 14 0.447715 14 1V5.68262C14 7.67623 14.0009 9.2239 13.9268 10.3428C13.8896 10.9026 13.8315 11.3997 13.7314 11.8145C13.6359 12.2107 13.4738 12.6562 13.1426 12.9941C12.3082 13.8454 11.0489 14.1216 9.93457 13.6982C9.49222 13.5302 9.15907 13.1937 8.90625 12.874C8.64165 12.5394 8.38056 12.1127 8.11231 11.6201C7.57604 10.6352 6.92732 9.22925 6.0918 7.41895C5.24325 5.58042 4.62848 4.24906 4.13184 3.33691C3.88372 2.88123 3.68593 2.56921 3.52539 2.36621C3.4175 2.22978 3.35423 2.17858 3.33691 2.16504C2.9754 2.03554 2.57237 2.12487 2.29883 2.39453C2.28768 2.41644 2.25254 2.48998 2.21289 2.6543C2.1522 2.90589 2.10366 3.27232 2.06934 3.79004C2.00065 4.82631 2 6.29265 2 8.31738V13C2 13.5523 1.55229 14 1 14C0.447716 14 5.80334e-07 13.5523 5.80334e-07 13Z" fill="black" fill-opacity="0.983"/>
<path d="M5.80334e-07 13V8.31738C5.01301e-07 6.32377 -0.000939697 4.7761 0.0732428 3.65723C0.110364 3.09739 0.168512 2.60032 0.268555 2.18555C0.36414 1.78932 0.52619 1.34384 0.857422 1.00586C1.69181 0.154589 2.95113 -0.121585 4.06543 0.301758C4.50778 0.469833 4.84093 0.806286 5.09375 1.12598C5.35835 1.46057 5.61944 1.88726 5.8877 2.37988C6.42396 3.36476 7.07268 4.77075 7.9082 6.58105C8.75675 8.41958 9.37152 9.75094 9.86817 10.6631C10.1163 11.1188 10.3141 11.4308 10.4746 11.6338C10.5804 11.7675 10.6434 11.8192 10.6621 11.834C11.0239 11.9641 11.4264 11.8744 11.7002 11.6045C11.7115 11.5821 11.7477 11.5091 11.7871 11.3457C11.8478 11.0941 11.8963 10.7277 11.9307 10.21C11.9993 9.17369 12 7.70735 12 5.68262V1C12 0.447715 12.4477 0 13 0C13.5523 0 14 0.447715 14 1V5.68262C14 7.67623 14.0009 9.2239 13.9268 10.3428C13.8896 10.9026 13.8315 11.3997 13.7314 11.8145C13.6359 12.2107 13.4738 12.6562 13.1426 12.9941C12.3082 13.8454 11.0489 14.1216 9.93457 13.6982C9.49222 13.5302 9.15907 13.1937 8.90625 12.874C8.64165 12.5394 8.38056 12.1127 8.11231 11.6201C7.57604 10.6352 6.92732 9.22925 6.0918 7.41895C5.24325 5.58042 4.62848 4.24906 4.13184 3.33691C3.88372 2.88123 3.68593 2.56921 3.52539 2.36621C3.4175 2.22978 3.35423 2.17858 3.33691 2.16504C2.9754 2.03554 2.57237 2.12487 2.29883 2.39453C2.28768 2.41644 2.25254 2.48998 2.21289 2.6543C2.1522 2.90589 2.10366 3.27232 2.06934 3.79004C2.00065 4.82631 2 6.29265 2 8.31738V13C2 13.5523 1.55229 14 1 14C0.447716 14 5.80334e-07 13.5523 5.80334e-07 13Z" fill="white" style="mix-blend-mode:difference"/>
<path d="M5.80334e-07 13V8.31738C5.01301e-07 6.32377 -0.000939697 4.7761 0.0732428 3.65723C0.110364 3.09739 0.168512 2.60032 0.268555 2.18555C0.36414 1.78932 0.52619 1.34384 0.857422 1.00586C1.69181 0.154589 2.95113 -0.121585 4.06543 0.301758C4.50778 0.469833 4.84093 0.806286 5.09375 1.12598C5.35835 1.46057 5.61944 1.88726 5.8877 2.37988C6.42396 3.36476 7.07268 4.77075 7.9082 6.58105C8.75675 8.41958 9.37152 9.75094 9.86817 10.6631C10.1163 11.1188 10.3141 11.4308 10.4746 11.6338C10.5804 11.7675 10.6434 11.8192 10.6621 11.834C11.0239 11.9641 11.4264 11.8744 11.7002 11.6045C11.7115 11.5821 11.7477 11.5091 11.7871 11.3457C11.8478 11.0941 11.8963 10.7277 11.9307 10.21C11.9993 9.17369 12 7.70735 12 5.68262V1C12 0.447715 12.4477 0 13 0C13.5523 0 14 0.447715 14 1V5.68262C14 7.67623 14.0009 9.2239 13.9268 10.3428C13.8896 10.9026 13.8315 11.3997 13.7314 11.8145C13.6359 12.2107 13.4738 12.6562 13.1426 12.9941C12.3082 13.8454 11.0489 14.1216 9.93457 13.6982C9.49222 13.5302 9.15907 13.1937 8.90625 12.874C8.64165 12.5394 8.38056 12.1127 8.11231 11.6201C7.57604 10.6352 6.92732 9.22925 6.0918 7.41895C5.24325 5.58042 4.62848 4.24906 4.13184 3.33691C3.88372 2.88123 3.68593 2.56921 3.52539 2.36621C3.4175 2.22978 3.35423 2.17858 3.33691 2.16504C2.9754 2.03554 2.57237 2.12487 2.29883 2.39453C2.28768 2.41644 2.25254 2.48998 2.21289 2.6543C2.1522 2.90589 2.10366 3.27232 2.06934 3.79004C2.00065 4.82631 2 6.29265 2 8.31738V13C2 13.5523 1.55229 14 1 14C0.447716 14 5.80334e-07 13.5523 5.80334e-07 13Z" fill="black" style="mix-blend-mode:saturation"/>
<path d="M5.80334e-07 13V8.31738C5.01301e-07 6.32377 -0.000939697 4.7761 0.0732428 3.65723C0.110364 3.09739 0.168512 2.60032 0.268555 2.18555C0.36414 1.78932 0.52619 1.34384 0.857422 1.00586C1.69181 0.154589 2.95113 -0.121585 4.06543 0.301758C4.50778 0.469833 4.84093 0.806286 5.09375 1.12598C5.35835 1.46057 5.61944 1.88726 5.8877 2.37988C6.42396 3.36476 7.07268 4.77075 7.9082 6.58105C8.75675 8.41958 9.37152 9.75094 9.86817 10.6631C10.1163 11.1188 10.3141 11.4308 10.4746 11.6338C10.5804 11.7675 10.6434 11.8192 10.6621 11.834C11.0239 11.9641 11.4264 11.8744 11.7002 11.6045C11.7115 11.5821 11.7477 11.5091 11.7871 11.3457C11.8478 11.0941 11.8963 10.7277 11.9307 10.21C11.9993 9.17369 12 7.70735 12 5.68262V1C12 0.447715 12.4477 0 13 0C13.5523 0 14 0.447715 14 1V5.68262C14 7.67623 14.0009 9.2239 13.9268 10.3428C13.8896 10.9026 13.8315 11.3997 13.7314 11.8145C13.6359 12.2107 13.4738 12.6562 13.1426 12.9941C12.3082 13.8454 11.0489 14.1216 9.93457 13.6982C9.49222 13.5302 9.15907 13.1937 8.90625 12.874C8.64165 12.5394 8.38056 12.1127 8.11231 11.6201C7.57604 10.6352 6.92732 9.22925 6.0918 7.41895C5.24325 5.58042 4.62848 4.24906 4.13184 3.33691C3.88372 2.88123 3.68593 2.56921 3.52539 2.36621C3.4175 2.22978 3.35423 2.17858 3.33691 2.16504C2.9754 2.03554 2.57237 2.12487 2.29883 2.39453C2.28768 2.41644 2.25254 2.48998 2.21289 2.6543C2.1522 2.90589 2.10366 3.27232 2.06934 3.79004C2.00065 4.82631 2 6.29265 2 8.31738V13C2 13.5523 1.55229 14 1 14C0.447716 14 5.80334e-07 13.5523 5.80334e-07 13Z" fill="black" style="mix-blend-mode:color-burn"/>
</svg>
