<svg width="14" height="14" viewBox="0 0 14 14" fill="none" xmlns="http://www.w3.org/2000/svg">
<path d="M12 7C12 6.05468 11.999 5.39572 11.9639 4.87988C11.9293 4.37297 11.8648 4.07695 11.7715 3.85156C11.467 3.11679 10.8832 2.53299 10.1484 2.22852C9.92305 2.13516 9.62703 2.07072 9.12012 2.03613C8.60429 2.00096 7.94532 2 7 2C6.05468 2 5.39572 2.00096 4.87988 2.03613C4.37297 2.07072 4.07695 2.13516 3.85156 2.22852C3.11679 2.53299 2.53299 3.11679 2.22852 3.85156C2.13516 4.07695 2.07072 4.37297 2.03613 4.87988C2.00096 5.39572 2 6.05468 2 7C2 7.94532 2.00096 8.60429 2.03613 9.12012C2.07072 9.62703 2.13516 9.92305 2.22852 10.1484C2.53299 10.8832 3.11679 11.467 3.85156 11.7715C4.07695 11.8648 4.37297 11.9293 4.87988 11.9639C5.39572 11.999 6.05468 12 7 12C7.94532 12 8.60429 11.999 9.12012 11.9639C9.62703 11.9293 9.92305 11.8648 10.1484 11.7715C10.8832 11.467 11.467 10.8832 11.7715 10.1484C11.8648 9.92305 11.9293 9.62703 11.9639 9.12012C11.999 8.60429 12 7.94532 12 7ZM14 7C14 7.9182 14.0009 8.65708 13.96 9.25684C13.9184 9.86546 13.8302 10.4035 13.6191 10.9131C13.1117 12.1382 12.1382 13.1117 10.9131 13.6191C10.4035 13.8302 9.86546 13.9184 9.25684 13.96C8.65708 14.0009 7.9182 14 7 14C6.0818 14 5.34293 14.0009 4.74317 13.96C4.13455 13.9184 3.59653 13.8302 3.08692 13.6191C1.86178 13.1117 0.888331 12.1382 0.380861 10.9131C0.169808 10.4035 0.0815728 9.86546 0.0400406 9.25684C-0.000880755 8.65708 1.50761e-06 7.9182 1.50761e-06 7C1.50759e-06 6.0818 -0.000880755 5.34293 0.0400406 4.74317C0.0815728 4.13455 0.169808 3.59653 0.380861 3.08692C0.888331 1.86178 1.86178 0.888331 3.08692 0.380861C3.59653 0.169808 4.13455 0.0815728 4.74317 0.0400406C5.34293 -0.000880755 6.0818 1.50759e-06 7 1.50761e-06C7.9182 1.50761e-06 8.65708 -0.000880755 9.25684 0.0400406C9.86546 0.0815728 10.4035 0.169808 10.9131 0.380861C12.1382 0.888331 13.1117 1.86178 13.6191 3.08692C13.8302 3.59653 13.9184 4.13455 13.96 4.74317C14.0009 5.34293 14 6.0818 14 7Z" fill="black" style="mix-blend-mode:overlay"/>
<path d="M12 7C12 6.05468 11.999 5.39572 11.9639 4.87988C11.9293 4.37297 11.8648 4.07695 11.7715 3.85156C11.467 3.11679 10.8832 2.53299 10.1484 2.22852C9.92305 2.13516 9.62703 2.07072 9.12012 2.03613C8.60429 2.00096 7.94532 2 7 2C6.05468 2 5.39572 2.00096 4.87988 2.03613C4.37297 2.07072 4.07695 2.13516 3.85156 2.22852C3.11679 2.53299 2.53299 3.11679 2.22852 3.85156C2.13516 4.07695 2.07072 4.37297 2.03613 4.87988C2.00096 5.39572 2 6.05468 2 7C2 7.94532 2.00096 8.60429 2.03613 9.12012C2.07072 9.62703 2.13516 9.92305 2.22852 10.1484C2.53299 10.8832 3.11679 11.467 3.85156 11.7715C4.07695 11.8648 4.37297 11.9293 4.87988 11.9639C5.39572 11.999 6.05468 12 7 12C7.94532 12 8.60429 11.999 9.12012 11.9639C9.62703 11.9293 9.92305 11.8648 10.1484 11.7715C10.8832 11.467 11.467 10.8832 11.7715 10.1484C11.8648 9.92305 11.9293 9.62703 11.9639 9.12012C11.999 8.60429 12 7.94532 12 7ZM14 7C14 7.9182 14.0009 8.65708 13.96 9.25684C13.9184 9.86546 13.8302 10.4035 13.6191 10.9131C13.1117 12.1382 12.1382 13.1117 10.9131 13.6191C10.4035 13.8302 9.86546 13.9184 9.25684 13.96C8.65708 14.0009 7.9182 14 7 14C6.0818 14 5.34293 14.0009 4.74317 13.96C4.13455 13.9184 3.59653 13.8302 3.08692 13.6191C1.86178 13.1117 0.888331 12.1382 0.380861 10.9131C0.169808 10.4035 0.0815728 9.86546 0.0400406 9.25684C-0.000880755 8.65708 1.50761e-06 7.9182 1.50761e-06 7C1.50759e-06 6.0818 -0.000880755 5.34293 0.0400406 4.74317C0.0815728 4.13455 0.169808 3.59653 0.380861 3.08692C0.888331 1.86178 1.86178 0.888331 3.08692 0.380861C3.59653 0.169808 4.13455 0.0815728 4.74317 0.0400406C5.34293 -0.000880755 6.0818 1.50759e-06 7 1.50761e-06C7.9182 1.50761e-06 8.65708 -0.000880755 9.25684 0.0400406C9.86546 0.0815728 10.4035 0.169808 10.9131 0.380861C12.1382 0.888331 13.1117 1.86178 13.6191 3.08692C13.8302 3.59653 13.9184 4.13455 13.96 4.74317C14.0009 5.34293 14 6.0818 14 7Z" fill="black" fill-opacity="0.983"/>
<path d="M12 7C12 6.05468 11.999 5.39572 11.9639 4.87988C11.9293 4.37297 11.8648 4.07695 11.7715 3.85156C11.467 3.11679 10.8832 2.53299 10.1484 2.22852C9.92305 2.13516 9.62703 2.07072 9.12012 2.03613C8.60429 2.00096 7.94532 2 7 2C6.05468 2 5.39572 2.00096 4.87988 2.03613C4.37297 2.07072 4.07695 2.13516 3.85156 2.22852C3.11679 2.53299 2.53299 3.11679 2.22852 3.85156C2.13516 4.07695 2.07072 4.37297 2.03613 4.87988C2.00096 5.39572 2 6.05468 2 7C2 7.94532 2.00096 8.60429 2.03613 9.12012C2.07072 9.62703 2.13516 9.92305 2.22852 10.1484C2.53299 10.8832 3.11679 11.467 3.85156 11.7715C4.07695 11.8648 4.37297 11.9293 4.87988 11.9639C5.39572 11.999 6.05468 12 7 12C7.94532 12 8.60429 11.999 9.12012 11.9639C9.62703 11.9293 9.92305 11.8648 10.1484 11.7715C10.8832 11.467 11.467 10.8832 11.7715 10.1484C11.8648 9.92305 11.9293 9.62703 11.9639 9.12012C11.999 8.60429 12 7.94532 12 7ZM14 7C14 7.9182 14.0009 8.65708 13.96 9.25684C13.9184 9.86546 13.8302 10.4035 13.6191 10.9131C13.1117 12.1382 12.1382 13.1117 10.9131 13.6191C10.4035 13.8302 9.86546 13.9184 9.25684 13.96C8.65708 14.0009 7.9182 14 7 14C6.0818 14 5.34293 14.0009 4.74317 13.96C4.13455 13.9184 3.59653 13.8302 3.08692 13.6191C1.86178 13.1117 0.888331 12.1382 0.380861 10.9131C0.169808 10.4035 0.0815728 9.86546 0.0400406 9.25684C-0.000880755 8.65708 1.50761e-06 7.9182 1.50761e-06 7C1.50759e-06 6.0818 -0.000880755 5.34293 0.0400406 4.74317C0.0815728 4.13455 0.169808 3.59653 0.380861 3.08692C0.888331 1.86178 1.86178 0.888331 3.08692 0.380861C3.59653 0.169808 4.13455 0.0815728 4.74317 0.0400406C5.34293 -0.000880755 6.0818 1.50759e-06 7 1.50761e-06C7.9182 1.50761e-06 8.65708 -0.000880755 9.25684 0.0400406C9.86546 0.0815728 10.4035 0.169808 10.9131 0.380861C12.1382 0.888331 13.1117 1.86178 13.6191 3.08692C13.8302 3.59653 13.9184 4.13455 13.96 4.74317C14.0009 5.34293 14 6.0818 14 7Z" fill="white" style="mix-blend-mode:difference"/>
<path d="M12 7C12 6.05468 11.999 5.39572 11.9639 4.87988C11.9293 4.37297 11.8648 4.07695 11.7715 3.85156C11.467 3.11679 10.8832 2.53299 10.1484 2.22852C9.92305 2.13516 9.62703 2.07072 9.12012 2.03613C8.60429 2.00096 7.94532 2 7 2C6.05468 2 5.39572 2.00096 4.87988 2.03613C4.37297 2.07072 4.07695 2.13516 3.85156 2.22852C3.11679 2.53299 2.53299 3.11679 2.22852 3.85156C2.13516 4.07695 2.07072 4.37297 2.03613 4.87988C2.00096 5.39572 2 6.05468 2 7C2 7.94532 2.00096 8.60429 2.03613 9.12012C2.07072 9.62703 2.13516 9.92305 2.22852 10.1484C2.53299 10.8832 3.11679 11.467 3.85156 11.7715C4.07695 11.8648 4.37297 11.9293 4.87988 11.9639C5.39572 11.999 6.05468 12 7 12C7.94532 12 8.60429 11.999 9.12012 11.9639C9.62703 11.9293 9.92305 11.8648 10.1484 11.7715C10.8832 11.467 11.467 10.8832 11.7715 10.1484C11.8648 9.92305 11.9293 9.62703 11.9639 9.12012C11.999 8.60429 12 7.94532 12 7ZM14 7C14 7.9182 14.0009 8.65708 13.96 9.25684C13.9184 9.86546 13.8302 10.4035 13.6191 10.9131C13.1117 12.1382 12.1382 13.1117 10.9131 13.6191C10.4035 13.8302 9.86546 13.9184 9.25684 13.96C8.65708 14.0009 7.9182 14 7 14C6.0818 14 5.34293 14.0009 4.74317 13.96C4.13455 13.9184 3.59653 13.8302 3.08692 13.6191C1.86178 13.1117 0.888331 12.1382 0.380861 10.9131C0.169808 10.4035 0.0815728 9.86546 0.0400406 9.25684C-0.000880755 8.65708 1.50761e-06 7.9182 1.50761e-06 7C1.50759e-06 6.0818 -0.000880755 5.34293 0.0400406 4.74317C0.0815728 4.13455 0.169808 3.59653 0.380861 3.08692C0.888331 1.86178 1.86178 0.888331 3.08692 0.380861C3.59653 0.169808 4.13455 0.0815728 4.74317 0.0400406C5.34293 -0.000880755 6.0818 1.50759e-06 7 1.50761e-06C7.9182 1.50761e-06 8.65708 -0.000880755 9.25684 0.0400406C9.86546 0.0815728 10.4035 0.169808 10.9131 0.380861C12.1382 0.888331 13.1117 1.86178 13.6191 3.08692C13.8302 3.59653 13.9184 4.13455 13.96 4.74317C14.0009 5.34293 14 6.0818 14 7Z" fill="black" style="mix-blend-mode:saturation"/>
<path d="M12 7C12 6.05468 11.999 5.39572 11.9639 4.87988C11.9293 4.37297 11.8648 4.07695 11.7715 3.85156C11.467 3.11679 10.8832 2.53299 10.1484 2.22852C9.92305 2.13516 9.62703 2.07072 9.12012 2.03613C8.60429 2.00096 7.94532 2 7 2C6.05468 2 5.39572 2.00096 4.87988 2.03613C4.37297 2.07072 4.07695 2.13516 3.85156 2.22852C3.11679 2.53299 2.53299 3.11679 2.22852 3.85156C2.13516 4.07695 2.07072 4.37297 2.03613 4.87988C2.00096 5.39572 2 6.05468 2 7C2 7.94532 2.00096 8.60429 2.03613 9.12012C2.07072 9.62703 2.13516 9.92305 2.22852 10.1484C2.53299 10.8832 3.11679 11.467 3.85156 11.7715C4.07695 11.8648 4.37297 11.9293 4.87988 11.9639C5.39572 11.999 6.05468 12 7 12C7.94532 12 8.60429 11.999 9.12012 11.9639C9.62703 11.9293 9.92305 11.8648 10.1484 11.7715C10.8832 11.467 11.467 10.8832 11.7715 10.1484C11.8648 9.92305 11.9293 9.62703 11.9639 9.12012C11.999 8.60429 12 7.94532 12 7ZM14 7C14 7.9182 14.0009 8.65708 13.96 9.25684C13.9184 9.86546 13.8302 10.4035 13.6191 10.9131C13.1117 12.1382 12.1382 13.1117 10.9131 13.6191C10.4035 13.8302 9.86546 13.9184 9.25684 13.96C8.65708 14.0009 7.9182 14 7 14C6.0818 14 5.34293 14.0009 4.74317 13.96C4.13455 13.9184 3.59653 13.8302 3.08692 13.6191C1.86178 13.1117 0.888331 12.1382 0.380861 10.9131C0.169808 10.4035 0.0815728 9.86546 0.0400406 9.25684C-0.000880755 8.65708 1.50761e-06 7.9182 1.50761e-06 7C1.50759e-06 6.0818 -0.000880755 5.34293 0.0400406 4.74317C0.0815728 4.13455 0.169808 3.59653 0.380861 3.08692C0.888331 1.86178 1.86178 0.888331 3.08692 0.380861C3.59653 0.169808 4.13455 0.0815728 4.74317 0.0400406C5.34293 -0.000880755 6.0818 1.50759e-06 7 1.50761e-06C7.9182 1.50761e-06 8.65708 -0.000880755 9.25684 0.0400406C9.86546 0.0815728 10.4035 0.169808 10.9131 0.380861C12.1382 0.888331 13.1117 1.86178 13.6191 3.08692C13.8302 3.59653 13.9184 4.13455 13.96 4.74317C14.0009 5.34293 14 6.0818 14 7Z" fill="black" style="mix-blend-mode:color-burn"/>
</svg>
