<svg width="14" height="14" viewBox="0 0 14 14" fill="none" xmlns="http://www.w3.org/2000/svg">
<path d="M12 4.00001C12 3.52038 11.9996 3.21062 11.9834 2.97364C11.9678 2.74573 11.9411 2.6588 11.9238 2.61719C11.8223 2.37227 11.6277 2.17767 11.3828 2.07618C11.3412 2.05894 11.2543 2.03216 11.0264 2.01661C10.7894 2.00044 10.4796 2.00001 10 2.00001H5.00001C4.02893 2.00001 3.40099 2.00228 2.93848 2.06446C2.50494 2.12278 2.36908 2.21686 2.29297 2.29297C2.21686 2.36908 2.12278 2.50494 2.06446 2.93848C2.00228 3.40099 2.00001 4.02893 2.00001 5.00001V6.00001H10C10.4796 6.00001 10.7894 5.99957 11.0264 5.9834C11.2543 5.96785 11.3412 5.94107 11.3828 5.92383C11.6277 5.82234 11.8223 5.62774 11.9238 5.38282C11.9411 5.34121 11.9678 5.25428 11.9834 5.02637C11.9996 4.78939 12 4.47963 12 4.00001ZM14 4.00001C14 4.45214 14.0004 4.84132 13.9785 5.16212C13.956 5.49194 13.9065 5.82251 13.7715 6.14844C13.467 6.88322 12.8832 7.46702 12.1484 7.77149C11.8225 7.90649 11.4919 7.95602 11.1621 7.97852C10.8413 8.00039 10.4521 8.00001 10 8.00001H2.00001V13L1.99512 13.1025C1.94379 13.6067 1.51768 14 1.00001 14C0.482329 14 0.05622 13.6067 0.00488847 13.1025L5.65705e-06 13V5.00001C5.65705e-06 4.08547 -0.00222736 3.29863 0.0820369 2.67188C0.17019 2.01648 0.369331 1.38849 0.878912 0.878912C1.38849 0.369331 2.01648 0.17019 2.67188 0.0820369C3.29863 -0.00222736 4.08547 5.65705e-06 5.00001 5.65705e-06H10C10.4521 5.65705e-06 10.8413 -0.000382956 11.1621 0.02149C11.4919 0.0439941 11.8225 0.0935173 12.1484 0.228521C12.8832 0.532994 13.467 1.11679 13.7715 1.85157C13.9065 2.1775 13.956 2.50807 13.9785 2.8379C14.0004 3.15869 14 3.54787 14 4.00001Z" fill="black" style="mix-blend-mode:overlay"/>
<path d="M12 4.00001C12 3.52038 11.9996 3.21062 11.9834 2.97364C11.9678 2.74573 11.9411 2.6588 11.9238 2.61719C11.8223 2.37227 11.6277 2.17767 11.3828 2.07618C11.3412 2.05894 11.2543 2.03216 11.0264 2.01661C10.7894 2.00044 10.4796 2.00001 10 2.00001H5.00001C4.02893 2.00001 3.40099 2.00228 2.93848 2.06446C2.50494 2.12278 2.36908 2.21686 2.29297 2.29297C2.21686 2.36908 2.12278 2.50494 2.06446 2.93848C2.00228 3.40099 2.00001 4.02893 2.00001 5.00001V6.00001H10C10.4796 6.00001 10.7894 5.99957 11.0264 5.9834C11.2543 5.96785 11.3412 5.94107 11.3828 5.92383C11.6277 5.82234 11.8223 5.62774 11.9238 5.38282C11.9411 5.34121 11.9678 5.25428 11.9834 5.02637C11.9996 4.78939 12 4.47963 12 4.00001ZM14 4.00001C14 4.45214 14.0004 4.84132 13.9785 5.16212C13.956 5.49194 13.9065 5.82251 13.7715 6.14844C13.467 6.88322 12.8832 7.46702 12.1484 7.77149C11.8225 7.90649 11.4919 7.95602 11.1621 7.97852C10.8413 8.00039 10.4521 8.00001 10 8.00001H2.00001V13L1.99512 13.1025C1.94379 13.6067 1.51768 14 1.00001 14C0.482329 14 0.05622 13.6067 0.00488847 13.1025L5.65705e-06 13V5.00001C5.65705e-06 4.08547 -0.00222736 3.29863 0.0820369 2.67188C0.17019 2.01648 0.369331 1.38849 0.878912 0.878912C1.38849 0.369331 2.01648 0.17019 2.67188 0.0820369C3.29863 -0.00222736 4.08547 5.65705e-06 5.00001 5.65705e-06H10C10.4521 5.65705e-06 10.8413 -0.000382956 11.1621 0.02149C11.4919 0.0439941 11.8225 0.0935173 12.1484 0.228521C12.8832 0.532994 13.467 1.11679 13.7715 1.85157C13.9065 2.1775 13.956 2.50807 13.9785 2.8379C14.0004 3.15869 14 3.54787 14 4.00001Z" fill="black" fill-opacity="0.983"/>
<path d="M12 4.00001C12 3.52038 11.9996 3.21062 11.9834 2.97364C11.9678 2.74573 11.9411 2.6588 11.9238 2.61719C11.8223 2.37227 11.6277 2.17767 11.3828 2.07618C11.3412 2.05894 11.2543 2.03216 11.0264 2.01661C10.7894 2.00044 10.4796 2.00001 10 2.00001H5.00001C4.02893 2.00001 3.40099 2.00228 2.93848 2.06446C2.50494 2.12278 2.36908 2.21686 2.29297 2.29297C2.21686 2.36908 2.12278 2.50494 2.06446 2.93848C2.00228 3.40099 2.00001 4.02893 2.00001 5.00001V6.00001H10C10.4796 6.00001 10.7894 5.99957 11.0264 5.9834C11.2543 5.96785 11.3412 5.94107 11.3828 5.92383C11.6277 5.82234 11.8223 5.62774 11.9238 5.38282C11.9411 5.34121 11.9678 5.25428 11.9834 5.02637C11.9996 4.78939 12 4.47963 12 4.00001ZM14 4.00001C14 4.45214 14.0004 4.84132 13.9785 5.16212C13.956 5.49194 13.9065 5.82251 13.7715 6.14844C13.467 6.88322 12.8832 7.46702 12.1484 7.77149C11.8225 7.90649 11.4919 7.95602 11.1621 7.97852C10.8413 8.00039 10.4521 8.00001 10 8.00001H2.00001V13L1.99512 13.1025C1.94379 13.6067 1.51768 14 1.00001 14C0.482329 14 0.05622 13.6067 0.00488847 13.1025L5.65705e-06 13V5.00001C5.65705e-06 4.08547 -0.00222736 3.29863 0.0820369 2.67188C0.17019 2.01648 0.369331 1.38849 0.878912 0.878912C1.38849 0.369331 2.01648 0.17019 2.67188 0.0820369C3.29863 -0.00222736 4.08547 5.65705e-06 5.00001 5.65705e-06H10C10.4521 5.65705e-06 10.8413 -0.000382956 11.1621 0.02149C11.4919 0.0439941 11.8225 0.0935173 12.1484 0.228521C12.8832 0.532994 13.467 1.11679 13.7715 1.85157C13.9065 2.1775 13.956 2.50807 13.9785 2.8379C14.0004 3.15869 14 3.54787 14 4.00001Z" fill="white" style="mix-blend-mode:difference"/>
<path d="M12 4.00001C12 3.52038 11.9996 3.21062 11.9834 2.97364C11.9678 2.74573 11.9411 2.6588 11.9238 2.61719C11.8223 2.37227 11.6277 2.17767 11.3828 2.07618C11.3412 2.05894 11.2543 2.03216 11.0264 2.01661C10.7894 2.00044 10.4796 2.00001 10 2.00001H5.00001C4.02893 2.00001 3.40099 2.00228 2.93848 2.06446C2.50494 2.12278 2.36908 2.21686 2.29297 2.29297C2.21686 2.36908 2.12278 2.50494 2.06446 2.93848C2.00228 3.40099 2.00001 4.02893 2.00001 5.00001V6.00001H10C10.4796 6.00001 10.7894 5.99957 11.0264 5.9834C11.2543 5.96785 11.3412 5.94107 11.3828 5.92383C11.6277 5.82234 11.8223 5.62774 11.9238 5.38282C11.9411 5.34121 11.9678 5.25428 11.9834 5.02637C11.9996 4.78939 12 4.47963 12 4.00001ZM14 4.00001C14 4.45214 14.0004 4.84132 13.9785 5.16212C13.956 5.49194 13.9065 5.82251 13.7715 6.14844C13.467 6.88322 12.8832 7.46702 12.1484 7.77149C11.8225 7.90649 11.4919 7.95602 11.1621 7.97852C10.8413 8.00039 10.4521 8.00001 10 8.00001H2.00001V13L1.99512 13.1025C1.94379 13.6067 1.51768 14 1.00001 14C0.482329 14 0.05622 13.6067 0.00488847 13.1025L5.65705e-06 13V5.00001C5.65705e-06 4.08547 -0.00222736 3.29863 0.0820369 2.67188C0.17019 2.01648 0.369331 1.38849 0.878912 0.878912C1.38849 0.369331 2.01648 0.17019 2.67188 0.0820369C3.29863 -0.00222736 4.08547 5.65705e-06 5.00001 5.65705e-06H10C10.4521 5.65705e-06 10.8413 -0.000382956 11.1621 0.02149C11.4919 0.0439941 11.8225 0.0935173 12.1484 0.228521C12.8832 0.532994 13.467 1.11679 13.7715 1.85157C13.9065 2.1775 13.956 2.50807 13.9785 2.8379C14.0004 3.15869 14 3.54787 14 4.00001Z" fill="black" style="mix-blend-mode:saturation"/>
<path d="M12 4.00001C12 3.52038 11.9996 3.21062 11.9834 2.97364C11.9678 2.74573 11.9411 2.6588 11.9238 2.61719C11.8223 2.37227 11.6277 2.17767 11.3828 2.07618C11.3412 2.05894 11.2543 2.03216 11.0264 2.01661C10.7894 2.00044 10.4796 2.00001 10 2.00001H5.00001C4.02893 2.00001 3.40099 2.00228 2.93848 2.06446C2.50494 2.12278 2.36908 2.21686 2.29297 2.29297C2.21686 2.36908 2.12278 2.50494 2.06446 2.93848C2.00228 3.40099 2.00001 4.02893 2.00001 5.00001V6.00001H10C10.4796 6.00001 10.7894 5.99957 11.0264 5.9834C11.2543 5.96785 11.3412 5.94107 11.3828 5.92383C11.6277 5.82234 11.8223 5.62774 11.9238 5.38282C11.9411 5.34121 11.9678 5.25428 11.9834 5.02637C11.9996 4.78939 12 4.47963 12 4.00001ZM14 4.00001C14 4.45214 14.0004 4.84132 13.9785 5.16212C13.956 5.49194 13.9065 5.82251 13.7715 6.14844C13.467 6.88322 12.8832 7.46702 12.1484 7.77149C11.8225 7.90649 11.4919 7.95602 11.1621 7.97852C10.8413 8.00039 10.4521 8.00001 10 8.00001H2.00001V13L1.99512 13.1025C1.94379 13.6067 1.51768 14 1.00001 14C0.482329 14 0.05622 13.6067 0.00488847 13.1025L5.65705e-06 13V5.00001C5.65705e-06 4.08547 -0.00222736 3.29863 0.0820369 2.67188C0.17019 2.01648 0.369331 1.38849 0.878912 0.878912C1.38849 0.369331 2.01648 0.17019 2.67188 0.0820369C3.29863 -0.00222736 4.08547 5.65705e-06 5.00001 5.65705e-06H10C10.4521 5.65705e-06 10.8413 -0.000382956 11.1621 0.02149C11.4919 0.0439941 11.8225 0.0935173 12.1484 0.228521C12.8832 0.532994 13.467 1.11679 13.7715 1.85157C13.9065 2.1775 13.956 2.50807 13.9785 2.8379C14.0004 3.15869 14 3.54787 14 4.00001Z" fill="black" style="mix-blend-mode:color-burn"/>
</svg>
