<svg width="14" height="14" viewBox="0 0 14 14" fill="none" xmlns="http://www.w3.org/2000/svg">
<path d="M12 10C12 8.89543 11.1046 8 10 8H4C1.79086 8 0 6.20914 0 4C1.61067e-08 1.79086 1.79086 1.61064e-08 4 0H13C13.5523 0 14 0.447715 14 1C14 1.55228 13.5523 2 13 2H4C2.89543 2 2 2.89543 2 4C2 5.10457 2.89543 6 4 6H10C12.2091 6 14 7.79086 14 10C14 12.2091 12.2091 14 10 14H1C0.447715 14 0 13.5523 0 13C6.4426e-08 12.4477 0.447715 12 1 12H10C11.1046 12 12 11.1046 12 10Z" fill="black" style="mix-blend-mode:overlay"/>
<path d="M12 10C12 8.89543 11.1046 8 10 8H4C1.79086 8 0 6.20914 0 4C1.61067e-08 1.79086 1.79086 1.61064e-08 4 0H13C13.5523 0 14 0.447715 14 1C14 1.55228 13.5523 2 13 2H4C2.89543 2 2 2.89543 2 4C2 5.10457 2.89543 6 4 6H10C12.2091 6 14 7.79086 14 10C14 12.2091 12.2091 14 10 14H1C0.447715 14 0 13.5523 0 13C6.4426e-08 12.4477 0.447715 12 1 12H10C11.1046 12 12 11.1046 12 10Z" fill="black" fill-opacity="0.983"/>
<path d="M12 10C12 8.89543 11.1046 8 10 8H4C1.79086 8 0 6.20914 0 4C1.61067e-08 1.79086 1.79086 1.61064e-08 4 0H13C13.5523 0 14 0.447715 14 1C14 1.55228 13.5523 2 13 2H4C2.89543 2 2 2.89543 2 4C2 5.10457 2.89543 6 4 6H10C12.2091 6 14 7.79086 14 10C14 12.2091 12.2091 14 10 14H1C0.447715 14 0 13.5523 0 13C6.4426e-08 12.4477 0.447715 12 1 12H10C11.1046 12 12 11.1046 12 10Z" fill="white" style="mix-blend-mode:difference"/>
<path d="M12 10C12 8.89543 11.1046 8 10 8H4C1.79086 8 0 6.20914 0 4C1.61067e-08 1.79086 1.79086 1.61064e-08 4 0H13C13.5523 0 14 0.447715 14 1C14 1.55228 13.5523 2 13 2H4C2.89543 2 2 2.89543 2 4C2 5.10457 2.89543 6 4 6H10C12.2091 6 14 7.79086 14 10C14 12.2091 12.2091 14 10 14H1C0.447715 14 0 13.5523 0 13C6.4426e-08 12.4477 0.447715 12 1 12H10C11.1046 12 12 11.1046 12 10Z" fill="black" style="mix-blend-mode:saturation"/>
<path d="M12 10C12 8.89543 11.1046 8 10 8H4C1.79086 8 0 6.20914 0 4C1.61067e-08 1.79086 1.79086 1.61064e-08 4 0H13C13.5523 0 14 0.447715 14 1C14 1.55228 13.5523 2 13 2H4C2.89543 2 2 2.89543 2 4C2 5.10457 2.89543 6 4 6H10C12.2091 6 14 7.79086 14 10C14 12.2091 12.2091 14 10 14H1C0.447715 14 0 13.5523 0 13C6.4426e-08 12.4477 0.447715 12 1 12H10C11.1046 12 12 11.1046 12 10Z" fill="black" style="mix-blend-mode:color-burn"/>
</svg>
