<svg width="14" height="14" viewBox="0 0 14 14" fill="none" xmlns="http://www.w3.org/2000/svg">
<path d="M6 13V2H1C0.447715 2 0 1.55228 0 1C0 0.447715 0.447715 0 1 0H13L13.1025 0.00488281C13.6067 0.0562144 14 0.482323 14 1C14 1.51768 13.6067 1.94379 13.1025 1.99512L13 2H8V13C8 13.5523 7.55228 14 7 14C6.44772 14 6 13.5523 6 13Z" fill="black" style="mix-blend-mode:overlay"/>
<path d="M6 13V2H1C0.447715 2 0 1.55228 0 1C0 0.447715 0.447715 0 1 0H13L13.1025 0.00488281C13.6067 0.0562144 14 0.482323 14 1C14 1.51768 13.6067 1.94379 13.1025 1.99512L13 2H8V13C8 13.5523 7.55228 14 7 14C6.44772 14 6 13.5523 6 13Z" fill="black" fill-opacity="0.983"/>
<path d="M6 13V2H1C0.447715 2 0 1.55228 0 1C0 0.447715 0.447715 0 1 0H13L13.1025 0.00488281C13.6067 0.0562144 14 0.482323 14 1C14 1.51768 13.6067 1.94379 13.1025 1.99512L13 2H8V13C8 13.5523 7.55228 14 7 14C6.44772 14 6 13.5523 6 13Z" fill="white" style="mix-blend-mode:difference"/>
<path d="M6 13V2H1C0.447715 2 0 1.55228 0 1C0 0.447715 0.447715 0 1 0H13L13.1025 0.00488281C13.6067 0.0562144 14 0.482323 14 1C14 1.51768 13.6067 1.94379 13.1025 1.99512L13 2H8V13C8 13.5523 7.55228 14 7 14C6.44772 14 6 13.5523 6 13Z" fill="black" style="mix-blend-mode:saturation"/>
<path d="M6 13V2H1C0.447715 2 0 1.55228 0 1C0 0.447715 0.447715 0 1 0H13L13.1025 0.00488281C13.6067 0.0562144 14 0.482323 14 1C14 1.51768 13.6067 1.94379 13.1025 1.99512L13 2H8V13C8 13.5523 7.55228 14 7 14C6.44772 14 6 13.5523 6 13Z" fill="black" style="mix-blend-mode:color-burn"/>
</svg>
