<svg width="14" height="14" viewBox="0 0 14 14" fill="none" xmlns="http://www.w3.org/2000/svg">
<path d="M1.50772e-06 7L1.50772e-06 1C2.72264e-06 0.447716 0.447718 0 1 0C1.55229 0 2 0.447716 2 1L2 7C2 7.94532 2.00096 8.60428 2.03613 9.12012C2.07072 9.62703 2.13516 9.92305 2.22852 10.1484C2.53299 10.8832 3.11679 11.467 3.85156 11.7715C4.07695 11.8648 4.37297 11.9293 4.87988 11.9639C5.39572 11.999 6.05468 12 7 12C7.94532 12 8.60429 11.999 9.12012 11.9639C9.62703 11.9293 9.92305 11.8648 10.1484 11.7715C10.8832 11.467 11.467 10.8832 11.7715 10.1484C11.8648 9.92305 11.9293 9.62703 11.9639 9.12012C11.999 8.60428 12 7.94532 12 7L12 1C12 0.447716 12.4477 5.15404e-07 13 0C13.5523 0 14 0.447715 14 1L14 7C14 7.9182 14.0009 8.65708 13.96 9.25684C13.9184 9.86545 13.8302 10.4035 13.6191 10.9131C13.1117 12.1382 12.1382 13.1117 10.9131 13.6191C10.4035 13.8302 9.86546 13.9184 9.25684 13.96C8.65708 14.0009 7.9182 14 7 14C6.0818 14 5.34293 14.0009 4.74317 13.96C4.13455 13.9184 3.59653 13.8302 3.08692 13.6191C1.86178 13.1117 0.888331 12.1382 0.380861 10.9131C0.169808 10.4035 0.0815728 9.86545 0.0400406 9.25684C-0.000880778 8.65708 1.50772e-06 7.9182 1.50772e-06 7Z" fill="black" style="mix-blend-mode:overlay"/>
<path d="M1.50772e-06 7L1.50772e-06 1C2.72264e-06 0.447716 0.447718 0 1 0C1.55229 0 2 0.447716 2 1L2 7C2 7.94532 2.00096 8.60428 2.03613 9.12012C2.07072 9.62703 2.13516 9.92305 2.22852 10.1484C2.53299 10.8832 3.11679 11.467 3.85156 11.7715C4.07695 11.8648 4.37297 11.9293 4.87988 11.9639C5.39572 11.999 6.05468 12 7 12C7.94532 12 8.60429 11.999 9.12012 11.9639C9.62703 11.9293 9.92305 11.8648 10.1484 11.7715C10.8832 11.467 11.467 10.8832 11.7715 10.1484C11.8648 9.92305 11.9293 9.62703 11.9639 9.12012C11.999 8.60428 12 7.94532 12 7L12 1C12 0.447716 12.4477 5.15404e-07 13 0C13.5523 0 14 0.447715 14 1L14 7C14 7.9182 14.0009 8.65708 13.96 9.25684C13.9184 9.86545 13.8302 10.4035 13.6191 10.9131C13.1117 12.1382 12.1382 13.1117 10.9131 13.6191C10.4035 13.8302 9.86546 13.9184 9.25684 13.96C8.65708 14.0009 7.9182 14 7 14C6.0818 14 5.34293 14.0009 4.74317 13.96C4.13455 13.9184 3.59653 13.8302 3.08692 13.6191C1.86178 13.1117 0.888331 12.1382 0.380861 10.9131C0.169808 10.4035 0.0815728 9.86545 0.0400406 9.25684C-0.000880778 8.65708 1.50772e-06 7.9182 1.50772e-06 7Z" fill="black" fill-opacity="0.983"/>
<path d="M1.50772e-06 7L1.50772e-06 1C2.72264e-06 0.447716 0.447718 0 1 0C1.55229 0 2 0.447716 2 1L2 7C2 7.94532 2.00096 8.60428 2.03613 9.12012C2.07072 9.62703 2.13516 9.92305 2.22852 10.1484C2.53299 10.8832 3.11679 11.467 3.85156 11.7715C4.07695 11.8648 4.37297 11.9293 4.87988 11.9639C5.39572 11.999 6.05468 12 7 12C7.94532 12 8.60429 11.999 9.12012 11.9639C9.62703 11.9293 9.92305 11.8648 10.1484 11.7715C10.8832 11.467 11.467 10.8832 11.7715 10.1484C11.8648 9.92305 11.9293 9.62703 11.9639 9.12012C11.999 8.60428 12 7.94532 12 7L12 1C12 0.447716 12.4477 5.15404e-07 13 0C13.5523 0 14 0.447715 14 1L14 7C14 7.9182 14.0009 8.65708 13.96 9.25684C13.9184 9.86545 13.8302 10.4035 13.6191 10.9131C13.1117 12.1382 12.1382 13.1117 10.9131 13.6191C10.4035 13.8302 9.86546 13.9184 9.25684 13.96C8.65708 14.0009 7.9182 14 7 14C6.0818 14 5.34293 14.0009 4.74317 13.96C4.13455 13.9184 3.59653 13.8302 3.08692 13.6191C1.86178 13.1117 0.888331 12.1382 0.380861 10.9131C0.169808 10.4035 0.0815728 9.86545 0.0400406 9.25684C-0.000880778 8.65708 1.50772e-06 7.9182 1.50772e-06 7Z" fill="white" style="mix-blend-mode:difference"/>
<path d="M1.50772e-06 7L1.50772e-06 1C2.72264e-06 0.447716 0.447718 0 1 0C1.55229 0 2 0.447716 2 1L2 7C2 7.94532 2.00096 8.60428 2.03613 9.12012C2.07072 9.62703 2.13516 9.92305 2.22852 10.1484C2.53299 10.8832 3.11679 11.467 3.85156 11.7715C4.07695 11.8648 4.37297 11.9293 4.87988 11.9639C5.39572 11.999 6.05468 12 7 12C7.94532 12 8.60429 11.999 9.12012 11.9639C9.62703 11.9293 9.92305 11.8648 10.1484 11.7715C10.8832 11.467 11.467 10.8832 11.7715 10.1484C11.8648 9.92305 11.9293 9.62703 11.9639 9.12012C11.999 8.60428 12 7.94532 12 7L12 1C12 0.447716 12.4477 5.15404e-07 13 0C13.5523 0 14 0.447715 14 1L14 7C14 7.9182 14.0009 8.65708 13.96 9.25684C13.9184 9.86545 13.8302 10.4035 13.6191 10.9131C13.1117 12.1382 12.1382 13.1117 10.9131 13.6191C10.4035 13.8302 9.86546 13.9184 9.25684 13.96C8.65708 14.0009 7.9182 14 7 14C6.0818 14 5.34293 14.0009 4.74317 13.96C4.13455 13.9184 3.59653 13.8302 3.08692 13.6191C1.86178 13.1117 0.888331 12.1382 0.380861 10.9131C0.169808 10.4035 0.0815728 9.86545 0.0400406 9.25684C-0.000880778 8.65708 1.50772e-06 7.9182 1.50772e-06 7Z" fill="black" style="mix-blend-mode:saturation"/>
<path d="M1.50772e-06 7L1.50772e-06 1C2.72264e-06 0.447716 0.447718 0 1 0C1.55229 0 2 0.447716 2 1L2 7C2 7.94532 2.00096 8.60428 2.03613 9.12012C2.07072 9.62703 2.13516 9.92305 2.22852 10.1484C2.53299 10.8832 3.11679 11.467 3.85156 11.7715C4.07695 11.8648 4.37297 11.9293 4.87988 11.9639C5.39572 11.999 6.05468 12 7 12C7.94532 12 8.60429 11.999 9.12012 11.9639C9.62703 11.9293 9.92305 11.8648 10.1484 11.7715C10.8832 11.467 11.467 10.8832 11.7715 10.1484C11.8648 9.92305 11.9293 9.62703 11.9639 9.12012C11.999 8.60428 12 7.94532 12 7L12 1C12 0.447716 12.4477 5.15404e-07 13 0C13.5523 0 14 0.447715 14 1L14 7C14 7.9182 14.0009 8.65708 13.96 9.25684C13.9184 9.86545 13.8302 10.4035 13.6191 10.9131C13.1117 12.1382 12.1382 13.1117 10.9131 13.6191C10.4035 13.8302 9.86546 13.9184 9.25684 13.96C8.65708 14.0009 7.9182 14 7 14C6.0818 14 5.34293 14.0009 4.74317 13.96C4.13455 13.9184 3.59653 13.8302 3.08692 13.6191C1.86178 13.1117 0.888331 12.1382 0.380861 10.9131C0.169808 10.4035 0.0815728 9.86545 0.0400406 9.25684C-0.000880778 8.65708 1.50772e-06 7.9182 1.50772e-06 7Z" fill="black" style="mix-blend-mode:color-burn"/>
</svg>
