<svg width="14" height="14" viewBox="0 0 14 14" fill="none" xmlns="http://www.w3.org/2000/svg">
<path d="M12.0677 0.638991C12.2672 0.124132 12.8467 -0.131634 13.3616 0.0677024C13.8765 0.267173 14.1323 0.846696 13.9329 1.36165L11.6634 7.22493C10.8888 9.22608 10.27 10.8307 9.66341 11.9222C9.08319 12.9662 8.28898 13.9603 7.00032 13.9603C5.71166 13.9603 4.91745 12.9662 4.33723 11.9222C3.73067 10.8307 3.11187 9.22608 2.33723 7.22493L0.0677024 1.36165C-0.131634 0.846696 0.124132 0.267173 0.638991 0.0677024C1.15394 -0.131634 1.73347 0.124132 1.93294 0.638991L4.20247 6.50325C5.00098 8.56607 5.56266 10.01 6.08528 10.9505C6.63421 11.9383 6.91873 11.9603 7.00032 11.9603C7.08191 11.9603 7.36643 11.9383 7.91536 10.9505C8.43798 10.01 8.99966 8.56607 9.79817 6.50325L12.0677 0.638991Z" fill="black" style="mix-blend-mode:overlay"/>
<path d="M12.0677 0.638991C12.2672 0.124132 12.8467 -0.131634 13.3616 0.0677024C13.8765 0.267173 14.1323 0.846696 13.9329 1.36165L11.6634 7.22493C10.8888 9.22608 10.27 10.8307 9.66341 11.9222C9.08319 12.9662 8.28898 13.9603 7.00032 13.9603C5.71166 13.9603 4.91745 12.9662 4.33723 11.9222C3.73067 10.8307 3.11187 9.22608 2.33723 7.22493L0.0677024 1.36165C-0.131634 0.846696 0.124132 0.267173 0.638991 0.0677024C1.15394 -0.131634 1.73347 0.124132 1.93294 0.638991L4.20247 6.50325C5.00098 8.56607 5.56266 10.01 6.08528 10.9505C6.63421 11.9383 6.91873 11.9603 7.00032 11.9603C7.08191 11.9603 7.36643 11.9383 7.91536 10.9505C8.43798 10.01 8.99966 8.56607 9.79817 6.50325L12.0677 0.638991Z" fill="black" fill-opacity="0.983"/>
<path d="M12.0677 0.638991C12.2672 0.124132 12.8467 -0.131634 13.3616 0.0677024C13.8765 0.267173 14.1323 0.846696 13.9329 1.36165L11.6634 7.22493C10.8888 9.22608 10.27 10.8307 9.66341 11.9222C9.08319 12.9662 8.28898 13.9603 7.00032 13.9603C5.71166 13.9603 4.91745 12.9662 4.33723 11.9222C3.73067 10.8307 3.11187 9.22608 2.33723 7.22493L0.0677024 1.36165C-0.131634 0.846696 0.124132 0.267173 0.638991 0.0677024C1.15394 -0.131634 1.73347 0.124132 1.93294 0.638991L4.20247 6.50325C5.00098 8.56607 5.56266 10.01 6.08528 10.9505C6.63421 11.9383 6.91873 11.9603 7.00032 11.9603C7.08191 11.9603 7.36643 11.9383 7.91536 10.9505C8.43798 10.01 8.99966 8.56607 9.79817 6.50325L12.0677 0.638991Z" fill="white" style="mix-blend-mode:difference"/>
<path d="M12.0677 0.638991C12.2672 0.124132 12.8467 -0.131634 13.3616 0.0677024C13.8765 0.267173 14.1323 0.846696 13.9329 1.36165L11.6634 7.22493C10.8888 9.22608 10.27 10.8307 9.66341 11.9222C9.08319 12.9662 8.28898 13.9603 7.00032 13.9603C5.71166 13.9603 4.91745 12.9662 4.33723 11.9222C3.73067 10.8307 3.11187 9.22608 2.33723 7.22493L0.0677024 1.36165C-0.131634 0.846696 0.124132 0.267173 0.638991 0.0677024C1.15394 -0.131634 1.73347 0.124132 1.93294 0.638991L4.20247 6.50325C5.00098 8.56607 5.56266 10.01 6.08528 10.9505C6.63421 11.9383 6.91873 11.9603 7.00032 11.9603C7.08191 11.9603 7.36643 11.9383 7.91536 10.9505C8.43798 10.01 8.99966 8.56607 9.79817 6.50325L12.0677 0.638991Z" fill="black" style="mix-blend-mode:saturation"/>
<path d="M12.0677 0.638991C12.2672 0.124132 12.8467 -0.131634 13.3616 0.0677024C13.8765 0.267173 14.1323 0.846696 13.9329 1.36165L11.6634 7.22493C10.8888 9.22608 10.27 10.8307 9.66341 11.9222C9.08319 12.9662 8.28898 13.9603 7.00032 13.9603C5.71166 13.9603 4.91745 12.9662 4.33723 11.9222C3.73067 10.8307 3.11187 9.22608 2.33723 7.22493L0.0677024 1.36165C-0.131634 0.846696 0.124132 0.267173 0.638991 0.0677024C1.15394 -0.131634 1.73347 0.124132 1.93294 0.638991L4.20247 6.50325C5.00098 8.56607 5.56266 10.01 6.08528 10.9505C6.63421 11.9383 6.91873 11.9603 7.00032 11.9603C7.08191 11.9603 7.36643 11.9383 7.91536 10.9505C8.43798 10.01 8.99966 8.56607 9.79817 6.50325L12.0677 0.638991Z" fill="black" style="mix-blend-mode:color-burn"/>
</svg>
