<svg width="14" height="14" viewBox="0 0 14 14" fill="none" xmlns="http://www.w3.org/2000/svg">
<path d="M12.293 0.29297C12.6835 -0.0975547 13.3165 -0.0975547 13.707 0.29297C14.0975 0.683494 14.0975 1.31651 13.707 1.70703L8.41405 7L13.707 12.293C14.0975 12.6835 14.0975 13.3165 13.707 13.707C13.3165 14.0976 12.6835 14.0976 12.293 13.707L6.99999 8.41406L1.70702 13.707C1.31649 14.0976 0.683479 14.0976 0.292954 13.707C-0.09757 13.3165 -0.09757 12.6835 0.292954 12.293L5.58592 7L0.292954 1.70703C-0.09757 1.31651 -0.09757 0.683494 0.292954 0.29297C0.683479 -0.0975548 1.31649 -0.0975548 1.70702 0.29297L6.99999 5.58594L12.293 0.29297Z" fill="black" style="mix-blend-mode:overlay"/>
<path d="M12.293 0.29297C12.6835 -0.0975547 13.3165 -0.0975547 13.707 0.29297C14.0975 0.683494 14.0975 1.31651 13.707 1.70703L8.41405 7L13.707 12.293C14.0975 12.6835 14.0975 13.3165 13.707 13.707C13.3165 14.0976 12.6835 14.0976 12.293 13.707L6.99999 8.41406L1.70702 13.707C1.31649 14.0976 0.683479 14.0976 0.292954 13.707C-0.09757 13.3165 -0.09757 12.6835 0.292954 12.293L5.58592 7L0.292954 1.70703C-0.09757 1.31651 -0.09757 0.683494 0.292954 0.29297C0.683479 -0.0975548 1.31649 -0.0975548 1.70702 0.29297L6.99999 5.58594L12.293 0.29297Z" fill="black" fill-opacity="0.983"/>
<path d="M12.293 0.29297C12.6835 -0.0975547 13.3165 -0.0975547 13.707 0.29297C14.0975 0.683494 14.0975 1.31651 13.707 1.70703L8.41405 7L13.707 12.293C14.0975 12.6835 14.0975 13.3165 13.707 13.707C13.3165 14.0976 12.6835 14.0976 12.293 13.707L6.99999 8.41406L1.70702 13.707C1.31649 14.0976 0.683479 14.0976 0.292954 13.707C-0.09757 13.3165 -0.09757 12.6835 0.292954 12.293L5.58592 7L0.292954 1.70703C-0.09757 1.31651 -0.09757 0.683494 0.292954 0.29297C0.683479 -0.0975548 1.31649 -0.0975548 1.70702 0.29297L6.99999 5.58594L12.293 0.29297Z" fill="white" style="mix-blend-mode:difference"/>
<path d="M12.293 0.29297C12.6835 -0.0975547 13.3165 -0.0975547 13.707 0.29297C14.0975 0.683494 14.0975 1.31651 13.707 1.70703L8.41405 7L13.707 12.293C14.0975 12.6835 14.0975 13.3165 13.707 13.707C13.3165 14.0976 12.6835 14.0976 12.293 13.707L6.99999 8.41406L1.70702 13.707C1.31649 14.0976 0.683479 14.0976 0.292954 13.707C-0.09757 13.3165 -0.09757 12.6835 0.292954 12.293L5.58592 7L0.292954 1.70703C-0.09757 1.31651 -0.09757 0.683494 0.292954 0.29297C0.683479 -0.0975548 1.31649 -0.0975548 1.70702 0.29297L6.99999 5.58594L12.293 0.29297Z" fill="black" style="mix-blend-mode:saturation"/>
<path d="M12.293 0.29297C12.6835 -0.0975547 13.3165 -0.0975547 13.707 0.29297C14.0975 0.683494 14.0975 1.31651 13.707 1.70703L8.41405 7L13.707 12.293C14.0975 12.6835 14.0975 13.3165 13.707 13.707C13.3165 14.0976 12.6835 14.0976 12.293 13.707L6.99999 8.41406L1.70702 13.707C1.31649 14.0976 0.683479 14.0976 0.292954 13.707C-0.09757 13.3165 -0.09757 12.6835 0.292954 12.293L5.58592 7L0.292954 1.70703C-0.09757 1.31651 -0.09757 0.683494 0.292954 0.29297C0.683479 -0.0975548 1.31649 -0.0975548 1.70702 0.29297L6.99999 5.58594L12.293 0.29297Z" fill="black" style="mix-blend-mode:color-burn"/>
</svg>
