<svg width="14" height="14" viewBox="0 0 14 14" fill="none" xmlns="http://www.w3.org/2000/svg">
<path d="M5.99999 13V7.41406L0.292954 1.70703C-0.09757 1.31651 -0.09757 0.683494 0.292954 0.29297C0.683479 -0.0975548 1.31649 -0.0975548 1.70702 0.29297L6.99999 5.58594L12.293 0.29297C12.6835 -0.0975547 13.3165 -0.0975547 13.707 0.29297C14.0975 0.683494 14.0975 1.31651 13.707 1.70703L7.99999 7.41406V13C7.99999 13.5523 7.55227 14 6.99999 14C6.4477 14 5.99999 13.5523 5.99999 13Z" fill="black" style="mix-blend-mode:overlay"/>
<path d="M5.99999 13V7.41406L0.292954 1.70703C-0.09757 1.31651 -0.09757 0.683494 0.292954 0.29297C0.683479 -0.0975548 1.31649 -0.0975548 1.70702 0.29297L6.99999 5.58594L12.293 0.29297C12.6835 -0.0975547 13.3165 -0.0975547 13.707 0.29297C14.0975 0.683494 14.0975 1.31651 13.707 1.70703L7.99999 7.41406V13C7.99999 13.5523 7.55227 14 6.99999 14C6.4477 14 5.99999 13.5523 5.99999 13Z" fill="black" fill-opacity="0.983"/>
<path d="M5.99999 13V7.41406L0.292954 1.70703C-0.09757 1.31651 -0.09757 0.683494 0.292954 0.29297C0.683479 -0.0975548 1.31649 -0.0975548 1.70702 0.29297L6.99999 5.58594L12.293 0.29297C12.6835 -0.0975547 13.3165 -0.0975547 13.707 0.29297C14.0975 0.683494 14.0975 1.31651 13.707 1.70703L7.99999 7.41406V13C7.99999 13.5523 7.55227 14 6.99999 14C6.4477 14 5.99999 13.5523 5.99999 13Z" fill="white" style="mix-blend-mode:difference"/>
<path d="M5.99999 13V7.41406L0.292954 1.70703C-0.09757 1.31651 -0.09757 0.683494 0.292954 0.29297C0.683479 -0.0975548 1.31649 -0.0975548 1.70702 0.29297L6.99999 5.58594L12.293 0.29297C12.6835 -0.0975547 13.3165 -0.0975547 13.707 0.29297C14.0975 0.683494 14.0975 1.31651 13.707 1.70703L7.99999 7.41406V13C7.99999 13.5523 7.55227 14 6.99999 14C6.4477 14 5.99999 13.5523 5.99999 13Z" fill="black" style="mix-blend-mode:saturation"/>
<path d="M5.99999 13V7.41406L0.292954 1.70703C-0.09757 1.31651 -0.09757 0.683494 0.292954 0.29297C0.683479 -0.0975548 1.31649 -0.0975548 1.70702 0.29297L6.99999 5.58594L12.293 0.29297C12.6835 -0.0975547 13.3165 -0.0975547 13.707 0.29297C14.0975 0.683494 14.0975 1.31651 13.707 1.70703L7.99999 7.41406V13C7.99999 13.5523 7.55227 14 6.99999 14C6.4477 14 5.99999 13.5523 5.99999 13Z" fill="black" style="mix-blend-mode:color-burn"/>
</svg>
