<svg width="14" height="14" viewBox="0 0 14 14" fill="none" xmlns="http://www.w3.org/2000/svg">
<path d="M1 1.81003e-08L5.68262 2.22784e-07C7.67623 1.43743e-07 9.2239 -0.000939816 10.3428 0.0732426C10.9026 0.110364 11.3997 0.168512 11.8145 0.268555C12.2107 0.36414 12.6562 0.52619 12.9941 0.857422C13.8454 1.69181 14.1216 2.95113 13.6982 4.06543C13.5302 4.50778 13.1937 4.84093 12.874 5.09375C12.5394 5.35835 12.1127 5.61944 11.6201 5.8877C10.6352 6.42396 9.22925 7.07268 7.41894 7.9082C5.58042 8.75675 4.24906 9.37152 3.33691 9.86816C2.88123 10.1163 2.56921 10.3141 2.36621 10.4746C2.23247 10.5804 2.18076 10.6434 2.16602 10.6621C2.03591 11.0239 2.12556 11.4264 2.39551 11.7002C2.41788 11.7115 2.49092 11.7477 2.6543 11.7871C2.90589 11.8478 3.27232 11.8963 3.79004 11.9307C4.8263 11.9993 6.29265 12 8.31738 12L13 12C13.5523 12 14 12.4477 14 13C14 13.5523 13.5523 14 13 14L8.31738 14C6.32377 14 4.7761 14.0009 3.65723 13.9268C3.09739 13.8896 2.60032 13.8315 2.18555 13.7314C1.78932 13.6359 1.34384 13.4738 1.00586 13.1426C0.154589 12.3082 -0.121585 11.0489 0.301757 9.93457C0.469833 9.49222 0.806286 9.15907 1.12598 8.90625C1.46057 8.64165 1.88726 8.38056 2.37988 8.11231C3.36476 7.57604 4.77075 6.92732 6.58105 6.0918C8.41958 5.24325 9.75094 4.62848 10.6631 4.13184C11.1188 3.88372 11.4308 3.68593 11.6338 3.52539C11.7702 3.4175 11.8214 3.35423 11.835 3.33691C11.9645 2.9754 11.8751 2.57237 11.6055 2.29883C11.5836 2.28768 11.51 2.25254 11.3457 2.21289C11.0941 2.1522 10.7277 2.10366 10.21 2.06934C9.17369 2.00065 7.70735 2 5.68262 2L1 2C0.447715 2 -4.37114e-08 1.55228 -4.37114e-08 1C4.2876e-07 0.447716 0.447716 1.81003e-08 1 1.81003e-08Z" fill="black" style="mix-blend-mode:overlay"/>
<path d="M1 1.81003e-08L5.68262 2.22784e-07C7.67623 1.43743e-07 9.2239 -0.000939816 10.3428 0.0732426C10.9026 0.110364 11.3997 0.168512 11.8145 0.268555C12.2107 0.36414 12.6562 0.52619 12.9941 0.857422C13.8454 1.69181 14.1216 2.95113 13.6982 4.06543C13.5302 4.50778 13.1937 4.84093 12.874 5.09375C12.5394 5.35835 12.1127 5.61944 11.6201 5.8877C10.6352 6.42396 9.22925 7.07268 7.41894 7.9082C5.58042 8.75675 4.24906 9.37152 3.33691 9.86816C2.88123 10.1163 2.56921 10.3141 2.36621 10.4746C2.23247 10.5804 2.18076 10.6434 2.16602 10.6621C2.03591 11.0239 2.12556 11.4264 2.39551 11.7002C2.41788 11.7115 2.49092 11.7477 2.6543 11.7871C2.90589 11.8478 3.27232 11.8963 3.79004 11.9307C4.8263 11.9993 6.29265 12 8.31738 12L13 12C13.5523 12 14 12.4477 14 13C14 13.5523 13.5523 14 13 14L8.31738 14C6.32377 14 4.7761 14.0009 3.65723 13.9268C3.09739 13.8896 2.60032 13.8315 2.18555 13.7314C1.78932 13.6359 1.34384 13.4738 1.00586 13.1426C0.154589 12.3082 -0.121585 11.0489 0.301757 9.93457C0.469833 9.49222 0.806286 9.15907 1.12598 8.90625C1.46057 8.64165 1.88726 8.38056 2.37988 8.11231C3.36476 7.57604 4.77075 6.92732 6.58105 6.0918C8.41958 5.24325 9.75094 4.62848 10.6631 4.13184C11.1188 3.88372 11.4308 3.68593 11.6338 3.52539C11.7702 3.4175 11.8214 3.35423 11.835 3.33691C11.9645 2.9754 11.8751 2.57237 11.6055 2.29883C11.5836 2.28768 11.51 2.25254 11.3457 2.21289C11.0941 2.1522 10.7277 2.10366 10.21 2.06934C9.17369 2.00065 7.70735 2 5.68262 2L1 2C0.447715 2 -4.37114e-08 1.55228 -4.37114e-08 1C4.2876e-07 0.447716 0.447716 1.81003e-08 1 1.81003e-08Z" fill="black" fill-opacity="0.983"/>
<path d="M1 1.81003e-08L5.68262 2.22784e-07C7.67623 1.43743e-07 9.2239 -0.000939816 10.3428 0.0732426C10.9026 0.110364 11.3997 0.168512 11.8145 0.268555C12.2107 0.36414 12.6562 0.52619 12.9941 0.857422C13.8454 1.69181 14.1216 2.95113 13.6982 4.06543C13.5302 4.50778 13.1937 4.84093 12.874 5.09375C12.5394 5.35835 12.1127 5.61944 11.6201 5.8877C10.6352 6.42396 9.22925 7.07268 7.41894 7.9082C5.58042 8.75675 4.24906 9.37152 3.33691 9.86816C2.88123 10.1163 2.56921 10.3141 2.36621 10.4746C2.23247 10.5804 2.18076 10.6434 2.16602 10.6621C2.03591 11.0239 2.12556 11.4264 2.39551 11.7002C2.41788 11.7115 2.49092 11.7477 2.6543 11.7871C2.90589 11.8478 3.27232 11.8963 3.79004 11.9307C4.8263 11.9993 6.29265 12 8.31738 12L13 12C13.5523 12 14 12.4477 14 13C14 13.5523 13.5523 14 13 14L8.31738 14C6.32377 14 4.7761 14.0009 3.65723 13.9268C3.09739 13.8896 2.60032 13.8315 2.18555 13.7314C1.78932 13.6359 1.34384 13.4738 1.00586 13.1426C0.154589 12.3082 -0.121585 11.0489 0.301757 9.93457C0.469833 9.49222 0.806286 9.15907 1.12598 8.90625C1.46057 8.64165 1.88726 8.38056 2.37988 8.11231C3.36476 7.57604 4.77075 6.92732 6.58105 6.0918C8.41958 5.24325 9.75094 4.62848 10.6631 4.13184C11.1188 3.88372 11.4308 3.68593 11.6338 3.52539C11.7702 3.4175 11.8214 3.35423 11.835 3.33691C11.9645 2.9754 11.8751 2.57237 11.6055 2.29883C11.5836 2.28768 11.51 2.25254 11.3457 2.21289C11.0941 2.1522 10.7277 2.10366 10.21 2.06934C9.17369 2.00065 7.70735 2 5.68262 2L1 2C0.447715 2 -4.37114e-08 1.55228 -4.37114e-08 1C4.2876e-07 0.447716 0.447716 1.81003e-08 1 1.81003e-08Z" fill="white" style="mix-blend-mode:difference"/>
<path d="M1 1.81003e-08L5.68262 2.22784e-07C7.67623 1.43743e-07 9.2239 -0.000939816 10.3428 0.0732426C10.9026 0.110364 11.3997 0.168512 11.8145 0.268555C12.2107 0.36414 12.6562 0.52619 12.9941 0.857422C13.8454 1.69181 14.1216 2.95113 13.6982 4.06543C13.5302 4.50778 13.1937 4.84093 12.874 5.09375C12.5394 5.35835 12.1127 5.61944 11.6201 5.8877C10.6352 6.42396 9.22925 7.07268 7.41894 7.9082C5.58042 8.75675 4.24906 9.37152 3.33691 9.86816C2.88123 10.1163 2.56921 10.3141 2.36621 10.4746C2.23247 10.5804 2.18076 10.6434 2.16602 10.6621C2.03591 11.0239 2.12556 11.4264 2.39551 11.7002C2.41788 11.7115 2.49092 11.7477 2.6543 11.7871C2.90589 11.8478 3.27232 11.8963 3.79004 11.9307C4.8263 11.9993 6.29265 12 8.31738 12L13 12C13.5523 12 14 12.4477 14 13C14 13.5523 13.5523 14 13 14L8.31738 14C6.32377 14 4.7761 14.0009 3.65723 13.9268C3.09739 13.8896 2.60032 13.8315 2.18555 13.7314C1.78932 13.6359 1.34384 13.4738 1.00586 13.1426C0.154589 12.3082 -0.121585 11.0489 0.301757 9.93457C0.469833 9.49222 0.806286 9.15907 1.12598 8.90625C1.46057 8.64165 1.88726 8.38056 2.37988 8.11231C3.36476 7.57604 4.77075 6.92732 6.58105 6.0918C8.41958 5.24325 9.75094 4.62848 10.6631 4.13184C11.1188 3.88372 11.4308 3.68593 11.6338 3.52539C11.7702 3.4175 11.8214 3.35423 11.835 3.33691C11.9645 2.9754 11.8751 2.57237 11.6055 2.29883C11.5836 2.28768 11.51 2.25254 11.3457 2.21289C11.0941 2.1522 10.7277 2.10366 10.21 2.06934C9.17369 2.00065 7.70735 2 5.68262 2L1 2C0.447715 2 -4.37114e-08 1.55228 -4.37114e-08 1C4.2876e-07 0.447716 0.447716 1.81003e-08 1 1.81003e-08Z" fill="black" style="mix-blend-mode:saturation"/>
<path d="M1 1.81003e-08L5.68262 2.22784e-07C7.67623 1.43743e-07 9.2239 -0.000939816 10.3428 0.0732426C10.9026 0.110364 11.3997 0.168512 11.8145 0.268555C12.2107 0.36414 12.6562 0.52619 12.9941 0.857422C13.8454 1.69181 14.1216 2.95113 13.6982 4.06543C13.5302 4.50778 13.1937 4.84093 12.874 5.09375C12.5394 5.35835 12.1127 5.61944 11.6201 5.8877C10.6352 6.42396 9.22925 7.07268 7.41894 7.9082C5.58042 8.75675 4.24906 9.37152 3.33691 9.86816C2.88123 10.1163 2.56921 10.3141 2.36621 10.4746C2.23247 10.5804 2.18076 10.6434 2.16602 10.6621C2.03591 11.0239 2.12556 11.4264 2.39551 11.7002C2.41788 11.7115 2.49092 11.7477 2.6543 11.7871C2.90589 11.8478 3.27232 11.8963 3.79004 11.9307C4.8263 11.9993 6.29265 12 8.31738 12L13 12C13.5523 12 14 12.4477 14 13C14 13.5523 13.5523 14 13 14L8.31738 14C6.32377 14 4.7761 14.0009 3.65723 13.9268C3.09739 13.8896 2.60032 13.8315 2.18555 13.7314C1.78932 13.6359 1.34384 13.4738 1.00586 13.1426C0.154589 12.3082 -0.121585 11.0489 0.301757 9.93457C0.469833 9.49222 0.806286 9.15907 1.12598 8.90625C1.46057 8.64165 1.88726 8.38056 2.37988 8.11231C3.36476 7.57604 4.77075 6.92732 6.58105 6.0918C8.41958 5.24325 9.75094 4.62848 10.6631 4.13184C11.1188 3.88372 11.4308 3.68593 11.6338 3.52539C11.7702 3.4175 11.8214 3.35423 11.835 3.33691C11.9645 2.9754 11.8751 2.57237 11.6055 2.29883C11.5836 2.28768 11.51 2.25254 11.3457 2.21289C11.0941 2.1522 10.7277 2.10366 10.21 2.06934C9.17369 2.00065 7.70735 2 5.68262 2L1 2C0.447715 2 -4.37114e-08 1.55228 -4.37114e-08 1C4.2876e-07 0.447716 0.447716 1.81003e-08 1 1.81003e-08Z" fill="black" style="mix-blend-mode:color-burn"/>
</svg>
